<svg width="580" height="500" viewBox="0 0 580 500" fill="none" xmlns="http://www.w3.org/2000/svg">
<rect x="137" y="104" width="200" height="200" rx="40" fill="#43E72B" fill-opacity="0.5"/>
<rect x="213" y="173" width="155" height="154" rx="9" fill="#F5F5F5" stroke="#455DFF" stroke-width="2"/>
<path d="M137 62H154.5C165.546 62 174.5 70.9543 174.5 82V230C174.5 241.046 183.454 250 194.5 250H212" stroke="#888888" stroke-width="2"/>
<path d="M369 250H432C443.046 250 452 241.046 452 230V157" stroke="#888888" stroke-width="2"/>
<path d="M495 347V270C495 258.954 486.046 250 475 250H369" stroke="#888888" stroke-width="2"/>
<path d="M200 422H271C282.046 422 291 413.046 291 402V328" stroke="#888888" stroke-width="2"/>
<rect x="453" y="348" width="77.4937" height="78" rx="4" fill="#F5F5F5" stroke="#455DFF" stroke-width="2"/>
<path fill-rule="evenodd" clip-rule="evenodd" d="M490.74 361.19H490.732C490.63 361.19 490.571 361.19 490.519 361.19C485.172 361.244 480.802 365.366 480.357 370.61H475.19H475.146C473.783 370.61 472.699 370.61 471.824 370.681C470.929 370.755 470.165 370.908 469.466 371.264C468.337 371.839 467.419 372.757 466.844 373.886C466.487 374.585 466.334 375.349 466.261 376.245C466.19 377.119 466.19 378.203 466.19 379.566V379.61V401.29V401.334C466.19 402.697 466.19 403.781 466.261 404.656C466.334 405.551 466.487 406.315 466.844 407.014C467.419 408.143 468.337 409.061 469.466 409.636C470.165 409.993 470.929 410.146 471.824 410.219C472.699 410.29 473.783 410.29 475.146 410.29H475.146H475.146H475.146H475.146H475.19H506.29H506.334H506.334H506.334H506.334H506.334C507.697 410.29 508.781 410.29 509.656 410.219C510.551 410.146 511.315 409.993 512.014 409.636C513.143 409.061 514.061 408.143 514.636 407.014C514.993 406.315 515.146 405.551 515.219 404.656C515.29 403.781 515.29 402.697 515.29 401.334V401.334V401.334V401.334V401.334V401.29V379.61V379.566V379.566V379.566V379.566V379.566C515.29 378.203 515.29 377.119 515.219 376.245C515.146 375.349 514.993 374.585 514.636 373.886C514.061 372.757 513.143 371.839 512.014 371.264C511.315 370.908 510.551 370.755 509.656 370.681C508.781 370.61 507.697 370.61 506.334 370.61H506.29H501.122C500.677 365.366 496.307 361.244 490.96 361.19C490.909 361.19 490.849 361.19 490.747 361.19H490.74ZM499.113 370.61C498.675 366.466 495.191 363.233 490.94 363.19C490.9 363.19 490.851 363.19 490.74 363.19C490.628 363.19 490.579 363.19 490.539 363.19C486.288 363.233 482.804 366.466 482.366 370.61H499.113ZM471.987 372.675C471.215 372.738 470.744 372.857 470.374 373.046C469.621 373.43 469.009 374.041 468.626 374.794C468.437 375.164 468.318 375.636 468.255 376.407C468.191 377.191 468.19 378.193 468.19 379.61V383.191C468.233 383.207 468.281 383.225 468.333 383.244C468.646 383.357 469.11 383.521 469.707 383.718C470.899 384.112 472.619 384.639 474.719 385.166C476.378 385.582 478.268 385.998 480.32 386.348V383.385C480.32 382.833 480.767 382.385 481.32 382.385C481.872 382.385 482.32 382.833 482.32 383.385V386.66C484.934 387.029 487.752 387.272 490.645 387.272C493.596 387.272 496.482 387.02 499.16 386.638V383.385C499.16 382.833 499.608 382.385 500.16 382.385C500.713 382.385 501.16 382.833 501.16 383.385V386.324C503.175 385.978 505.038 385.572 506.679 385.165C508.806 384.638 510.553 384.111 511.766 383.717C512.372 383.519 512.844 383.356 513.163 383.242L513.29 383.196V379.61C513.29 378.193 513.289 377.191 513.225 376.407C513.162 375.636 513.043 375.164 512.854 374.794C512.471 374.041 511.859 373.43 511.106 373.046C510.736 372.857 510.265 372.738 509.493 372.675C508.709 372.611 507.707 372.61 506.29 372.61H475.19C473.773 372.61 472.771 372.611 471.987 372.675ZM499.16 388.658V390.45C499.16 391.002 499.608 391.45 500.16 391.45C500.713 391.45 501.16 391.002 501.16 390.45V388.352C503.363 387.985 505.391 387.545 507.16 387.107C509.34 386.566 511.133 386.025 512.384 385.619C512.728 385.507 513.031 385.405 513.29 385.316V401.29C513.29 402.707 513.289 403.709 513.225 404.493C513.162 405.265 513.043 405.736 512.854 406.106C512.471 406.859 511.859 407.471 511.106 407.854C510.736 408.043 510.265 408.162 509.493 408.226C508.709 408.29 507.707 408.29 506.29 408.29H475.19C473.773 408.29 472.771 408.29 471.987 408.226C471.215 408.162 470.744 408.043 470.374 407.854C469.621 407.471 469.009 406.859 468.626 406.106C468.437 405.736 468.318 405.265 468.255 404.493C468.191 403.709 468.19 402.707 468.19 401.29V385.315C468.444 385.404 468.742 385.506 469.079 385.617C470.311 386.024 472.078 386.565 474.232 387.106C476.019 387.554 478.077 388.004 480.32 388.376V390.45C480.32 391.002 480.767 391.45 481.32 391.45C481.872 391.45 482.32 391.002 482.32 390.45V388.68C484.936 389.038 487.751 389.272 490.645 389.272C493.598 389.272 496.481 389.028 499.16 388.658Z" fill="#455DFF"/>
<rect x="123" y="384" width="78" height="78" rx="4" fill="#F5F5F5" stroke="#455DFF" stroke-width="2"/>
<path fill-rule="evenodd" clip-rule="evenodd" d="M148.239 397.897L148.282 397.897L170.446 397.897L170.489 397.897C171.852 397.897 172.936 397.897 173.811 397.969C174.707 398.042 175.47 398.195 176.17 398.551C177.299 399.127 178.216 400.045 178.792 401.174C179.148 401.873 179.301 402.636 179.374 403.532C179.446 404.407 179.446 405.491 179.446 406.854L179.446 406.854L179.446 406.854L179.446 406.897L179.446 407.44C180.148 407.443 180.746 407.455 181.261 407.492C182.013 407.548 182.664 407.663 183.27 407.936C184.529 408.503 185.537 409.511 186.104 410.77C186.377 411.377 186.493 412.027 186.548 412.78C186.602 413.514 186.602 414.42 186.602 415.555L186.602 415.594L186.602 417.979L186.602 418.018L186.602 418.018C186.602 419.153 186.602 420.059 186.548 420.793C186.493 421.546 186.377 422.197 186.104 422.803C185.537 424.062 184.529 425.07 183.27 425.637C182.664 425.91 182.013 426.026 181.261 426.081C180.734 426.12 180.119 426.131 179.395 426.134C179.375 426.697 179.346 427.221 179.306 427.71C179.165 429.44 178.875 430.821 178.247 432.055C177.192 434.125 175.509 435.807 173.44 436.862C172.206 437.491 170.824 437.78 169.095 437.921C167.387 438.061 165.253 438.061 162.492 438.061L162.492 438.061L162.491 438.061L162.446 438.061L156.282 438.061L156.236 438.061L156.236 438.061L156.236 438.061C153.475 438.061 151.341 438.061 149.633 437.921C147.903 437.78 146.522 437.491 145.288 436.862C143.219 435.807 141.536 434.125 140.481 432.055C139.852 430.821 139.563 429.44 139.422 427.71C139.282 426.002 139.282 423.868 139.282 421.107L139.282 421.061L139.282 406.897L139.282 406.854C139.282 405.491 139.282 404.407 139.354 403.532C139.427 402.636 139.58 401.873 139.936 401.174C140.511 400.045 141.429 399.127 142.558 398.551C143.258 398.195 144.021 398.042 144.917 397.969C145.791 397.897 146.875 397.897 148.239 397.897ZM179.437 424.133C180.121 424.13 180.661 424.12 181.114 424.086C181.757 424.039 182.145 423.95 182.449 423.813C183.263 423.447 183.914 422.796 184.28 421.982C184.417 421.678 184.506 421.29 184.553 420.647C184.601 419.994 184.602 419.162 184.602 417.979L184.602 415.594C184.602 414.412 184.601 413.579 184.553 412.926C184.506 412.284 184.417 411.895 184.28 411.591C183.914 410.777 183.263 410.126 182.449 409.76C182.145 409.623 181.757 409.534 181.114 409.487C180.663 409.454 180.125 409.443 179.446 409.44L179.446 421.061L179.446 421.107L179.446 421.107L179.446 421.107C179.446 422.212 179.446 423.216 179.437 424.133ZM145.08 399.962C144.308 400.025 143.837 400.145 143.466 400.333C142.714 400.717 142.102 401.329 141.718 402.082C141.53 402.452 141.41 402.923 141.347 403.695C141.283 404.479 141.282 405.481 141.282 406.897L141.282 421.061C141.282 423.878 141.283 425.93 141.415 427.547C141.546 429.153 141.802 430.242 142.263 431.147C143.126 432.84 144.503 434.217 146.196 435.08C147.101 435.541 148.19 435.797 149.796 435.928C151.413 436.06 153.466 436.061 156.282 436.061L162.446 436.061C165.262 436.061 167.315 436.06 168.932 435.928C170.538 435.797 171.626 435.541 172.532 435.08C174.225 434.217 175.602 432.84 176.465 431.147C176.926 430.242 177.182 429.153 177.313 427.547C177.445 425.93 177.446 423.878 177.446 421.061L177.446 406.897C177.446 405.481 177.445 404.479 177.381 403.695C177.318 402.923 177.198 402.452 177.01 402.082C176.626 401.329 176.014 400.717 175.262 400.333C174.891 400.145 174.42 400.025 173.648 399.962C172.865 399.898 171.862 399.897 170.446 399.897L148.282 399.897C146.866 399.897 145.863 399.898 145.08 399.962ZM136.897 446.602C136.897 446.049 137.345 445.602 137.897 445.602L180.831 445.602C181.384 445.602 181.831 446.049 181.831 446.602C181.831 447.154 181.384 447.602 180.831 447.602L137.897 447.602C137.345 447.602 136.897 447.154 136.897 446.602Z" fill="#455DFF"/>
<rect x="59" y="18" width="78" height="78" rx="4" fill="#F5F5F5" stroke="#455DFF" stroke-width="2"/>
<circle cx="91.6846" cy="76.2964" r="4.47171" stroke="#455DFF" stroke-width="2" stroke-linecap="round"/>
<circle cx="109.57" cy="76.2964" r="4.47171" stroke="#455DFF" stroke-width="2" stroke-linecap="round"/>
<path d="M73.7969 33.8153L74.9148 33.8152V33.8152C75.2504 33.8152 75.4182 33.8152 75.5675 33.822C78.4075 33.9511 80.8436 35.8891 81.6079 38.6274C81.6481 38.7714 81.6859 38.9348 81.7613 39.2618L82.0523 40.5229M82.0523 40.5229L85.3283 54.7185C86.0008 57.6331 86.3371 59.0903 87.1296 60.1773C87.8287 61.1361 88.774 61.8881 89.8655 62.3536C91.1027 62.8814 92.5983 62.8814 95.5895 62.8814H108.443C111.254 62.8814 112.66 62.8814 113.846 62.4026C114.892 61.9799 115.813 61.2951 116.518 60.4139C117.318 59.4158 117.722 58.0694 118.53 55.3766L120.274 49.5608C121.193 46.4977 121.653 44.9661 121.32 43.7521C121.029 42.689 120.349 41.7743 119.414 41.19C118.347 40.5229 116.748 40.5229 113.55 40.5229H82.0523Z" stroke="#455DFF" stroke-width="2" stroke-linecap="round" stroke-linejoin="round"/>
<path d="M102.863 62.8813H84.9764C82.5068 62.8813 80.5047 64.8834 80.5047 67.3531V67.3531C80.5047 69.8227 82.5068 71.8248 84.9764 71.8248H118.514" stroke="#455DFF" stroke-width="2" stroke-linecap="round" stroke-linejoin="round"/>
<rect x="414" y="79" width="77.4904" height="78" rx="4" fill="#F5F5F5" stroke="#455DFF" stroke-width="2"/>
<path fill-rule="evenodd" clip-rule="evenodd" d="M469.901 96.1464C470.292 95.7559 470.925 95.7559 471.316 96.1464L473.149 97.9796L473.179 98.0103C474.067 98.8979 474.776 99.6072 475.303 100.227C475.842 100.863 476.248 101.47 476.476 102.172C476.843 103.3 476.843 104.515 476.476 105.642C476.248 106.345 475.842 106.952 475.303 107.588C474.777 108.207 474.067 108.917 473.18 109.804L473.149 109.835L461.911 121.073C461.52 121.464 460.887 121.464 460.496 121.073C460.106 120.683 460.106 120.049 460.496 119.659L471.735 108.421C472.66 107.495 473.311 106.843 473.778 106.293C474.237 105.752 474.46 105.375 474.574 105.024C474.81 104.298 474.81 103.516 474.574 102.79C474.46 102.439 474.237 102.063 473.778 101.521C473.311 100.971 472.66 100.319 471.735 99.3939L470.609 98.2677L454.857 114.019C454.466 114.41 453.833 114.41 453.443 114.019C453.052 113.629 453.052 112.996 453.443 112.605L469.901 96.1464ZM445.452 123.424L449.447 119.429L462.142 132.124L469.902 139.883C470.292 140.274 470.925 140.274 471.316 139.883C471.706 139.493 471.706 138.859 471.316 138.469L463.557 130.71L450.625 117.778L446.055 113.208C447.69 111.228 448.3 108.95 448.037 106.666C447.744 104.125 446.383 101.66 444.336 99.6132C442.289 97.5661 439.825 96.2053 437.283 95.9125C434.709 95.6159 432.142 96.4283 430.001 98.5689C427.861 100.709 427.048 103.277 427.345 105.851C427.638 108.392 428.998 110.857 431.045 112.904C433.093 114.951 435.557 116.312 438.099 116.605C440.382 116.868 442.661 116.258 444.641 114.622L448.033 118.015L444.038 122.01L427.579 138.469C427.188 138.859 427.188 139.493 427.579 139.883C427.969 140.274 428.603 140.274 428.993 139.883L445.452 123.424ZM431.416 99.9831C433.131 98.2673 435.096 97.6737 437.054 97.8993C439.045 98.1287 441.113 99.2182 442.922 101.027C444.731 102.837 445.821 104.904 446.05 106.895C446.276 108.853 445.682 110.818 443.966 112.534C442.251 114.25 440.286 114.843 438.328 114.618C436.337 114.388 434.269 113.299 432.46 111.49C430.65 109.68 429.561 107.613 429.332 105.622C429.106 103.664 429.7 101.699 431.416 99.9831Z" fill="#455DFF"/>
</svg>
