<svg width="580" height="500" viewBox="0 0 580 500" fill="none" xmlns="http://www.w3.org/2000/svg">
<g clip-path="url(#clip0_1122_4146)">
<rect x="295" y="176" width="200" height="200" rx="40" fill="#43E72B" fill-opacity="0.5"/>
<rect width="291.239" height="433" rx="8.12383" transform="matrix(-1 0 0 1 141.239 41)" stroke="#888888" stroke-width="2"/>
<path d="M141.239 49.1238C141.239 44.6372 137.602 41 133.115 41H-87.0405V298.932H141.239V49.1238Z" stroke="#888888" stroke-width="2"/>
<rect width="36.9634" height="70.6773" rx="4.06191" transform="matrix(-1 0 0 1 133.928 146.61)" stroke="#888888" stroke-width="2"/>
<rect width="30.8705" height="10.1548" rx="2.03096" transform="matrix(-1 0 0 1 130.678 204.695)" stroke="#888888" stroke-width="2"/>
<rect width="30.8705" height="54.0234" rx="2.03096" transform="matrix(-1 0 0 1 130.678 149.047)" stroke="#888888" stroke-width="2"/>
<rect width="83.6754" height="134.449" rx="4.06191" transform="matrix(-1 0 0 1 84.3728 154.733)" stroke="#888888" stroke-width="2"/>
<path d="M89.6523 53.1857C89.6523 50.9424 87.8338 49.1238 85.5904 49.1238H-87.0409V289.183H85.5904C87.8338 289.183 89.6523 287.364 89.6523 285.121V53.1857Z" stroke="#888888" stroke-width="2"/>
<rect width="74.7392" height="48.743" rx="4.06191" transform="matrix(-1 0 0 1 79.9043 159.202)" stroke="#888888" stroke-width="2"/>
<path d="M81.9358 281.059V283.496C81.9358 284.618 81.0265 285.527 79.9048 285.527H5.16563C4.04396 285.527 3.13467 284.618 3.13467 283.496V281.059M81.9358 281.059V273.342C81.9358 272.22 81.0265 271.311 79.9048 271.311H5.16563C4.04397 271.311 3.13467 272.22 3.13467 273.342V281.059M81.9358 281.059H3.13467" stroke="#888888" stroke-width="2"/>
<path d="M64.8751 228.864V269.28C64.8751 270.401 63.9658 271.311 62.8442 271.311H21.8188C20.6972 271.311 19.7879 270.401 19.7879 269.28V228.864M64.8751 228.864V215.662C64.8751 214.541 63.9658 213.631 62.8442 213.631H21.8188C20.6972 213.631 19.7879 214.541 19.7879 215.662V228.864M64.8751 228.864H19.7879" stroke="#888888" stroke-width="2"/>
<rect width="75.1454" height="28.8396" transform="matrix(-1 0 0 1 0.69635 169.356)" stroke="#888888" stroke-width="2"/>
<path d="M27.0992 298.931H141.239V465.876C141.239 470.363 137.602 474 133.115 474H27.0992M27.0992 298.931H-87.0405V474H27.0992M27.0992 298.931V474" stroke="#888888" stroke-width="2"/>
<circle cx="14.6229" cy="14.6229" r="14.6229" transform="matrix(-1 0 0 1 128.241 247.751)" stroke="#888888" stroke-width="2"/>
<circle cx="9.5455" cy="9.5455" r="9.5455" transform="matrix(-1 0 0 1 123.367 252.625)" stroke="#888888" stroke-width="2"/>
<circle cx="6.09287" cy="6.09287" r="6.09287" transform="matrix(-1 0 0 1 119.711 256.281)" stroke="#888888" stroke-width="2"/>
<path d="M283.696 48.3273C283.324 44.1701 279.821 41 275.647 41H149.363C144.876 41 141.239 44.6372 141.239 49.1238V118.989H283C285.843 91.2523 286.05 74.5849 283.696 48.3273Z" stroke="#888888" stroke-width="2"/>
<path d="M283 118.989H141.239V458.565C141.239 463.051 144.876 466.689 149.363 466.689H274.876C279.363 466.689 283 463.051 283 458.565V118.989Z" stroke="#888888" stroke-width="2"/>
<rect width="122.67" height="327.796" rx="4.06191" transform="matrix(-1 0 0 1 271.627 128.331)" stroke="#888888" stroke-width="2"/>
<path d="M269.19 466.688H261.066V471.969C261.066 473.091 261.975 474 263.097 474H267.159C268.28 474 269.19 473.091 269.19 471.969V466.688Z" stroke="#888888" stroke-width="2"/>
<path d="M161.143 466.688H153.019V471.969C153.019 473.091 153.928 474 155.05 474H159.112C160.234 474 161.143 473.091 161.143 471.969V466.688Z" stroke="#888888" stroke-width="2"/>
<line y1="-1" x2="122.67" y2="-1" transform="matrix(-1 0 0 1 271.627 181.948)" stroke="#888888" stroke-width="2"/>
<line y1="-1" x2="122.67" y2="-1" transform="matrix(-1 0 0 1 271.627 236.784)" stroke="#888888" stroke-width="2"/>
<line y1="-1" x2="122.67" y2="-1" transform="matrix(-1 0 0 1 271.627 291.62)" stroke="#888888" stroke-width="2"/>
<line y1="-1" x2="122.67" y2="-1" transform="matrix(-1 0 0 1 271.627 346.456)" stroke="#888888" stroke-width="2"/>
<line y1="-1" x2="122.67" y2="-1" transform="matrix(-1 0 0 1 271.627 401.292)" stroke="#888888" stroke-width="2"/>
<path d="M267.159 160.639H247.662L248.881 180.542H265.941L267.159 160.639Z" stroke="#888888" stroke-width="2"/>
<path d="M243.6 160.639H224.102L225.321 180.542H242.381L243.6 160.639Z" stroke="#888888" stroke-width="2"/>
<path d="M220.04 160.639H200.543L201.761 180.542H218.821L220.04 160.639Z" stroke="#888888" stroke-width="2"/>
<path d="M194.044 160.639H174.547L175.765 180.542H192.825L194.044 160.639Z" stroke="#888888" stroke-width="2"/>
<path d="M170.891 160.639H151.393L152.612 180.542H169.672L170.891 160.639Z" stroke="#888888" stroke-width="2"/>
<path d="M268.377 156.577C268.377 156.353 268.195 156.171 267.971 156.171H246.849C246.624 156.171 246.443 156.353 246.443 156.577V160.233C246.443 160.457 246.624 160.639 246.849 160.639H267.971C268.195 160.639 268.377 160.457 268.377 160.233V156.577Z" stroke="#888888" stroke-width="2"/>
<path d="M244.818 156.577C244.818 156.353 244.637 156.171 244.412 156.171H223.29C223.066 156.171 222.884 156.353 222.884 156.577V160.233C222.884 160.457 223.066 160.639 223.29 160.639H244.412C244.637 160.639 244.818 160.457 244.818 160.233V156.577Z" stroke="#888888" stroke-width="2"/>
<path d="M221.259 156.577C221.259 156.353 221.077 156.171 220.853 156.171H199.731C199.506 156.171 199.324 156.353 199.324 156.577V160.233C199.324 160.457 199.506 160.639 199.731 160.639H220.853C221.077 160.639 221.259 160.457 221.259 160.233V156.577Z" stroke="#888888" stroke-width="2"/>
<path d="M195.263 156.577C195.263 156.353 195.081 156.171 194.857 156.171H173.735C173.51 156.171 173.328 156.353 173.328 156.577V160.233C173.328 160.457 173.51 160.639 173.735 160.639H194.857C195.081 160.639 195.263 160.457 195.263 160.233V156.577Z" stroke="#888888" stroke-width="2"/>
<path d="M172.109 156.577C172.109 156.353 171.928 156.171 171.703 156.171H150.581C150.357 156.171 150.175 156.353 150.175 156.577V160.233C150.175 160.457 150.357 160.639 150.581 160.639H171.703C171.928 160.639 172.109 160.457 172.109 160.233V156.577Z" stroke="#888888" stroke-width="2"/>
<path d="M267.159 270.717H247.662L248.881 290.62H265.941L267.159 270.717Z" stroke="#888888" stroke-width="2"/>
<path d="M243.6 270.717H224.102L225.321 290.62H242.381L243.6 270.717Z" stroke="#888888" stroke-width="2"/>
<path d="M220.04 270.717H200.543L201.761 290.62H218.821L220.04 270.717Z" stroke="#888888" stroke-width="2"/>
<path d="M194.044 270.717H174.547L175.765 290.62H192.825L194.044 270.717Z" stroke="#888888" stroke-width="2"/>
<path d="M170.891 270.717H151.393L152.612 290.62H169.672L170.891 270.717Z" stroke="#888888" stroke-width="2"/>
<path d="M268.377 266.655C268.377 266.43 268.195 266.249 267.971 266.249H246.849C246.624 266.249 246.443 266.43 246.443 266.655V270.31C246.443 270.535 246.624 270.717 246.849 270.717H267.971C268.195 270.717 268.377 270.535 268.377 270.31V266.655Z" stroke="#888888" stroke-width="2"/>
<path d="M244.818 266.655C244.818 266.43 244.637 266.249 244.412 266.249H223.29C223.066 266.249 222.884 266.43 222.884 266.655V270.31C222.884 270.535 223.066 270.717 223.29 270.717H244.412C244.637 270.717 244.818 270.535 244.818 270.31V266.655Z" stroke="#888888" stroke-width="2"/>
<path d="M221.259 266.655C221.259 266.43 221.077 266.249 220.853 266.249H199.731C199.506 266.249 199.324 266.43 199.324 266.655V270.31C199.324 270.535 199.506 270.717 199.731 270.717H220.853C221.077 270.717 221.259 270.535 221.259 270.31V266.655Z" stroke="#888888" stroke-width="2"/>
<path d="M195.263 266.655C195.263 266.43 195.081 266.249 194.857 266.249H173.735C173.51 266.249 173.328 266.43 173.328 266.655V270.31C173.328 270.535 173.51 270.717 173.735 270.717H194.857C195.081 270.717 195.263 270.535 195.263 270.31V266.655Z" stroke="#888888" stroke-width="2"/>
<path d="M172.109 266.655C172.109 266.43 171.928 266.249 171.703 266.249H150.581C150.357 266.249 150.175 266.43 150.175 266.655V270.31C150.175 270.535 150.357 270.717 150.581 270.717H171.703C171.928 270.717 172.109 270.535 172.109 270.31V266.655Z" stroke="#888888" stroke-width="2"/>
<path d="M267.159 380.388H247.662L248.881 400.292H265.941L267.159 380.388Z" stroke="#888888" stroke-width="2"/>
<path d="M243.6 380.388H224.102L225.321 400.292H242.381L243.6 380.388Z" stroke="#888888" stroke-width="2"/>
<path d="M220.04 380.388H200.543L201.761 400.292H218.821L220.04 380.388Z" stroke="#888888" stroke-width="2"/>
<path d="M194.044 380.388H174.547L175.765 400.292H192.825L194.044 380.388Z" stroke="#888888" stroke-width="2"/>
<path d="M170.891 380.388H151.393L152.612 400.292H169.672L170.891 380.388Z" stroke="#888888" stroke-width="2"/>
<path d="M268.377 376.327C268.377 376.102 268.195 375.92 267.971 375.92H246.849C246.624 375.92 246.443 376.102 246.443 376.327V379.982C246.443 380.207 246.624 380.389 246.849 380.389H267.971C268.195 380.389 268.377 380.207 268.377 379.982V376.327Z" stroke="#888888" stroke-width="2"/>
<path d="M244.818 376.327C244.818 376.102 244.637 375.92 244.412 375.92H223.29C223.066 375.92 222.884 376.102 222.884 376.327V379.982C222.884 380.207 223.066 380.389 223.29 380.389H244.412C244.637 380.389 244.818 380.207 244.818 379.982V376.327Z" stroke="#888888" stroke-width="2"/>
<path d="M221.259 376.327C221.259 376.102 221.077 375.92 220.853 375.92H199.731C199.506 375.92 199.324 376.102 199.324 376.327V379.982C199.324 380.207 199.506 380.389 199.731 380.389H220.853C221.077 380.389 221.259 380.207 221.259 379.982V376.327Z" stroke="#888888" stroke-width="2"/>
<path d="M195.263 376.327C195.263 376.102 195.081 375.92 194.857 375.92H173.735C173.51 375.92 173.328 376.102 173.328 376.327V379.982C173.328 380.207 173.51 380.389 173.735 380.389H194.857C195.081 380.389 195.263 380.207 195.263 379.982V376.327Z" stroke="#888888" stroke-width="2"/>
<path d="M172.109 376.327C172.109 376.102 171.928 375.92 171.703 375.92H150.581C150.357 375.92 150.175 376.102 150.175 376.327V379.982C150.175 380.207 150.357 380.389 150.581 380.389H171.703C171.928 380.389 172.109 380.207 172.109 379.982V376.327Z" stroke="#888888" stroke-width="2"/>
<path d="M271.627 219.537H238.725V225.223C238.725 226.345 239.635 227.254 240.756 227.254H269.596C270.718 227.254 271.627 226.345 271.627 225.223V219.537Z" stroke="#888888" stroke-width="2"/>
<path d="M271.627 227.254H238.725V233.347C238.725 234.469 239.635 235.378 240.756 235.378H269.596C270.718 235.378 271.627 234.469 271.627 233.347V227.254Z" stroke="#888888" stroke-width="2"/>
<path d="M237.507 219.537H204.605V225.223C204.605 226.345 205.515 227.254 206.636 227.254H235.476C236.598 227.254 237.507 226.345 237.507 225.223V219.537Z" stroke="#888888" stroke-width="2"/>
<path d="M203.387 219.537H170.485V225.223C170.485 226.345 171.395 227.254 172.516 227.254H201.356C202.477 227.254 203.387 226.345 203.387 225.223V219.537Z" stroke="#888888" stroke-width="2"/>
<path d="M237.507 227.254H204.605V233.347C204.605 234.469 205.515 235.378 206.636 235.378H235.476C236.598 235.378 237.507 234.469 237.507 233.347V227.254Z" stroke="#888888" stroke-width="2"/>
<path d="M203.387 227.254H170.485V233.347C170.485 234.469 171.395 235.378 172.516 235.378H201.356C202.477 235.378 203.387 234.469 203.387 233.347V227.254Z" stroke="#888888" stroke-width="2"/>
<path d="M169.267 219.537H148.957V227.254H167.236C168.357 227.254 169.267 226.345 169.267 225.223V219.537Z" stroke="#888888" stroke-width="2"/>
<path d="M169.267 227.254H148.957V235.378H167.236C168.357 235.378 169.267 234.469 169.267 233.347V227.254Z" stroke="#888888" stroke-width="2"/>
<path d="M271.627 329.615H238.725V335.301C238.725 336.423 239.635 337.332 240.756 337.332H269.596C270.718 337.332 271.627 336.423 271.627 335.301V329.615Z" stroke="#888888" stroke-width="2"/>
<path d="M271.627 337.332H238.725V343.425C238.725 344.547 239.635 345.456 240.756 345.456H269.596C270.718 345.456 271.627 344.547 271.627 343.425V337.332Z" stroke="#888888" stroke-width="2"/>
<path d="M237.507 329.615H204.605V335.301C204.605 336.423 205.515 337.332 206.636 337.332H235.476C236.598 337.332 237.507 336.423 237.507 335.301V329.615Z" stroke="#888888" stroke-width="2"/>
<path d="M203.387 329.615H170.485V335.301C170.485 336.423 171.395 337.332 172.516 337.332H201.356C202.477 337.332 203.387 336.423 203.387 335.301V329.615Z" stroke="#888888" stroke-width="2"/>
<path d="M237.507 337.332H204.605V343.425C204.605 344.547 205.515 345.456 206.636 345.456H235.476C236.598 345.456 237.507 344.547 237.507 343.425V337.332Z" stroke="#888888" stroke-width="2"/>
<path d="M203.387 337.332H170.485V343.425C170.485 344.547 171.395 345.456 172.516 345.456H201.356C202.477 345.456 203.387 344.547 203.387 343.425V337.332Z" stroke="#888888" stroke-width="2"/>
<path d="M169.267 329.615H148.957V337.332H167.236C168.357 337.332 169.267 336.423 169.267 335.301V329.615Z" stroke="#888888" stroke-width="2"/>
<path d="M169.267 337.332H148.957V345.456H167.236C168.357 345.456 169.267 344.547 169.267 343.425V337.332Z" stroke="#888888" stroke-width="2"/>
<path d="M50.2523 229.067H35.6294V243.69C35.6294 243.914 35.8113 244.096 36.0356 244.096H49.8461C50.0705 244.096 50.2523 243.914 50.2523 243.69V229.067Z" stroke="#888888" stroke-width="2"/>
<path d="M48.2216 252.626C48.2216 252.85 48.0397 253.032 47.8154 253.032H38.0668C37.8424 253.032 37.6606 252.85 37.6606 252.626V244.096H48.2216V252.626Z" stroke="#888888" stroke-width="2"/>
<path d="M374.766 487.019V351.067H377.185V487.019H374.766Z" fill="#F5F5F5" stroke="#455DFF" stroke-width="2"/>
<path d="M498.935 450.577L506.487 444.328C506.779 444.566 507.161 444.877 507.608 445.242C508.673 446.112 510.111 447.29 511.602 448.521C514.428 450.855 517.379 453.326 518.413 454.303C518.396 454.361 518.369 454.439 518.326 454.537C518.14 454.973 517.768 455.579 517.221 456.327C516.138 457.807 514.515 459.651 512.811 461.469C511.114 463.28 509.359 465.041 508.028 466.35C507.925 466.451 507.825 466.549 507.727 466.644C507.835 465.366 507.955 463.757 508.038 462.109C508.132 460.258 508.18 458.333 508.108 456.766C508.072 455.984 508.005 455.262 507.891 454.669C507.833 454.372 507.759 454.085 507.66 453.827C507.566 453.582 507.423 453.294 507.189 453.061L498.935 450.577ZM498.935 450.577C499.602 450.683 500.367 450.814 501.154 450.967C502.317 451.192 503.549 451.469 504.598 451.79C505.122 451.951 505.618 452.128 506.045 452.323C506.455 452.511 506.877 452.749 507.189 453.06L498.935 450.577ZM518.591 454.475C518.59 454.474 518.59 454.474 518.59 454.474C518.59 454.474 518.59 454.474 518.591 454.475Z" fill="#F5F5F5" stroke="#455DFF" stroke-width="2"/>
<path d="M512.861 447.238C512.714 447.391 512.538 447.569 512.338 447.767C511.674 448.423 510.732 449.3 509.622 450.179C508.515 451.056 507.222 451.951 505.856 452.631C504.497 453.306 503.005 453.799 501.517 453.799H501.517C500.984 453.799 500.694 453.893 500.547 453.977C500.425 454.047 500.358 454.131 500.312 454.266C500.185 454.639 500.243 455.324 500.561 456.368C500.789 457.118 501.1 457.903 501.417 458.702C501.522 458.968 501.628 459.235 501.732 459.504C501.934 460.025 502.126 460.547 502.268 461.033C502.406 461.507 502.517 462.011 502.517 462.479C502.517 464.023 501.876 465.878 500.947 467.635C500.005 469.417 498.708 471.213 497.267 472.654C496.729 473.192 496.109 473.769 495.49 474.345C495.305 474.517 495.121 474.689 494.938 474.86C494.13 475.616 493.354 476.361 492.722 477.066C492.074 477.788 491.651 478.388 491.47 478.849C491.383 479.069 491.376 479.199 491.382 479.262C491.387 479.303 491.397 479.341 491.458 479.402C491.458 479.402 491.458 479.402 491.458 479.402M512.861 447.238L512.659 445.992C512.659 445.992 524.575 452.299 524.575 454.807C524.575 457.314 508.272 478.109 506.129 479.293C503.066 480.985 492.495 481.853 490.751 480.11L491.458 479.402M512.861 447.238C513.168 447.406 513.566 447.626 514.029 447.887C515.138 448.513 516.611 449.37 518.081 450.303C519.558 451.24 521.003 452.235 522.068 453.135C522.603 453.587 523.012 453.99 523.279 454.328C523.504 454.613 523.558 454.765 523.571 454.803M512.861 447.238L523.571 454.803M491.458 479.402C491.504 479.448 491.673 479.565 492.077 479.687C492.458 479.803 492.96 479.896 493.565 479.961C494.775 480.09 496.294 480.095 497.881 479.992C499.464 479.889 501.082 479.682 502.482 479.399C503.908 479.112 505.019 478.764 505.645 478.418C505.644 478.418 505.677 478.399 505.75 478.342C505.819 478.287 505.906 478.212 506.013 478.114C506.226 477.918 506.494 477.651 506.811 477.316C507.444 476.648 508.244 475.744 509.153 474.673C510.97 472.533 513.198 469.758 515.363 466.937C517.528 464.116 519.619 461.263 521.165 458.966C521.939 457.815 522.567 456.82 522.996 456.045C523.212 455.657 523.368 455.341 523.468 455.1C523.539 454.928 523.563 454.836 523.571 454.803M491.458 479.402L523.571 454.803" fill="#F5F5F5" stroke="#455DFF" stroke-width="2"/>
<path d="M514.746 465.886L517.695 471.719L517.695 471.719C519.217 474.729 521.606 477.204 524.542 478.83L517.226 490.745C517.149 490.794 517.05 490.858 516.93 490.935C516.618 491.132 516.167 491.414 515.612 491.747C514.5 492.415 512.978 493.284 511.329 494.098C509.673 494.914 507.922 495.659 506.345 496.095C504.718 496.544 503.487 496.603 502.74 496.301L502.74 496.301C502.645 496.262 502.583 496.23 502.542 496.204C502.57 496.138 502.632 496.02 502.768 495.844C503.305 495.152 504.445 494.273 505.851 493.37C507.222 492.489 508.734 491.655 509.911 491.038C510.497 490.731 510.997 490.479 511.349 490.304C511.525 490.217 511.664 490.149 511.759 490.103L511.866 490.052L511.893 490.039L511.9 490.036L511.901 490.035L511.901 490.035L511.901 490.035L512.68 489.665L512.429 488.84L506.979 470.959L514.746 465.886ZM502.476 496.151C502.477 496.151 502.482 496.155 502.488 496.165C502.479 496.156 502.476 496.151 502.476 496.151Z" fill="#F5F5F5" stroke="#455DFF" stroke-width="2"/>
<path d="M437.083 300.948L437.083 300.948C436.789 300.654 436.561 300.101 436.47 299.245C436.382 298.413 436.439 297.445 436.567 296.493C436.694 295.549 436.886 294.663 437.047 294.009C437.114 293.738 437.175 293.509 437.224 293.334C437.447 293.21 437.774 293.033 438.178 292.825C438.99 292.408 440.109 291.871 441.345 291.387C442.585 290.901 443.913 290.48 445.149 290.279C446.405 290.074 447.448 290.116 448.195 290.43L448.195 290.43C448.87 290.715 449.329 291.271 449.628 292.079C449.933 292.904 450.042 293.924 450.029 294.969C450.017 296.003 449.887 296.999 449.758 297.742C449.694 298.112 449.631 298.415 449.584 298.624C449.563 298.715 449.546 298.788 449.533 298.841L446.215 305.477L446.01 305.888L446.189 306.313L447.11 305.924C446.189 306.313 446.189 306.313 446.189 306.313L446.189 306.313L446.19 306.315L446.193 306.324L446.208 306.359L446.265 306.494C446.315 306.612 446.388 306.787 446.481 307.01C446.668 307.456 446.934 308.096 447.254 308.871C447.894 310.42 448.747 312.507 449.6 314.658C450.453 316.811 451.303 319.02 451.938 320.818C452.256 321.717 452.516 322.503 452.695 323.121C452.785 323.43 452.851 323.687 452.895 323.89C452.916 323.991 452.931 324.072 452.939 324.134C452.944 324.165 452.946 324.189 452.948 324.207C452.949 324.216 452.949 324.223 452.949 324.227C452.949 324.231 452.949 324.233 452.949 324.233C452.949 324.423 452.993 324.87 453.407 325.173C453.805 325.465 454.229 325.387 454.392 325.344C454.73 325.256 455.053 325.03 455.281 324.857C455.805 324.46 456.509 323.8 457.306 322.998C458.916 321.378 461.05 319.032 463.169 316.636C465.292 314.236 467.414 311.771 469.004 309.907C469.773 309.006 470.419 308.245 470.88 307.699L480.281 319.174C480.134 319.323 479.962 319.496 479.767 319.691C479.034 320.427 477.977 321.476 476.686 322.731C474.103 325.242 470.586 328.57 466.842 331.847C463.093 335.128 459.141 338.336 455.685 340.62C453.956 341.763 452.38 342.655 451.036 343.211C449.656 343.782 448.675 343.933 448.062 343.802C447.506 343.683 446.919 343.251 446.332 342.331C445.747 341.415 445.236 340.126 444.805 338.531C443.943 335.348 443.454 331.174 443.191 326.912C442.759 319.9 442.948 312.846 443.029 309.829C443.046 309.176 443.058 308.712 443.058 308.479C443.058 306.778 441.871 305.344 440.716 304.216C440.132 303.645 439.485 303.088 438.876 302.564L438.817 302.513C438.179 301.964 437.586 301.451 437.083 300.948Z" fill="#F5F5F5" stroke="#455DFF" stroke-width="2"/>
<mask id="path-81-inside-1_1122_4146" fill="white">
<path d="M441.707 307.084C441.833 307.341 441.928 307.601 441.988 307.865C441.912 307.257 441.823 306.968 441.707 307.084Z"/>
</mask>
<path d="M441.707 307.084C441.833 307.341 441.928 307.601 441.988 307.865C441.912 307.257 441.823 306.968 441.707 307.084Z" fill="#F5F5F5"/>
<path d="M441.707 307.084L440.292 305.67L439.282 306.681L439.911 307.964L441.707 307.084ZM441.988 307.865L440.037 308.306L443.972 307.617L441.988 307.865ZM439.911 307.964C439.979 308.103 440.017 308.216 440.037 308.306L443.939 307.423C443.84 306.987 443.687 306.58 443.503 306.204L439.911 307.964ZM443.972 307.617C443.934 307.312 443.874 306.901 443.753 306.549C443.718 306.449 443.662 306.304 443.574 306.147C443.496 306.007 443.328 305.736 443.021 305.496C442.669 305.221 442.117 304.982 441.453 305.081C440.859 305.17 440.475 305.488 440.292 305.67L443.121 308.498C442.968 308.652 442.611 308.952 442.046 309.037C441.409 309.133 440.884 308.902 440.558 308.647C440.276 308.428 440.133 308.189 440.08 308.093C440.016 307.979 439.984 307.89 439.972 307.856C439.943 307.772 439.965 307.81 440.003 308.113L443.972 307.617Z" fill="#455DFF" mask="url(#path-81-inside-1_1122_4146)"/>
<path d="M490.594 284.061L490.594 284.061C493.17 282.955 494.963 282.765 496.061 282.819C496.612 282.846 496.996 282.935 497.226 283.006C497.255 283.015 497.282 283.024 497.306 283.032C497.324 283.061 497.343 283.092 497.363 283.126C497.496 283.35 497.685 283.689 497.892 284.133C498.308 285.021 498.797 286.323 499.076 287.953C499.63 291.193 499.368 295.791 495.935 301.113L496.776 301.655L495.935 301.113C492.379 306.628 488.787 311.458 486.083 314.91C484.731 316.635 483.603 318.015 482.813 318.962C482.588 319.232 482.39 319.467 482.223 319.665L468.075 307.489C468.127 307.426 468.182 307.36 468.24 307.29C468.745 306.682 469.472 305.81 470.362 304.756C472.142 302.648 474.57 299.814 477.165 296.91C479.762 294.003 482.517 291.036 484.951 288.657C486.168 287.467 487.295 286.434 488.275 285.633C489.273 284.817 490.056 284.293 490.594 284.061Z" fill="#F5F5F5" stroke="#455DFF" stroke-width="2"/>
<path d="M521.844 368.689L522.022 368.656L522.178 368.562L525.542 366.541L535.311 393.03C534.955 393.099 534.521 393.183 534.017 393.282C532.455 393.587 530.217 394.029 527.517 394.574C522.118 395.663 514.868 397.167 507.465 398.821C500.065 400.475 492.5 402.282 486.477 403.98C483.467 404.829 480.825 405.655 478.774 406.425C477.75 406.811 476.857 407.188 476.133 407.554C475.428 407.91 474.808 408.292 474.392 408.708C473.834 409.266 473.665 409.984 473.736 410.693C473.804 411.367 474.087 412.069 474.472 412.757C475.243 414.139 476.59 415.759 478.269 417.493C481.642 420.98 486.571 425.144 491.615 429.131C496.666 433.123 501.865 436.963 505.8 439.802C507.767 441.223 509.42 442.394 510.58 443.21C510.85 443.4 511.094 443.57 511.308 443.72L500.249 452.531C500.203 452.5 500.155 452.468 500.104 452.434C499.614 452.106 498.896 451.623 497.982 451.002C496.155 449.762 493.548 447.974 490.428 445.787C484.189 441.413 475.907 435.445 467.73 429.067C459.547 422.683 451.498 415.91 445.707 409.923C442.808 406.927 440.508 404.161 439.038 401.765C437.536 399.315 437.042 397.478 437.347 396.237C437.656 394.979 438.995 393.476 441.526 391.812C444.001 390.185 447.403 388.539 451.451 386.912C459.539 383.662 470.049 380.553 480.493 377.848C490.93 375.145 501.268 372.855 509 371.24C512.865 370.433 516.078 369.795 518.323 369.359C519.446 369.141 520.327 368.973 520.926 368.86C521.226 368.803 521.456 368.761 521.61 368.732L521.785 368.699L521.829 368.691L521.84 368.689L521.843 368.689C521.843 368.689 521.844 368.689 521.663 367.705L521.844 368.689Z" fill="#F5F5F5" stroke="#455DFF" stroke-width="2"/>
<path d="M447.176 492.452H447.153H447.088H447.022H446.956H446.889H446.823H446.756H446.688H446.621H446.553H446.484H446.416H446.347H446.278H446.209H446.139H446.069H445.999H445.928H445.858H445.787H445.715H445.644H445.572H445.5H445.428H445.355H445.282H445.209H445.136H445.063H444.989H444.915H444.841H444.766H444.691H444.616H444.541H444.466H444.39H444.315H444.239H444.162H444.086H444.009H443.932H443.855H443.778H443.701H443.623H443.545H443.467H443.389H443.311H443.232H443.153H443.074H442.995H442.916H442.836H442.757H442.677H442.597H442.517H442.437H442.356H442.276H442.195H442.114H442.033H441.952H441.871H441.789H441.708H441.626H441.544H441.462H441.38H441.298H441.216H441.133H441.051H440.968H440.885H440.802H440.719H440.636H440.553H440.47H440.386H440.303H440.219H440.136H440.052H439.968H439.884H439.8H439.716H439.632H439.548H439.463H439.379H439.295H439.21H439.126H439.041H438.957H438.872H438.787H438.702H438.617H438.533H438.448H438.363H438.278H438.193H438.108H438.023H437.938H437.852H437.767H437.682H437.597H437.512H437.427H437.342H437.256H437.171H437.086H437.001H436.916H436.83H436.745H436.66H436.575H436.49H436.405H436.32H436.235H436.15H436.065H435.98H435.895H435.81H435.725H435.64H435.555H435.471H435.386H435.302H435.217H435.132H435.048H434.964H434.879H434.795H434.711H434.627H434.543H434.459H434.375H434.291H434.208H434.124H434.04H433.957H433.874H433.79H433.707H433.624H433.541H433.459H433.376H433.293H433.211H433.128H433.046H432.964H432.882H432.8H432.718H432.637H432.555H432.474H432.393H432.312H432.231H432.15H432.069H431.989H431.908H431.828H431.748H431.668H431.589H431.509H431.43H431.351H431.272H431.193H431.114H431.036H430.958H430.879H430.802H430.724H430.646H430.569H430.492H430.415H430.338H430.262H430.185H430.109H430.033H429.958H429.882H429.807H429.732H429.657H429.583H429.508H429.434H429.36H429.287H429.213H429.14H429.067H428.995H428.922H428.85H428.778H428.707H428.635H428.564H428.493H428.423H428.352H428.282H428.213H428.143H428.074H428.005H427.936H427.868H427.8H427.732H427.665H427.597H427.531H427.464H427.398H427.332H427.266H427.201H427.136H427.071H427.007H426.943H426.879H426.815H426.752H426.69H426.627H426.565H426.503H426.442H426.381H426.32H426.26H426.2H426.14H426.081H426.022H425.963H425.905H425.847H425.79H425.732H425.676H425.619H425.563H425.508H425.453H425.398H425.343H425.289H425.235H425.182H425.129H425.077H425.025H424.973H424.922H424.871H424.821H424.771H424.721H424.672H424.623H424.575H424.527H424.479H424.432H424.386H424.34H424.294H424.249H424.204H424.159H424.115H424.072H424.029H423.986H423.944H423.902H423.861H423.821H423.78H423.741H423.701H423.662H423.624H423.586H423.549H423.512H423.475H423.44H423.404H423.369H423.335H423.301H423.267H423.235H423.202H423.17H423.139H423.108H423.078H423.048H423.019H422.99H422.962H422.934H422.907H422.88H422.854H422.828H422.803H422.792C422.761 492.377 422.726 492.286 422.688 492.176C422.498 491.632 422.287 490.82 422.064 489.798C421.621 487.766 421.161 485.038 420.742 482.291C420.324 479.548 419.951 476.803 419.682 474.742C419.554 473.754 419.449 472.924 419.375 472.328L426.104 471.678C426.187 471.929 426.288 472.234 426.406 472.582C426.754 473.604 427.25 474.999 427.842 476.493C428.433 477.983 429.126 479.585 429.867 481.013C430.598 482.422 431.417 483.741 432.282 484.606L432.282 484.606C433.153 485.477 434.854 486.512 436.774 487.541C438.735 488.592 441.053 489.702 443.265 490.712C444.643 491.342 445.983 491.934 447.176 492.452ZM422.913 492.698C422.913 492.698 422.913 492.697 422.911 492.695C422.913 492.697 422.913 492.698 422.913 492.698Z" fill="#F5F5F5" stroke="#455DFF" stroke-width="2"/>
<path d="M420.877 489.401C420.918 489.248 420.957 489.099 420.993 488.958C421.471 489.021 422.112 489.103 422.871 489.194C424.568 489.397 426.858 489.644 429.223 489.82C431.582 489.996 434.042 490.104 436.07 490.021C437.082 489.979 438.018 489.889 438.794 489.726C439.521 489.572 440.297 489.319 440.799 488.816C440.852 488.763 441.004 488.663 441.386 488.631C441.763 488.6 442.265 488.646 442.88 488.78C444.105 489.047 445.592 489.625 447.053 490.334C448.507 491.04 449.885 491.851 450.887 492.556C451.114 492.716 451.317 492.867 451.495 493.007C450.762 493.139 449.757 493.268 448.537 493.39C445.803 493.664 442.093 493.891 438.225 494.029C434.359 494.167 430.351 494.216 427.023 494.134C425.358 494.094 423.873 494.02 422.665 493.911C421.532 493.809 420.706 493.68 420.211 493.539C420.197 493.485 420.181 493.396 420.173 493.255C420.146 492.812 420.225 492.184 420.373 491.459C420.512 490.778 420.696 490.085 420.857 489.479C420.864 489.453 420.87 489.427 420.877 489.401ZM452.253 493.729C452.252 493.729 452.249 493.724 452.244 493.714C452.251 493.724 452.253 493.729 452.253 493.729ZM420.238 493.608C420.237 493.609 420.233 493.604 420.227 493.588C420.235 493.6 420.238 493.607 420.238 493.608Z" fill="#F5F5F5" stroke="#455DFF" stroke-width="2"/>
<path d="M354.753 289.871L357.017 254.789L367.869 266.1C367.869 266.147 367.869 266.199 367.869 266.254C367.868 266.616 367.871 267.14 367.881 267.788C367.903 269.084 367.96 270.88 368.098 272.885C368.372 276.859 368.976 281.781 370.337 285.212C370.572 285.804 370.521 286.213 370.36 286.538C370.179 286.903 369.791 287.294 369.119 287.677C367.765 288.45 365.644 288.978 363.307 289.318C361 289.653 358.602 289.789 356.771 289.841C355.966 289.864 355.274 289.871 354.753 289.871Z" fill="#F5F5F5" stroke="#455DFF" stroke-width="2"/>
<path d="M383.067 273.823V262.623V262.203H394.375V273.823C394.375 275.843 392.737 277.481 390.717 277.481H386.725C384.705 277.481 383.067 275.843 383.067 273.823Z" fill="#F5F5F5" stroke="#455DFF" stroke-width="2"/>
<path d="M399.934 282.622C401.265 282.702 402.434 283.557 402.907 284.817L403.188 285.568L408.517 284.115L408.517 283.367C408.484 283.299 408.444 283.214 408.396 283.115C408.257 282.823 408.055 282.404 407.805 281.893C407.306 280.871 406.617 279.486 405.858 278.031C405.098 276.575 404.272 275.058 403.498 273.768C402.708 272.451 402.024 271.46 401.549 270.986C400.498 269.935 398.854 268.843 397.416 267.992C397.229 267.882 397.047 267.776 396.872 267.676C396.982 268.225 397.073 268.834 397.077 269.389C397.079 269.683 397.058 269.997 396.986 270.295C396.915 270.587 396.777 270.937 396.492 271.222L396.492 271.223C396.431 271.284 396.364 271.352 396.293 271.425C395.413 272.328 393.741 274.041 390.892 274.041C390.322 274.041 389.972 274.125 389.783 274.212C389.691 274.255 389.654 274.288 389.641 274.304C389.638 274.325 389.631 274.429 389.734 274.648C389.854 274.906 390.092 275.247 390.494 275.648C390.494 275.648 390.494 275.648 390.494 275.648M399.934 282.622L390.494 275.648M399.934 282.622C399.456 282.425 398.782 282.049 397.974 281.53C397.1 280.967 396.123 280.273 395.154 279.542C393.206 278.074 391.354 276.508 390.494 275.648M399.934 282.622L390.494 275.648M389.635 274.314C389.634 274.314 389.635 274.311 389.64 274.305C389.637 274.311 389.635 274.314 389.635 274.314Z" fill="#F5F5F5" stroke="#455DFF" stroke-width="2"/>
<path d="M405.222 321.381L405.222 321.381C404.752 317.383 404.043 308.332 403.45 300.254C403.155 296.221 402.888 292.439 402.696 289.666C402.6 288.279 402.522 287.144 402.469 286.356L402.443 285.973L409.449 284.317C409.468 284.365 409.487 284.416 409.507 284.468C409.743 285.09 410.08 285.991 410.485 287.107C411.296 289.339 412.376 292.428 413.456 295.854C415.63 302.752 417.75 310.86 417.75 316.132V316.195V316.259V316.323V316.386V316.449V316.513V316.576V316.639V316.702V316.765V316.828V316.891V316.953V317.016V317.078V317.141V317.203V317.265V317.327V317.389V317.451V317.513V317.574V317.636V317.697V317.759V317.82V317.881V317.942V318.003V318.064V318.125V318.186V318.246V318.307V318.367V318.427V318.488V318.548V318.608V318.668V318.728V318.787V318.847V318.906V318.966V319.025V319.084V319.144V319.203V319.261V319.32V319.379V319.438V319.496V319.555V319.613V319.671V319.729V319.787V319.845V319.903V319.961V320.018V320.076V320.133V320.191V320.248V320.305V320.362V320.419V320.476V320.532V320.589V320.645V320.702V320.758V320.814V320.87V320.926V320.982V321.038V321.094V321.149V321.205V321.26V321.315V321.37V321.425V321.48V321.535V321.59V321.645V321.699V321.753V321.808V321.862V321.916V321.97V322.024V322.078V322.131V322.185V322.238V322.292V322.345V322.398V322.451V322.504V322.557V322.61V322.662V322.715V322.767V322.819V322.872V322.924V322.976V323.028V323.079V323.131V323.182V323.234V323.285V323.336V323.387V323.438V323.489V323.54V323.591V323.641V323.692V323.742V323.792V323.842V323.892V323.942V323.992V324.042V324.091V324.141V324.19V324.239V324.288V324.337V324.386V324.435V324.484V324.532V324.581V324.629V324.677V324.725V324.773V324.821V324.869V324.917V324.964V325.012V325.059V325.106V325.153V325.2V325.247V325.294V325.341V325.387V325.433V325.48V325.526V325.572V325.618V325.664V325.71V325.755V325.801V325.846V325.891V325.936V325.982V326.026V326.071V326.116V326.161V326.205V326.249V326.294V326.338V326.382V326.426V326.469V326.513V326.556V326.6V326.643V326.686V326.729V326.772V326.815V326.858V326.9V326.943V326.985V327.027V327.07V327.112V327.153V327.195V327.237V327.278V327.32V327.361V327.402V327.443V327.484V327.525V327.566V327.606V327.647V327.687V327.727V327.767V327.807V327.847V327.887V327.926V327.966V328.005V328.044V328.084V328.123V328.161V328.2V328.239V328.277V328.316V328.354V328.392V328.43V328.468V328.506V328.543V328.581V328.618V328.656V328.693V328.73V328.767V328.804V328.84V328.877V328.913V328.949V328.986V329.022V329.058V329.093V329.129V329.165V329.2V329.235V329.27V329.306V329.34V329.375V329.41V329.444V329.479V329.513V329.547V329.581V329.615V329.649V329.683V329.716V329.75V329.783V329.816V329.849V329.882V329.915V329.947V329.98V330.012V330.044V330.077V330.109V330.14V330.172V330.204V330.235V330.267V330.298V330.329V330.36V330.391V330.421V330.452V330.483V330.513V330.543V330.573V330.603V330.633V330.662V330.692V330.721V330.751V330.78V330.809V330.838V330.866V330.895V330.924V330.952V330.98V331.008V331.036V331.064V331.092V331.119V331.147V331.174V331.201V331.228V331.255V331.282V331.309V331.335V331.361V331.388V331.414V331.44V331.466V331.491V331.517V331.542V331.568V331.593V331.618V331.643V331.667V331.692V331.717V331.741V331.765V331.789V331.813V331.837V331.861V331.884V331.908V331.931V331.954V331.977V332V332.022V332.045V332.068V332.09V332.112V332.134V332.156V332.178V332.199V332.221V332.242V332.263V332.284V332.305V332.326V332.347V332.367V332.388V332.397C417.521 332.309 417.267 332.209 416.993 332.097C415.735 331.583 414.055 330.819 412.353 329.814C410.646 328.806 408.95 327.577 407.634 326.143C406.319 324.709 405.427 323.121 405.222 321.381Z" fill="#F5F5F5" stroke="#455DFF" stroke-width="2"/>
<path d="M325.934 351.119C326.403 348.625 328.591 346.739 331.221 346.739H492.721C495.35 346.739 497.539 348.625 498.008 351.119H325.934Z" fill="#F5F5F5" stroke="#455DFF" stroke-width="2"/>
<path d="M555.818 351.922C555.914 351.896 556.022 351.867 556.142 351.834C556.668 351.692 557.427 351.492 558.355 351.257C560.213 350.786 562.747 350.178 565.453 349.629C568.163 349.079 571.028 348.591 573.552 348.354C575.516 348.17 577.182 348.149 578.394 348.324L571.537 368.664L551.007 365.155L555.818 351.922Z" fill="#F5F5F5" stroke="#455DFF" stroke-width="2"/>
<path d="M375.586 267.034L375.586 267.034C375.876 266.635 376.191 265.956 376.504 264.99C376.812 264.042 377.099 262.883 377.359 261.576C377.879 258.963 378.283 255.818 378.557 252.697C378.831 249.577 378.974 246.502 378.977 244.033C378.979 242.797 378.946 241.726 378.878 240.882C378.808 240 378.707 239.476 378.622 239.26L375.586 267.034ZM375.586 267.034C374.468 268.577 372.347 268.815 369.853 267.847C367.396 266.893 365.059 264.914 364.032 262.86L364.032 262.86M375.586 267.034L364.032 262.86M364.032 262.86C363.841 262.477 363.668 261.671 363.595 260.418C363.524 259.206 363.55 257.698 363.672 256.005C363.914 252.62 364.53 248.568 365.451 244.801C366.377 241.012 367.588 237.608 368.979 235.453C369.679 234.37 370.357 233.709 370.969 233.414C371.505 233.156 372.051 233.145 372.715 233.538L372.716 233.538M364.032 262.86L372.716 233.538M372.716 233.538L372.755 233.563M372.716 233.538L372.755 233.563M372.755 233.563C372.79 233.586 372.843 233.621 372.911 233.666M372.755 233.563L372.911 233.666M372.911 233.666C373.048 233.756 373.246 233.89 373.489 234.061M372.911 233.666L373.489 234.061M373.489 234.061C373.975 234.402 374.634 234.886 375.326 235.457M373.489 234.061L375.326 235.457M375.326 235.457C376.019 236.029 376.732 236.679 377.334 237.349M375.326 235.457L377.334 237.349M377.334 237.349C377.944 238.03 378.395 238.683 378.622 239.26L377.334 237.349Z" fill="#F5F5F5" stroke="#455DFF" stroke-width="2"/>
<path d="M388.771 286.358L388.771 286.358C382.891 280.629 374.485 278.313 366.459 280.1L366.459 280.1C364.483 280.54 362.371 280.993 360.208 281.429L360.208 281.429C348.988 283.69 340.803 293.366 340.514 304.801L339.031 363.431C338.656 378.286 351.521 390.26 366.212 388.354C369.021 387.989 371.135 387.219 372.344 386.01C372.344 386.01 372.344 386.01 372.344 386.01M388.771 286.358L379.978 327.967C378.835 331.149 378.582 339.651 378.294 349.275C377.841 364.472 377.304 382.465 373.051 386.717L372.344 386.01M388.771 286.358C393.35 290.819 398.769 296.88 403.87 304.532L404.702 303.978M388.771 286.358L404.702 303.978M372.344 386.01C373.04 385.315 373.694 384.061 374.268 382.235C374.835 380.435 375.291 378.189 375.659 375.62C376.396 370.482 376.767 364.169 377.015 357.777C377.125 354.928 377.211 352.05 377.294 349.261C377.397 345.83 377.495 342.532 377.63 339.587C377.753 336.904 377.907 334.477 378.125 332.456C378.34 330.456 378.625 328.775 379.037 327.629L372.344 386.01ZM404.702 303.978L403.87 304.532C405.76 307.367 407.397 309.793 408.813 311.893C412.033 316.667 414.119 319.759 415.473 322.154C416.434 323.856 416.993 325.153 417.319 326.404C417.644 327.653 417.751 328.907 417.751 330.548C417.751 333.977 417.74 336.858 417.088 338.898C416.772 339.887 416.33 340.588 415.739 341.05C415.155 341.505 414.323 341.807 413.068 341.807C412.951 341.807 412.705 341.761 412.296 341.585M404.702 303.978L412.296 341.585M412.296 341.585C411.902 341.415 411.425 341.154 410.87 340.801M412.296 341.585L410.87 340.801M410.87 340.801C409.759 340.095 408.412 339.07 406.907 337.815M410.87 340.801L406.907 337.815M406.907 337.815C403.901 335.308 400.346 331.953 396.933 328.581M406.907 337.815L396.933 328.581M396.933 328.581C393.523 325.212 390.269 321.842 387.867 319.312M396.933 328.581L387.867 319.312M387.867 319.312C386.665 318.048 385.678 316.995 384.991 316.257M387.867 319.312L384.991 316.257M384.991 316.257C384.647 315.889 384.379 315.599 384.197 315.402M384.991 316.257L384.197 315.402M384.197 315.402C384.106 315.304 384.036 315.228 383.989 315.178M384.197 315.402L383.989 315.178M383.989 315.178L383.936 315.12M383.989 315.178L383.936 315.12M383.936 315.12L383.923 315.106M383.936 315.12L383.923 315.106M383.923 315.106L383.92 315.102M383.923 315.106L383.92 315.102M383.92 315.102L383.919 315.102M383.92 315.102L383.919 315.102M383.919 315.102C383.919 315.101 383.919 315.101 383.182 315.778L383.919 315.102Z" fill="#F5F5F5" stroke="#455DFF" stroke-width="2"/>
<path d="M369.873 498.699V420.043H370.556V498.699H369.873Z" fill="#F5F5F5" stroke="#455DFF" stroke-width="2"/>
<path d="M329.939 498.699V420.043H330.622V498.699H329.939Z" fill="#F5F5F5" stroke="#455DFF" stroke-width="2"/>
<path d="M380.369 498.699V420.043H381.053V498.699H380.369Z" fill="#F5F5F5" stroke="#455DFF" stroke-width="2"/>
<path d="M473.446 488.264V352.312H475.865V488.264H473.446Z" fill="#F5F5F5" stroke="#455DFF" stroke-width="2"/>
<path d="M543.839 388.687C543.557 388.761 543.223 388.849 542.843 388.95C541.513 389.302 539.61 389.811 537.31 390.436C532.711 391.687 526.527 393.406 520.187 395.279C513.851 397.151 507.347 399.181 502.115 401.052C499.5 401.986 497.187 402.887 495.365 403.714C493.591 404.519 492.142 405.314 491.386 406.07L543.839 388.687ZM543.839 388.687L536.056 368.769C535.818 368.836 535.533 368.918 535.205 369.012C534.086 369.332 532.455 369.803 530.406 370.402C526.308 371.6 520.539 373.312 513.854 375.37C500.479 379.485 483.455 384.977 468.822 390.49C465.418 391.772 463.475 393.906 462.573 396.652C461.653 399.455 461.783 403.003 462.791 407.118C464.807 415.347 470.221 425.396 476.619 435.201C483.003 444.982 490.305 454.429 496.018 461.436C498.872 464.939 501.327 467.828 503.068 469.841C503.938 470.848 504.63 471.635 505.103 472.17C505.191 472.269 505.271 472.359 505.344 472.441L517.569 466.884C517.354 466.503 517.078 466.015 516.75 465.43C515.889 463.895 514.665 461.699 513.212 459.048C510.306 453.746 506.481 446.624 502.808 439.345C499.137 432.073 495.606 424.62 493.297 418.667C492.145 415.695 491.28 413.057 490.863 410.982C490.655 409.948 490.547 409.006 490.59 408.211C490.631 407.442 490.821 406.636 491.386 406.071L543.839 388.687Z" fill="#F5F5F5" stroke="#455DFF" stroke-width="2"/>
<path d="M466.433 496.228H466.41H466.344H466.278H466.212H466.146H466.079H466.012H465.945H465.877H465.809H465.741H465.672H465.603H465.534H465.465H465.395H465.325H465.255H465.185H465.114H465.043H464.972H464.9H464.828H464.756H464.684H464.611H464.539H464.466H464.392H464.319H464.245H464.171H464.097H464.022H463.948H463.873H463.798H463.722H463.647H463.571H463.495H463.419H463.342H463.265H463.189H463.112H463.034H462.957H462.879H462.801H462.723H462.645H462.567H462.488H462.409H462.331H462.251H462.172H462.093H462.013H461.933H461.853H461.773H461.693H461.613H461.532H461.451H461.37H461.289H461.208H461.127H461.046H460.964H460.882H460.8H460.718H460.636H460.554H460.472H460.389H460.307H460.224H460.141H460.059H459.976H459.892H459.809H459.726H459.643H459.559H459.476H459.392H459.308H459.224H459.14H459.056H458.972H458.888H458.804H458.72H458.635H458.551H458.466H458.382H458.297H458.213H458.128H458.043H457.959H457.874H457.789H457.704H457.619H457.534H457.449H457.364H457.279H457.194H457.109H457.024H456.938H456.853H456.768H456.683H456.598H456.513H456.427H456.342H456.257H456.172H456.087H456.001H455.916H455.831H455.746H455.661H455.576H455.491H455.406H455.321H455.236H455.151H455.066H454.981H454.896H454.812H454.727H454.642H454.558H454.473H454.389H454.304H454.22H454.136H454.051H453.967H453.883H453.799H453.715H453.631H453.547H453.464H453.38H453.297H453.213H453.13H453.047H452.964H452.88H452.798H452.715H452.632H452.549H452.467H452.385H452.302H452.22H452.138H452.056H451.975H451.893H451.811H451.73H451.649H451.568H451.487H451.406H451.325H451.245H451.165H451.085H451.005H450.925H450.845H450.765H450.686H450.607H450.528H450.449H450.37H450.292H450.214H450.136H450.058H449.98H449.902H449.825H449.748H449.671H449.594H449.518H449.441H449.365H449.289H449.214H449.138H449.063H448.988H448.913H448.839H448.764H448.69H448.616H448.543H448.469H448.396H448.323H448.251H448.178H448.106H448.034H447.963H447.891H447.82H447.749H447.679H447.609H447.538H447.469H447.399H447.33H447.261H447.192H447.124H447.056H446.988H446.921H446.854H446.787H446.72H446.654H446.588H446.522H446.457H446.392H446.327H446.263H446.199H446.135H446.072H446.008H445.946H445.883H445.821H445.759H445.698H445.637H445.576H445.516H445.456H445.396H445.337H445.278H445.219H445.161H445.103H445.046H444.989H444.932H444.876H444.82H444.764H444.709H444.654H444.599H444.545H444.492H444.438H444.386H444.333H444.281H444.229H444.178H444.127H444.077H444.027H443.977H443.928H443.879H443.831H443.783H443.736H443.689H443.642H443.596H443.55H443.505H443.46H443.416H443.372H443.328H443.285H443.242H443.2H443.159H443.118H443.077H443.037H442.997H442.957H442.919H442.88H442.842H442.805H442.768H442.732H442.696H442.66H442.626H442.591H442.557H442.524H442.491H442.458H442.427H442.395H442.364H442.334H442.304H442.275H442.246H442.218H442.19H442.163H442.136H442.11H442.085H442.06H442.049C442.018 496.153 441.983 496.062 441.944 495.952C441.755 495.408 441.543 494.596 441.321 493.574C440.878 491.542 440.417 488.814 439.999 486.067C439.581 483.324 439.208 480.579 438.939 478.518C438.81 477.53 438.705 476.7 438.631 476.104L445.361 475.454C445.444 475.705 445.545 476.01 445.663 476.357C446.011 477.379 446.507 478.775 447.099 480.268C447.69 481.759 448.383 483.361 449.124 484.789C449.855 486.198 450.674 487.517 451.539 488.382C452.41 489.253 454.111 490.288 456.031 491.317C457.992 492.368 460.31 493.478 462.522 494.488C463.899 495.118 465.24 495.71 466.433 496.228ZM442.17 496.474C442.17 496.475 442.169 496.474 442.168 496.471C442.169 496.473 442.17 496.474 442.17 496.474Z" fill="#F5F5F5" stroke="#455DFF" stroke-width="2"/>
<path d="M429.477 474.893C428.775 474.969 427.916 475.09 426.981 475.235C425.445 475.473 423.634 475.787 421.832 476.103C421.453 476.169 421.076 476.235 420.703 476.301C418.122 476.755 415.714 477.178 414.245 477.376L413.983 475.716L412.916 468.959L409.693 448.537L406.476 428.148L405.416 421.433L405.119 419.552L405.041 419.057L405.021 418.93L405.016 418.898L405.015 418.889L405.014 418.887C405.014 418.887 405.014 418.887 404.026 419.043M429.477 474.893L416.742 405.589M429.477 474.893C429.422 474.452 429.354 473.896 429.273 473.234C428.595 467.685 427.019 454.779 425.011 441.539C423.75 433.216 422.326 424.825 420.866 418.168C420.136 414.837 419.401 411.961 418.678 409.753C418.317 408.648 417.964 407.728 417.625 407.01C417.277 406.275 416.975 405.822 416.742 405.589M429.477 474.893L416.742 405.589M404.026 419.043L405.014 418.887L404.904 418.187L404.207 418.059L404.026 419.043ZM404.026 419.043C404.207 418.059 404.207 418.059 404.207 418.059L404.205 418.059L404.198 418.057L404.169 418.052L404.053 418.031C403.951 418.012 403.799 417.984 403.601 417.947C403.204 417.873 402.622 417.763 401.878 417.622C400.39 417.34 398.258 416.93 395.682 416.422C390.529 415.404 383.603 413.99 376.506 412.404C369.407 410.817 362.151 409.062 356.334 407.362C353.423 406.511 350.891 405.68 348.925 404.896C346.907 404.091 345.642 403.394 345.114 402.867L345.114 402.867C342.543 400.296 340.862 396.09 339.826 392.394C339.314 390.567 338.97 388.908 338.755 387.705C338.678 387.275 338.617 386.905 338.571 386.606L368.766 377.502L368.885 377.565C369.2 377.733 369.663 377.98 370.255 378.297C371.438 378.93 373.134 379.841 375.188 380.952C379.295 383.175 384.83 386.197 390.541 389.395C396.254 392.595 402.137 395.968 406.942 398.892C409.345 400.355 411.471 401.701 413.169 402.855C414.884 404.02 416.105 404.952 416.742 405.589C416.742 405.589 416.742 405.589 416.742 405.589" fill="#F5F5F5" stroke="#455DFF" stroke-width="2"/>
<path d="M347.896 387.377C347.291 386.636 346.785 386.001 346.402 385.514L380.844 372.708C380.91 372.715 380.991 372.723 381.086 372.733C381.393 372.765 381.847 372.817 382.431 372.891C383.599 373.041 385.284 373.285 387.34 373.661C391.454 374.413 397.044 375.692 402.952 377.794C414.822 382.018 427.725 389.477 432.815 402.424C433.579 404.368 435.075 410.122 436.905 417.776C438.726 425.388 440.856 434.783 442.888 443.929C444.919 453.073 446.851 461.965 448.275 468.572C448.987 471.875 449.572 474.606 449.979 476.512C450.148 477.302 450.286 477.949 450.39 478.437L437.647 480.098C437.5 479.728 437.299 479.221 437.05 478.594C436.486 477.171 435.678 475.127 434.705 472.646C432.757 467.684 430.146 460.973 427.491 453.977C424.836 446.979 422.138 439.702 420.017 433.606C417.881 427.469 416.367 422.633 416.029 420.453C415.798 418.966 414.83 417.696 413.524 416.618C412.21 415.534 410.452 414.558 408.427 413.674C404.375 411.905 399.066 410.422 393.611 409.189C388.144 407.953 382.482 406.956 377.702 406.171C375.961 405.885 374.345 405.628 372.898 405.398C370.349 404.993 368.326 404.672 367.082 404.423C365.364 404.08 363.157 402.749 360.732 400.781C358.34 398.841 355.859 396.384 353.604 393.955C351.353 391.53 349.344 389.151 347.896 387.377Z" fill="#F5F5F5" stroke="#455DFF" stroke-width="2"/>
<path d="M404.175 417.83C404.014 417.92 403.882 417.991 403.784 418.043H329.275C324.022 413.995 319.84 407.275 316.536 399.319C313.185 391.25 310.782 382.019 309.069 373.274C307.356 364.535 306.338 356.311 305.749 350.271C305.454 347.251 305.267 344.779 305.153 343.064C305.103 342.31 305.067 341.703 305.043 341.259C305.191 341.233 305.359 341.205 305.545 341.174C306.435 341.029 307.756 340.84 309.465 340.665C312.883 340.314 317.851 340.021 324.021 340.256C336.362 340.726 353.508 343.309 372.692 351.771C391.945 360.263 403.225 368.317 409.692 375.927C416.123 383.497 417.835 390.677 417.835 397.577C417.835 404.306 414.331 409.431 410.734 412.919C408.941 414.659 407.144 415.971 405.795 416.848C405.122 417.286 404.563 417.613 404.175 417.83Z" fill="#F5F5F5" stroke="#455DFF" stroke-width="2"/>
<path d="M402.088 498.698V421.635H402.771V498.698H402.088Z" fill="#F5F5F5" stroke="#455DFF" stroke-width="2"/>
<path d="M329.939 425.303V420.043H402.771V425.303H329.939Z" fill="#F5F5F5" stroke="#455DFF" stroke-width="2"/>
<path d="M490.409 498.699V417.904H491.093V498.699H490.409Z" fill="#F5F5F5" stroke="#455DFF" stroke-width="2"/>
<path d="M555.257 498.699V418.447H555.941V498.699H555.257Z" fill="#F5F5F5" stroke="#455DFF" stroke-width="2"/>
<path d="M490.409 419.635V415.939H555.941V419.635H490.409Z" fill="#F5F5F5" stroke="#455DFF" stroke-width="2"/>
<path d="M372.42 225.903L372.724 226.14L373.115 226.106C378.749 225.617 381.659 226.274 383.016 227.248C383.649 227.702 383.949 228.228 384.06 228.8C384.178 229.402 384.098 230.129 383.829 230.957C383.287 232.626 382.074 234.418 380.936 235.839C380.376 236.539 379.852 237.128 379.468 237.541C379.41 237.604 379.354 237.663 379.302 237.718C378.989 237.618 378.583 237.519 378.115 237.477C376.993 237.378 375.52 237.619 374.216 238.924C373.468 239.671 373.16 240.674 372.955 241.709C372.851 242.237 372.765 242.823 372.675 243.442L372.663 243.526C372.576 244.129 372.482 244.777 372.359 245.484C371.849 248.414 370.832 252.399 367.747 257.644C364.399 263.337 364.778 269.762 365.75 277.195C365.909 278.412 366.084 279.659 366.265 280.941C367.197 287.558 368.257 295.085 367.821 303.981C367.139 317.89 357.012 331.817 342.717 333.145C331.189 334.216 320.43 326.748 318.415 315.246C316.806 306.059 318.606 297.146 322.122 287.218C323.88 282.252 326.058 277.058 328.439 271.46C328.685 270.881 328.933 270.299 329.183 269.712C331.346 264.631 333.65 259.22 335.923 253.385C337.202 250.518 338.292 247.948 339.265 245.655C339.774 244.454 340.251 243.329 340.706 242.278C342.041 239.192 343.192 236.724 344.458 234.674C346.937 230.657 349.88 228.191 355.696 226.048L355.35 225.11L355.696 226.048C361.537 223.896 365.773 223.919 368.502 224.435C369.87 224.694 370.873 225.08 371.521 225.39C371.845 225.546 372.081 225.683 372.229 225.776C372.303 225.822 372.356 225.858 372.387 225.88C372.402 225.891 372.412 225.898 372.417 225.901C372.418 225.902 372.418 225.902 372.418 225.902C372.418 225.902 372.419 225.903 372.42 225.903C372.42 225.904 372.42 225.904 372.42 225.903Z" fill="#F5F5F5" stroke="#455DFF" stroke-width="2"/>
<path d="M489.141 309.389L489.141 309.389C488.523 303.934 489.024 297.439 489.691 292.267C490.024 289.69 490.396 287.458 490.685 285.871C490.829 285.078 490.953 284.447 491.04 284.015C491.055 283.94 491.069 283.871 491.082 283.808C491.15 283.772 491.226 283.733 491.31 283.69C491.726 283.475 492.331 283.168 493.084 282.799C494.592 282.061 496.69 281.077 499.054 280.093C503.831 278.106 509.518 276.198 513.612 276.198C513.874 276.198 514.334 276.329 515.03 276.761C515.703 277.179 516.499 277.816 517.406 278.672C519.218 280.381 521.379 282.868 523.766 285.945C528.534 292.093 534.129 300.488 539.536 309.44C544.943 318.389 550.149 327.871 554.144 336.182C558.16 344.537 560.891 351.587 561.446 355.724L562.437 355.591L561.446 355.724C562.598 364.311 562.964 371.112 563.042 375.759C563.081 378.082 563.049 379.866 563.007 381.067C563.006 381.075 563.006 381.084 563.006 381.092L559.013 378.289L558.876 378.192L558.715 378.146L529.272 369.673L528.996 370.634L529.272 369.673C525.059 368.461 521.416 365.795 518.991 362.144L518.991 362.144C514.603 355.539 507.358 344.437 501.089 333.902C497.954 328.633 495.071 323.519 492.913 319.188C491.834 317.022 490.942 315.064 490.292 313.388C489.637 311.697 489.25 310.35 489.141 309.389Z" fill="#F5F5F5" stroke="#455DFF" stroke-width="2"/>
<path d="M493.804 290.108L493.803 290.108C493.751 290.113 493.699 290.115 493.646 290.115C493.165 290.115 492.821 289.98 492.546 289.769C492.255 289.546 491.989 289.195 491.755 288.693C491.291 287.698 491.049 286.327 490.877 284.842C490.961 284.407 491.031 284.058 491.082 283.808C491.146 283.774 491.217 283.738 491.295 283.697C491.701 283.488 492.292 283.187 493.029 282.826C494.504 282.103 496.559 281.137 498.881 280.166C503.148 278.381 508.185 276.636 512.167 276.269C511.858 277.033 510.59 279.916 508.001 282.862C505.092 286.171 500.544 289.532 493.804 290.108Z" fill="#F5F5F5" stroke="#455DFF" stroke-width="2"/>
<path d="M450.115 344.739L450.133 344.739L450.096 345.739C450.133 344.739 450.133 344.739 450.133 344.739L450.134 344.739L450.139 344.74L450.157 344.74L450.227 344.743L450.503 344.753C450.746 344.761 451.102 344.774 451.558 344.789C452.47 344.82 453.781 344.862 455.373 344.91C458.558 345.005 462.871 345.12 467.382 345.199C471.893 345.278 476.597 345.321 480.567 345.273C484.571 345.224 487.737 345.083 489.232 344.813C489.397 344.783 489.659 344.678 490.024 344.421C490.383 344.169 490.792 343.806 491.247 343.33C492.159 342.376 493.186 341.041 494.285 339.427C496.479 336.204 498.882 331.982 501.118 327.767C503.352 323.556 505.406 319.375 506.902 316.245C507.651 314.681 508.259 313.38 508.68 312.471C508.826 312.155 508.95 311.887 509.049 311.671L496.138 298.612C496.09 298.703 496.04 298.799 495.988 298.899C495.487 299.855 494.769 301.223 493.9 302.872C492.162 306.171 489.82 310.593 487.406 315.088C484.992 319.583 482.503 324.155 480.471 327.75C479.455 329.547 478.55 331.107 477.823 332.294C477.46 332.888 477.137 333.395 476.864 333.796C476.605 334.177 476.352 334.52 476.134 334.738L450.115 344.739ZM450.115 344.739H450.096M450.115 344.739H450.096M450.096 344.739L441.001 344.738H440.993M450.096 344.739L440.993 344.738M440.993 344.738L440.986 344.738M440.993 344.738L440.986 344.738M440.986 344.738C438.198 344.779 435.818 342.669 435.657 339.961L440.986 344.738ZM435.657 339.961C435.65 339.849 435.699 339.535 435.894 339.032C436.075 338.563 436.342 338.034 436.652 337.538C436.965 337.038 437.3 336.609 437.603 336.318C437.887 336.045 438.026 336.006 438.025 336.001C438.025 336 438.025 336 438.024 336H438.044H438.066H438.087H438.109H438.131H438.153H438.176H438.198H438.22H438.242H438.265H438.287H438.31H438.333H438.355H438.378H438.401H438.424H438.447H438.469H438.493H438.516H438.539H438.562H438.585H438.609H438.632H438.656H438.679H438.703H438.726H438.75H438.774H438.798H438.821H438.845H438.869H438.893H438.917H438.942H438.966H438.99H439.014H439.039H439.063H439.088H439.112H439.137H439.161H439.186H439.211H439.236H439.26H439.285H439.31H439.335H439.36H439.385H439.41H439.436H439.461H439.486H439.511H439.537H439.562H439.588H439.613H439.639H439.664H439.69H439.716H439.741H439.767H439.793H439.819H439.845H439.871H439.897H439.923H439.949H439.975H440.001H440.027H440.054H440.08H440.106H440.132H440.159H440.185H440.212H440.238H440.265H440.291H440.318H440.345H440.371H440.398H440.425H440.452H440.478H440.505H440.532H440.559H440.586H440.613H440.64H440.667H440.694H440.721H440.749H440.776H440.803H440.83H440.858H440.885H440.912H440.94H440.967H440.994H441.022H441.049H441.077H441.104H441.132H441.16H441.187H441.215H441.242H441.27H441.298H441.326H441.353H441.381H441.409H441.437H441.465H441.493H441.52H441.548H441.576H441.604H441.632H441.66H441.688H441.716H441.744H441.772H441.801H441.829H441.857H441.885H441.913H441.941H441.97H441.998H442.026H442.054H442.082H442.111H442.139H442.167H442.196H442.224H442.252H442.281H442.309H442.337H442.366H442.394H442.423H442.451H442.48H442.508H442.536H442.565H442.593H442.622H442.65H442.679H442.707H442.736H442.764H442.793H442.822H442.85H442.879H442.907H442.936H442.964H442.993H443.021H443.05H443.079H443.107H443.136H443.164H443.193H443.222H443.25H443.279H443.307H443.336H443.364H443.393H443.422H443.45H443.479H443.507H443.536H443.565H443.593H443.622H443.65H443.679H443.707H443.736H443.765H443.793H443.822H443.85H443.879H443.907H443.936H443.964H443.993H444.021H444.05H444.078H444.107H444.135H444.164H444.192H444.22H444.249H444.277H444.306H444.334H444.362H444.391H444.419H444.447H444.476H444.504H444.532H444.561H444.589H444.617H444.645H444.674H444.702H444.73H444.758H444.786H444.814H444.842H444.871H444.899H444.927H444.955H444.983H445.011H445.039H445.067H445.095H445.122H445.15H445.178H445.206H445.234H445.262H445.29H445.317H445.345H445.373H445.4H445.428H445.456H445.483H445.511H445.538H445.566H445.593H445.621H445.648H445.676H445.703H445.731H445.758H445.785H445.812H445.84H445.867H445.894H445.921H445.948H445.975H446.002H446.03H446.057H446.083H446.11H446.137H446.164H446.191H446.218H446.244H446.271H446.298H446.325H446.351H446.378H446.404H446.431H446.457H446.484H446.51H446.536H446.563H446.589H446.615H446.641H446.667H446.694H446.72H446.746H446.772H446.798H446.823H446.849H446.875H446.901H446.927H446.952H446.978H447.003H447.029H447.054H447.08H447.105H447.131H447.156H447.181H447.206H447.232H447.257H447.282H447.307H447.332H447.357H447.382H447.406H447.431H447.456H447.481H447.505H447.53H447.554H447.579H447.603H447.627H447.652H447.676H447.7H447.724H447.748H447.772H447.796H447.82H447.844H447.868H447.892H447.915H447.939H447.963H447.986H448.009H448.033H448.056H448.079H448.103H448.126H448.149H448.172H448.195H448.218H448.241H448.263H448.286H448.309H448.331H448.354H448.376H448.399H448.421H448.443H448.466H448.488H448.51H448.532H448.554H448.576H448.597H448.619H448.641H448.662H448.684H448.705H448.727H448.748H448.769H448.79H448.812H448.833H448.853H448.874H448.895H448.916H448.937H448.957H448.978H448.998H449.019H449.039H449.059H449.079H449.099H449.119H449.139H449.159H449.179H449.198H449.218H449.238H449.257H449.276H449.296H449.315H449.334H449.353H449.372H449.391H449.41H449.429H449.447H449.466H449.484H449.503H449.521H449.539H449.557H449.575H449.593H449.611H449.629H449.647H449.664H449.682H449.699H449.717H449.734H449.751H449.768H449.785H449.802H449.819H449.836H449.853H449.869H449.886H449.902H449.918H449.935H449.951H449.967H449.983H449.999H450.014H450.03H450.046H450.061H450.076H450.092H450.107H450.122H450.137H450.152H450.167H450.181H450.196H450.211H450.225H450.239H450.253H450.268H450.282H450.296H450.309H450.323H450.337H450.35H450.364H450.377H450.39H450.403H450.416H450.429H450.442H450.455H450.467H450.48H450.492C450.812 336 451.594 336.034 452.715 336.082C453.346 336.109 454.086 336.14 454.911 336.173C457.17 336.264 460.016 336.36 462.872 336.384C465.723 336.407 468.608 336.359 470.937 336.155C472.099 336.054 473.152 335.911 474.006 335.711C474.432 335.611 474.831 335.491 475.177 335.345C475.514 335.203 475.861 335.011 476.134 334.738L435.657 339.961Z" fill="#F5F5F5" stroke="#455DFF" stroke-width="2"/>
<path d="M578.72 349.057C578.724 349.379 578.727 349.751 578.728 350.171C578.732 351.804 578.711 354.148 578.609 356.986C578.406 362.665 577.883 370.309 576.602 378.186C575.321 386.073 573.289 394.14 570.094 400.693C566.921 407.203 562.675 412.076 557.017 413.939H490.409V412.646C490.465 412.535 490.545 412.377 490.65 412.177C490.882 411.732 491.239 411.074 491.727 410.232C492.705 408.549 494.213 406.131 496.323 403.214C500.542 397.379 507.168 389.552 516.774 381.616C526.348 373.708 542.133 365.44 555.601 359.127C562.32 355.978 568.437 353.326 572.873 351.462C575.091 350.53 576.889 349.796 578.132 349.294C578.344 349.208 578.541 349.129 578.72 349.057Z" fill="#F5F5F5" stroke="#455DFF" stroke-width="2"/>
<path d="M488.595 264.804L495.701 251.155L510.225 275.827C510.219 275.842 510.212 275.857 510.205 275.873C510.063 276.191 509.845 276.652 509.542 277.211C508.936 278.333 507.996 279.84 506.667 281.38C504.02 284.445 499.857 287.607 493.698 288.151C493.658 288.111 493.587 288.014 493.491 287.806C493.275 287.332 493.103 286.602 492.966 285.707C492.841 284.889 492.755 284.012 492.674 283.184C492.668 283.123 492.662 283.063 492.656 283.003C492.573 282.159 492.488 281.316 492.355 280.75L488.595 264.804ZM493.734 288.178C493.734 288.18 493.726 288.177 493.71 288.163C493.727 288.169 493.734 288.176 493.734 288.178Z" fill="#F5F5F5" stroke="#455DFF" stroke-width="2"/>
<path d="M488.411 232.871L488.454 232.947C488.499 233.029 488.567 233.15 488.653 233.306C488.825 233.62 489.072 234.075 489.368 234.638C489.962 235.766 490.752 237.326 491.542 239.054C492.332 240.785 493.115 242.67 493.699 244.452C494.288 246.253 494.648 247.871 494.648 249.093C494.648 250.289 494.194 252.191 493.341 254.406C492.498 256.594 491.303 258.989 489.906 261.142C488.503 263.305 486.931 265.169 485.354 266.347C483.768 267.532 482.343 267.911 481.103 267.498C479.8 267.064 478.532 265.71 477.374 263.468C476.236 261.265 475.303 258.394 474.567 255.258C473.096 248.99 472.455 241.853 472.455 237.343C472.455 233.383 475.334 230.91 478.951 230.111C482.601 229.304 486.55 230.314 488.411 232.871Z" fill="#F5F5F5" stroke="#455DFF" stroke-width="2"/>
<path d="M496.871 250.311C496.94 250.137 497.015 249.947 497.094 249.74C497.515 248.641 498.056 247.103 498.54 245.345C499.519 241.783 500.21 237.498 499.344 234.136C498.5 230.855 495.888 228.309 493.34 226.544C492.082 225.672 490.877 225.016 489.986 224.578C489.542 224.36 489.178 224.197 488.927 224.089C488.848 224.055 488.781 224.027 488.726 224.004C488.614 224.008 488.451 224.016 488.236 224.029C487.765 224.059 487.048 224.12 486.08 224.242C484.143 224.487 481.206 224.979 477.243 225.97C476.224 226.225 475.247 226.455 474.312 226.675C467.74 228.222 463.201 229.291 460.085 235.188C459.234 237.098 459.212 238.717 459.644 239.992C460.081 241.282 461.014 242.317 462.238 242.99C464.701 244.344 468.23 244.165 470.748 241.647C476.639 235.755 481.56 235.047 483.551 235.047C484.575 235.047 485.167 235.846 485.499 236.428C485.821 236.991 486.114 237.737 486.41 238.488C486.443 238.574 486.477 238.66 486.511 238.746C487.204 240.5 488.049 242.5 489.615 244.066L496.871 250.311ZM496.871 250.311C496.381 249.932 495.744 249.432 495.026 248.85C493.372 247.511 491.307 245.758 489.615 244.066L496.871 250.311Z" fill="#F5F5F5" stroke="#455DFF" stroke-width="2"/>
<path d="M501.13 282.793C502.962 280.078 505.532 277.83 508.307 276.698C511.056 275.577 513.976 275.556 516.67 277.21L516.67 277.21C519.012 278.648 520.527 281.101 521.275 283.919C522.024 286.737 521.977 289.831 521.276 292.403C520.262 296.119 517.315 303.081 514.18 309.249C512.617 312.325 511.024 315.169 509.624 317.284C508.922 318.344 508.285 319.198 507.737 319.8C507.464 320.102 507.228 320.323 507.033 320.474C506.829 320.631 506.719 320.671 506.697 320.676C506.496 320.727 506.026 320.731 505.236 320.586C504.486 320.449 503.562 320.199 502.526 319.853C500.458 319.16 498.02 318.105 495.765 316.871C493.498 315.63 491.484 314.246 490.213 312.917C488.87 311.514 488.706 310.576 489.029 309.974L489.029 309.974C489.326 309.418 489.952 307.823 490.755 305.765C490.834 305.563 490.914 305.357 490.997 305.146C491.777 303.145 492.729 300.702 493.775 298.131C496.102 292.413 498.843 286.182 501.13 282.793ZM501.13 282.793L500.301 282.234L501.13 282.793Z" fill="#F5F5F5" stroke="#455DFF" stroke-width="2"/>
<mask id="path-118-inside-2_1122_4146" fill="white">
<path d="M393.101 273.041H390.891V271.147H393.101C394.145 271.147 394.995 270.297 394.995 269.253V267.359C394.995 266.314 394.145 265.465 393.101 265.465H390.26V263.571H393.101C395.189 263.571 396.889 265.27 396.889 267.359V269.253C396.889 271.341 395.19 273.041 393.101 273.041Z"/>
</mask>
<path d="M393.101 273.041H390.891V271.147H393.101C394.145 271.147 394.995 270.297 394.995 269.253V267.359C394.995 266.314 394.145 265.465 393.101 265.465H390.26V263.571H393.101C395.189 263.571 396.889 265.27 396.889 267.359V269.253C396.889 271.341 395.19 273.041 393.101 273.041Z" fill="#F5F5F5"/>
<path d="M390.891 273.041H388.891V275.041H390.891V273.041ZM390.891 271.147V269.147H388.891V271.147H390.891ZM390.26 265.465H388.26V267.465H390.26V265.465ZM390.26 263.571V261.571H388.26V263.571H390.26ZM393.101 271.041H390.891V275.041H393.101V271.041ZM392.891 273.041V271.147H388.891V273.041H392.891ZM390.891 273.147H393.101V269.147H390.891V273.147ZM393.101 273.147C395.25 273.147 396.995 271.402 396.995 269.253H392.995C392.995 269.221 393.01 269.193 393.025 269.177C393.041 269.162 393.069 269.147 393.101 269.147V273.147ZM396.995 269.253V267.359H392.995V269.253H396.995ZM396.995 267.359C396.995 265.21 395.25 263.465 393.101 263.465V267.465C393.07 267.465 393.041 267.45 393.025 267.434C393.01 267.419 392.995 267.39 392.995 267.359H396.995ZM393.101 263.465H390.26V267.465H393.101V263.465ZM392.26 265.465V263.571H388.26V265.465H392.26ZM390.26 265.571H393.101V261.571H390.26V265.571ZM393.101 265.571C394.085 265.571 394.889 266.375 394.889 267.359H398.889C398.889 264.165 396.294 261.571 393.101 261.571V265.571ZM394.889 267.359V269.253H398.889V267.359H394.889ZM394.889 269.253C394.889 270.237 394.085 271.041 393.101 271.041V275.041C396.294 275.041 398.889 272.446 398.889 269.253H394.889Z" fill="#455DFF" mask="url(#path-118-inside-2_1122_4146)"/>
<path d="M459.619 288.194V299.393C459.619 301.413 457.981 303.05 455.961 303.05H451.969C449.949 303.05 448.311 301.413 448.311 299.393V287.773H459.619V288.194Z" fill="#F5F5F5" stroke="#455DFF" stroke-width="2"/>
<mask id="path-121-inside-3_1122_4146" fill="white">
<path d="M445.495 298.611H447.705V296.717H445.495C444.451 296.717 443.601 295.867 443.601 294.823V292.929C443.601 291.885 444.451 291.035 445.495 291.035H448.336V289.141H445.495C443.406 289.141 441.707 290.841 441.707 292.93V294.824C441.707 296.912 443.406 298.611 445.495 298.611Z"/>
</mask>
<path d="M445.495 298.611H447.705V296.717H445.495C444.451 296.717 443.601 295.867 443.601 294.823V292.929C443.601 291.885 444.451 291.035 445.495 291.035H448.336V289.141H445.495C443.406 289.141 441.707 290.841 441.707 292.93V294.824C441.707 296.912 443.406 298.611 445.495 298.611Z" fill="#F5F5F5"/>
<path d="M447.705 298.611V300.611H449.705V298.611H447.705ZM447.705 296.717H449.705V294.717H447.705V296.717ZM448.336 291.035V293.035H450.336V291.035H448.336ZM448.336 289.141H450.336V287.141H448.336V289.141ZM441.707 294.824H439.707H441.707ZM445.495 300.611H447.705V296.611H445.495V300.611ZM449.705 298.611V296.717H445.705V298.611H449.705ZM447.705 294.717H445.495V298.717H447.705V294.717ZM445.495 294.717C445.526 294.717 445.555 294.732 445.57 294.748C445.586 294.763 445.601 294.791 445.601 294.823H441.601C441.601 296.972 443.346 298.717 445.495 298.717V294.717ZM445.601 294.823V292.929H441.601V294.823H445.601ZM445.601 292.929C445.601 292.961 445.586 292.989 445.57 293.005C445.555 293.02 445.526 293.035 445.495 293.035V289.035C443.346 289.035 441.601 290.78 441.601 292.929H445.601ZM445.495 293.035H448.336V289.035H445.495V293.035ZM450.336 291.035V289.141H446.336V291.035H450.336ZM448.336 287.141H445.495V291.141H448.336V287.141ZM445.495 287.141C442.301 287.141 439.707 289.736 439.707 292.93H443.707C443.707 291.945 444.511 291.141 445.495 291.141V287.141ZM439.707 292.93V294.824H443.707V292.93H439.707ZM439.707 294.824C439.707 298.017 442.301 300.611 445.495 300.611V296.611C444.51 296.611 443.707 295.807 443.707 294.824H439.707Z" fill="#455DFF" mask="url(#path-121-inside-3_1122_4146)"/>
<path d="M437 293.066C437 293.066 446.214 290.916 447.817 292.722C449.419 294.528 439.992 296 439.992 296" stroke="#455DFF" stroke-width="2"/>
<path d="M439.5 298.5C439.5 298.5 447.109 297.906 447.307 296.079C447.506 294.251 439.5 296 439.5 296" stroke="#455DFF" stroke-width="2"/>
<path d="M497.265 498.447C497.266 498.447 497.266 498.448 497.267 498.449C497.274 498.457 497.295 498.487 497.313 498.539C497.341 498.619 497.342 498.699 497.329 498.76C497.323 498.788 497.317 498.802 497.317 498.802C497.318 498.803 497.347 498.745 497.465 498.63C497.545 498.552 497.641 498.47 497.754 498.383C497.663 498.373 497.577 498.363 497.498 498.353C497.283 498.326 497.135 498.3 497.045 498.279C497.011 498.272 496.997 498.267 496.997 498.267C496.997 498.267 496.999 498.268 497.003 498.269C497.011 498.272 497.038 498.283 497.075 498.303C497.108 498.321 497.184 498.365 497.265 498.447ZM497.265 498.447C497.266 498.447 497.267 498.448 497.267 498.448C497.266 498.447 497.265 498.446 497.265 498.446C497.265 498.446 497.265 498.446 497.265 498.447ZM512.212 498.682C512.254 498.677 512.271 498.674 512.272 498.674C512.272 498.674 512.238 498.682 512.188 498.702M512.212 498.682L512.188 498.702L512.188 498.702M512.212 498.682C512.189 498.698 512.178 498.705 512.178 498.705C512.178 498.705 512.182 498.704 512.188 498.702M512.212 498.682L512.188 498.702M519.031 471.088C519.031 471.087 519.031 471.087 518.283 470.424L517.815 471.307L517.815 471.308L517.816 471.308L517.822 471.311L517.843 471.322L517.928 471.368C518.003 471.408 518.113 471.467 518.254 471.544C518.323 471.582 518.4 471.624 518.484 471.669C518.597 471.553 518.695 471.45 518.775 471.365C518.855 471.28 518.918 471.212 518.961 471.165C518.983 471.141 518.999 471.122 519.011 471.109L519.025 471.094L519.029 471.09L519.03 471.088L519.031 471.088ZM527.735 478.125C527.735 478.125 527.732 478.136 527.726 478.159C527.732 478.174 527.735 478.181 527.735 478.181C527.736 478.181 527.735 478.172 527.735 478.155C527.735 478.136 527.736 478.125 527.735 478.125Z" fill="#F5F5F5" stroke="#455DFF" stroke-width="2"/>
<path d="M460.055 492.593L460.055 492.593C460.108 492.539 460.26 492.439 460.642 492.408C461.02 492.376 461.521 492.422 462.136 492.556C463.362 492.823 464.848 493.401 466.309 494.11C467.763 494.815 469.141 495.627 470.143 496.332C470.37 496.492 470.574 496.644 470.751 496.783C470.018 496.915 469.013 497.044 467.793 497.166C465.059 497.44 461.349 497.667 457.481 497.805C453.615 497.944 449.607 497.992 446.279 497.91C444.614 497.87 443.129 497.797 441.921 497.688C440.788 497.585 439.962 497.456 439.467 497.315C439.453 497.262 439.437 497.172 439.429 497.031C439.402 496.588 439.481 495.96 439.629 495.235C439.768 494.554 439.952 493.861 440.113 493.255C440.119 493.229 440.126 493.203 440.133 493.177C440.174 493.024 440.213 492.875 440.249 492.734C440.727 492.797 441.368 492.879 442.127 492.97C443.824 493.173 446.114 493.42 448.479 493.597C450.838 493.773 453.298 493.88 455.326 493.797C456.338 493.755 457.274 493.665 458.05 493.502C458.777 493.349 459.552 493.095 460.055 492.593ZM471.509 497.505C471.508 497.505 471.505 497.5 471.5 497.49C471.507 497.5 471.509 497.505 471.509 497.505ZM439.494 497.384C439.493 497.385 439.489 497.38 439.483 497.365C439.491 497.376 439.494 497.383 439.494 497.384Z" fill="#F5F5F5" stroke="#455DFF" stroke-width="2"/>
</g>
<defs>
<clipPath id="clip0_1122_4146">
<rect width="580" height="500" rx="10" fill="white"/>
</clipPath>
</defs>
</svg>
