<svg width="580" height="500" viewBox="0 0 580 500" fill="none" xmlns="http://www.w3.org/2000/svg">
<g clip-path="url(#clip0_1122_4001)">
<rect x="268" y="299" width="200" height="200" rx="40" fill="#43E72B" fill-opacity="0.5"/>
<rect x="1" y="2" width="138.339" height="236.754" rx="6.29272" stroke="#888888" stroke-width="2"/>
<rect x="13.0699" y="18.712" width="113.271" height="197.76" rx="6.29272" stroke="#888888" stroke-width="2"/>
<mask id="path-5-inside-1_1122_4001" fill="white">
<path d="M42.0376 105.615C42.0376 102.03 42.7436 98.4807 44.1154 95.1689C45.4872 91.8572 47.4978 88.8481 50.0325 86.3134C52.5672 83.7787 55.5764 81.768 58.8881 80.3962C62.1999 79.0245 65.7494 78.3184 69.334 78.3184C72.9186 78.3184 76.4681 79.0245 79.7799 80.3962C83.0916 81.768 86.1008 83.7787 88.6355 86.3134C91.1702 88.8481 93.1808 91.8572 94.5526 95.1689C95.9244 98.4807 96.6304 102.03 96.6304 105.615C96.6304 112.854 93.7545 119.797 88.6355 124.916C83.5164 130.035 76.5735 132.911 69.334 132.911C62.0945 132.911 55.1516 130.035 50.0325 124.916C44.9135 119.797 42.0376 112.854 42.0376 105.615ZM69.334 74.4189C61.0603 74.4189 53.1255 77.7056 47.2752 83.556C41.4248 89.4064 38.1381 97.3412 38.1381 105.615C38.1381 113.888 41.4248 121.823 47.2752 127.674C53.1255 133.524 61.0603 136.811 69.334 136.811C77.6077 136.811 85.5425 133.524 91.3928 127.674C97.2432 121.823 100.53 113.888 100.53 105.615C100.53 97.3412 97.2432 89.4064 91.3928 83.556C85.5425 77.7056 77.6077 74.4189 69.334 74.4189ZM66.85 90.5823C66.4762 90.2204 65.9763 90.0181 65.456 90.0181C64.9357 90.0181 64.4357 90.2204 64.0619 90.5823C63.8795 90.7593 63.7344 90.9712 63.6354 91.2053C63.5364 91.4394 63.4853 91.691 63.4853 91.9452C63.4853 92.1994 63.5364 92.451 63.6354 92.6851C63.7344 92.9192 63.8795 93.131 64.0619 93.3081C65.7119 94.9066 67.0238 96.8204 67.9198 98.9359C68.8157 101.051 69.2774 103.325 69.2774 105.623C69.2774 107.92 68.8157 110.194 67.9198 112.309C67.0238 114.425 65.7119 116.339 64.0619 117.937C63.8795 118.114 63.7344 118.326 63.6354 118.56C63.5364 118.794 63.4853 119.046 63.4853 119.3C63.4853 119.554 63.5364 119.806 63.6354 120.04C63.7344 120.274 63.8795 120.486 64.0619 120.663C64.4357 121.025 64.9357 121.227 65.456 121.227C65.9763 121.227 66.4762 121.025 66.85 120.663C68.8654 118.711 70.4678 116.373 71.5621 113.79C72.6564 111.206 73.2204 108.429 73.2204 105.623C73.2204 102.817 72.6564 100.039 71.5621 97.4557C70.4678 94.872 68.8654 92.5346 66.85 90.5823ZM54.3015 94.4935C54.4782 94.3112 54.6897 94.1662 54.9235 94.0672C55.1572 93.9682 55.4085 93.9172 55.6624 93.9172C55.9163 93.9172 56.1676 93.9682 56.4014 94.0672C56.6351 94.1662 56.8466 94.3112 57.0233 94.4935C63.0207 100.635 63.0207 110.591 57.0233 116.728C56.8466 116.911 56.6351 117.056 56.4014 117.155C56.1676 117.254 55.9163 117.305 55.6624 117.305C55.4085 117.305 55.1572 117.254 54.9235 117.155C54.6897 117.056 54.4782 116.911 54.3015 116.728C53.9405 116.354 53.7388 115.854 53.7388 115.334C53.7388 114.814 53.9405 114.315 54.3015 113.94C56.4635 111.707 57.6723 108.721 57.6723 105.613C57.6723 102.505 56.4635 99.5185 54.3015 97.2855C53.9393 96.911 53.7369 96.4105 53.7369 95.8895C53.7369 95.3686 53.9393 94.868 54.3015 94.4935ZM76.6455 86.675C76.2612 86.3185 75.7563 86.1203 75.232 86.1203C74.7077 86.1203 74.2028 86.3185 73.8184 86.675C73.6342 86.8465 73.4873 87.0542 73.3868 87.2849C73.2863 87.5157 73.2345 87.7647 73.2345 88.0164C73.2345 88.2682 73.2863 88.5172 73.3868 88.748C73.4873 88.9787 73.6342 89.1864 73.8184 89.3579C83.2825 98.3345 83.2825 112.891 73.8184 121.868C73.0385 122.609 73.0385 123.81 73.8184 124.555C74.5983 125.299 75.8656 125.296 76.6494 124.555C87.6733 114.092 87.6733 97.1334 76.6494 86.675"/>
</mask>
<path d="M42.0376 105.615C42.0376 102.03 42.7436 98.4807 44.1154 95.1689C45.4872 91.8572 47.4978 88.8481 50.0325 86.3134C52.5672 83.7787 55.5764 81.768 58.8881 80.3962C62.1999 79.0245 65.7494 78.3184 69.334 78.3184C72.9186 78.3184 76.4681 79.0245 79.7799 80.3962C83.0916 81.768 86.1008 83.7787 88.6355 86.3134C91.1702 88.8481 93.1808 91.8572 94.5526 95.1689C95.9244 98.4807 96.6304 102.03 96.6304 105.615C96.6304 112.854 93.7545 119.797 88.6355 124.916C83.5164 130.035 76.5735 132.911 69.334 132.911C62.0945 132.911 55.1516 130.035 50.0325 124.916C44.9135 119.797 42.0376 112.854 42.0376 105.615ZM69.334 74.4189C61.0603 74.4189 53.1255 77.7056 47.2752 83.556C41.4248 89.4064 38.1381 97.3412 38.1381 105.615C38.1381 113.888 41.4248 121.823 47.2752 127.674C53.1255 133.524 61.0603 136.811 69.334 136.811C77.6077 136.811 85.5425 133.524 91.3928 127.674C97.2432 121.823 100.53 113.888 100.53 105.615C100.53 97.3412 97.2432 89.4064 91.3928 83.556C85.5425 77.7056 77.6077 74.4189 69.334 74.4189ZM66.85 90.5823C66.4762 90.2204 65.9763 90.0181 65.456 90.0181C64.9357 90.0181 64.4357 90.2204 64.0619 90.5823C63.8795 90.7593 63.7344 90.9712 63.6354 91.2053C63.5364 91.4394 63.4853 91.691 63.4853 91.9452C63.4853 92.1994 63.5364 92.451 63.6354 92.6851C63.7344 92.9192 63.8795 93.131 64.0619 93.3081C65.7119 94.9066 67.0238 96.8204 67.9198 98.9359C68.8157 101.051 69.2774 103.325 69.2774 105.623C69.2774 107.92 68.8157 110.194 67.9198 112.309C67.0238 114.425 65.7119 116.339 64.0619 117.937C63.8795 118.114 63.7344 118.326 63.6354 118.56C63.5364 118.794 63.4853 119.046 63.4853 119.3C63.4853 119.554 63.5364 119.806 63.6354 120.04C63.7344 120.274 63.8795 120.486 64.0619 120.663C64.4357 121.025 64.9357 121.227 65.456 121.227C65.9763 121.227 66.4762 121.025 66.85 120.663C68.8654 118.711 70.4678 116.373 71.5621 113.79C72.6564 111.206 73.2204 108.429 73.2204 105.623C73.2204 102.817 72.6564 100.039 71.5621 97.4557C70.4678 94.872 68.8654 92.5346 66.85 90.5823ZM54.3015 94.4935C54.4782 94.3112 54.6897 94.1662 54.9235 94.0672C55.1572 93.9682 55.4085 93.9172 55.6624 93.9172C55.9163 93.9172 56.1676 93.9682 56.4014 94.0672C56.6351 94.1662 56.8466 94.3112 57.0233 94.4935C63.0207 100.635 63.0207 110.591 57.0233 116.728C56.8466 116.911 56.6351 117.056 56.4014 117.155C56.1676 117.254 55.9163 117.305 55.6624 117.305C55.4085 117.305 55.1572 117.254 54.9235 117.155C54.6897 117.056 54.4782 116.911 54.3015 116.728C53.9405 116.354 53.7388 115.854 53.7388 115.334C53.7388 114.814 53.9405 114.315 54.3015 113.94C56.4635 111.707 57.6723 108.721 57.6723 105.613C57.6723 102.505 56.4635 99.5185 54.3015 97.2855C53.9393 96.911 53.7369 96.4105 53.7369 95.8895C53.7369 95.3686 53.9393 94.868 54.3015 94.4935ZM76.6455 86.675C76.2612 86.3185 75.7563 86.1203 75.232 86.1203C74.7077 86.1203 74.2028 86.3185 73.8184 86.675C73.6342 86.8465 73.4873 87.0542 73.3868 87.2849C73.2863 87.5157 73.2345 87.7647 73.2345 88.0164C73.2345 88.2682 73.2863 88.5172 73.3868 88.748C73.4873 88.9787 73.6342 89.1864 73.8184 89.3579C83.2825 98.3345 83.2825 112.891 73.8184 121.868C73.0385 122.609 73.0385 123.81 73.8184 124.555C74.5983 125.299 75.8656 125.296 76.6494 124.555C87.6733 114.092 87.6733 97.1334 76.6494 86.675" fill="#888888"/>
<path d="M96.6304 105.615H95.6304H96.6304ZM69.334 132.911V131.911V132.911ZM69.334 74.4189V73.4189V74.4189ZM38.1381 105.615H37.1381H38.1381ZM69.334 136.811V137.811V136.811ZM100.53 105.615H101.53H100.53ZM66.85 90.5823L67.5458 89.8641L67.5456 89.8638L66.85 90.5823ZM65.456 90.0181V91.0181V90.0181ZM64.0619 90.5823L63.3664 89.8638L63.3655 89.8647L64.0619 90.5823ZM64.0619 93.3081L63.3655 94.0257L63.3661 94.0263L64.0619 93.3081ZM69.2774 105.623H70.2774H69.2774ZM64.0619 117.937L63.3661 117.219L63.3655 117.22L64.0619 117.937ZM64.0619 120.663L63.3655 121.381L63.3664 121.381L64.0619 120.663ZM65.456 121.227V120.227V121.227ZM66.85 120.663L67.5456 121.381L67.5458 121.381L66.85 120.663ZM54.3015 94.4935L53.5834 93.7976L53.5826 93.7983L54.3015 94.4935ZM55.6624 93.9172V94.9172V93.9172ZM57.0233 94.4935L56.3052 95.1894L56.3079 95.1921L57.0233 94.4935ZM57.0233 116.728L56.3081 116.029L56.3052 116.032L57.0233 116.728ZM55.6624 117.305V116.305V117.305ZM54.3015 116.728L53.5817 117.423L53.5834 117.424L54.3015 116.728ZM53.7388 115.334H54.7388H53.7388ZM54.3015 113.94L53.5831 113.245L53.5817 113.246L54.3015 113.94ZM57.6723 105.613H56.6723H57.6723ZM54.3015 97.2855L53.5826 97.9807L53.5831 97.9811L54.3015 97.2855ZM53.7369 95.8895H54.7369H53.7369ZM73.8184 86.675L73.1383 85.9419L73.137 85.9431L73.8184 86.675ZM73.8184 89.3579L74.5066 88.6323L74.4998 88.626L73.8184 89.3579ZM73.8184 121.868L73.1302 121.142L73.1297 121.143L73.8184 121.868ZM76.6494 124.555L77.3364 125.281L77.3378 125.28L76.6494 124.555ZM43.0376 105.615C43.0376 102.162 43.7178 98.7421 45.0393 95.5516L43.1915 94.7863C41.7695 98.2193 41.0376 101.899 41.0376 105.615H43.0376ZM45.0393 95.5516C46.3608 92.3612 48.2978 89.4623 50.7396 87.0205L49.3254 85.6063C46.6979 88.2338 44.6136 91.3532 43.1915 94.7863L45.0393 95.5516ZM50.7396 87.0205C53.1815 84.5786 56.0804 82.6416 59.2708 81.3201L58.5054 79.4724C55.0724 80.8944 51.953 82.9787 49.3254 85.6063L50.7396 87.0205ZM59.2708 81.3201C62.4612 79.9986 65.8807 79.3184 69.334 79.3184V77.3184C65.6181 77.3184 61.9385 78.0503 58.5054 79.4724L59.2708 81.3201ZM69.334 79.3184C72.7873 79.3184 76.2068 79.9986 79.3972 81.3201L80.1626 79.4724C76.7295 78.0503 73.0499 77.3184 69.334 77.3184V79.3184ZM79.3972 81.3201C82.5876 82.6416 85.4865 84.5786 87.9284 87.0205L89.3426 85.6063C86.715 82.9787 83.5956 80.8944 80.1626 79.4724L79.3972 81.3201ZM87.9284 87.0205C90.3702 89.4623 92.3072 92.3612 93.6287 95.5516L95.4765 94.7863C94.0544 91.3532 91.9701 88.2338 89.3426 85.6063L87.9284 87.0205ZM93.6287 95.5516C94.9502 98.7421 95.6304 102.162 95.6304 105.615H97.6304C97.6304 101.899 96.8985 98.2193 95.4765 94.7863L93.6287 95.5516ZM95.6304 105.615C95.6304 112.589 92.8599 119.278 87.9284 124.209L89.3426 125.623C94.6492 120.317 97.6304 113.119 97.6304 105.615H95.6304ZM87.9284 124.209C82.9968 129.141 76.3082 131.911 69.334 131.911V133.911C76.8387 133.911 84.036 130.93 89.3426 125.623L87.9284 124.209ZM69.334 131.911C62.3598 131.911 55.6712 129.141 50.7396 124.209L49.3254 125.623C54.632 130.93 61.8293 133.911 69.334 133.911V131.911ZM50.7396 124.209C45.8081 119.278 43.0376 112.589 43.0376 105.615H41.0376C41.0376 113.119 44.0188 120.317 49.3254 125.623L50.7396 124.209ZM69.334 73.4189C60.7951 73.4189 52.606 76.811 46.5681 82.8489L47.9823 84.2631C53.6451 78.6003 61.3256 75.4189 69.334 75.4189V73.4189ZM46.5681 82.8489C40.5302 88.8868 37.1381 97.0759 37.1381 105.615H39.1381C39.1381 97.6064 42.3195 89.9259 47.9823 84.2631L46.5681 82.8489ZM37.1381 105.615C37.1381 114.154 40.5302 122.343 46.5681 128.381L47.9823 126.967C42.3195 121.304 39.1381 113.623 39.1381 105.615H37.1381ZM46.5681 128.381C52.606 134.419 60.7951 137.811 69.334 137.811V135.811C61.3256 135.811 53.6451 132.629 47.9823 126.967L46.5681 128.381ZM69.334 137.811C77.8729 137.811 86.062 134.419 92.0999 128.381L90.6857 126.967C85.0229 132.629 77.3424 135.811 69.334 135.811V137.811ZM92.0999 128.381C98.1378 122.343 101.53 114.154 101.53 105.615H99.5299C99.5299 113.623 96.3485 121.304 90.6857 126.967L92.0999 128.381ZM101.53 105.615C101.53 97.0759 98.1378 88.8868 92.0999 82.8489L90.6857 84.2631C96.3485 89.9259 99.5299 97.6064 99.5299 105.615H101.53ZM92.0999 82.8489C86.062 76.811 77.8729 73.4189 69.334 73.4189V75.4189C77.3424 75.4189 85.0229 78.6003 90.6857 84.2631L92.0999 82.8489ZM67.5456 89.8638C66.9852 89.3214 66.2359 89.0181 65.456 89.0181V91.0181C65.7167 91.0181 65.9672 91.1195 66.1545 91.3008L67.5456 89.8638ZM65.456 89.0181C64.6761 89.0181 63.9267 89.3214 63.3664 89.8638L64.7574 91.3008C64.9447 91.1195 65.1952 91.0181 65.456 91.0181V89.0181ZM63.3655 89.8647C63.087 90.1349 62.8656 90.4583 62.7144 90.8157L64.5564 91.5949C64.6033 91.4841 64.6719 91.3838 64.7583 91.3L63.3655 89.8647ZM62.7144 90.8157C62.5632 91.173 62.4853 91.5571 62.4853 91.9452H64.4853C64.4853 91.8248 64.5095 91.7057 64.5564 91.5949L62.7144 90.8157ZM62.4853 91.9452C62.4853 92.3332 62.5632 92.7173 62.7144 93.0747L64.5564 92.2955C64.5095 92.1846 64.4853 92.0655 64.4853 91.9452H62.4853ZM62.7144 93.0747C62.8656 93.4321 63.087 93.7555 63.3655 94.0257L64.7583 92.5904C64.6719 92.5066 64.6033 92.4063 64.5564 92.2955L62.7144 93.0747ZM63.3661 94.0263C64.9198 95.5316 66.1553 97.3338 66.999 99.3259L68.8406 98.5459C67.8924 96.3071 66.504 94.2816 64.7577 92.5898L63.3661 94.0263ZM66.999 99.3259C67.8426 101.318 68.2774 103.459 68.2774 105.623H70.2774C70.2774 103.191 69.7888 100.785 68.8406 98.5459L66.999 99.3259ZM68.2774 105.623C68.2774 107.786 67.8426 109.927 66.999 111.919L68.8406 112.699C69.7888 110.461 70.2774 108.054 70.2774 105.623H68.2774ZM66.999 111.919C66.1553 113.911 64.9198 115.714 63.3661 117.219L64.7577 118.655C66.504 116.964 67.8924 114.938 68.8406 112.699L66.999 111.919ZM63.3655 117.22C63.087 117.49 62.8656 117.813 62.7144 118.171L64.5564 118.95C64.6033 118.839 64.6719 118.739 64.7583 118.655L63.3655 117.22ZM62.7144 118.171C62.5632 118.528 62.4853 118.912 62.4853 119.3H64.4853C64.4853 119.18 64.5095 119.061 64.5564 118.95L62.7144 118.171ZM62.4853 119.3C62.4853 119.688 62.5632 120.072 62.7144 120.43L64.5564 119.65C64.5095 119.54 64.4853 119.42 64.4853 119.3H62.4853ZM62.7144 120.43C62.8656 120.787 63.087 121.11 63.3655 121.381L64.7583 119.945C64.6719 119.861 64.6033 119.761 64.5564 119.65L62.7144 120.43ZM63.3664 121.381C63.9267 121.924 64.6761 122.227 65.456 122.227V120.227C65.1952 120.227 64.9447 120.126 64.7574 119.944L63.3664 121.381ZM65.456 122.227C66.2359 122.227 66.9852 121.924 67.5456 121.381L66.1545 119.944C65.9672 120.126 65.7167 120.227 65.456 120.227V122.227ZM67.5458 121.381C69.6574 119.336 71.3363 116.887 72.4829 114.18L70.6413 113.399C69.5992 115.86 68.0733 118.086 66.1542 119.945L67.5458 121.381ZM72.4829 114.18C73.6295 111.472 74.2204 108.563 74.2204 105.623H72.2204C72.2204 108.295 71.6834 110.939 70.6413 113.399L72.4829 114.18ZM74.2204 105.623C74.2204 102.683 73.6295 99.7728 72.4829 97.0657L70.6413 97.8457C71.6834 100.306 72.2204 102.951 72.2204 105.623H74.2204ZM72.4829 97.0657C71.3363 94.3586 69.6574 91.9096 67.5458 89.8641L66.1542 91.3006C68.0733 93.1596 69.5992 95.3854 70.6413 97.8457L72.4829 97.0657ZM55.0196 95.1894C55.103 95.1033 55.2029 95.0348 55.3134 94.9881L54.5335 93.1464C54.1764 93.2976 53.8533 93.519 53.5834 93.7976L55.0196 95.1894ZM55.3134 94.9881C55.4238 94.9413 55.5425 94.9172 55.6624 94.9172V92.9172C55.2746 92.9172 54.8907 92.9952 54.5335 93.1464L55.3134 94.9881ZM55.6624 94.9172C55.7823 94.9172 55.901 94.9413 56.0114 94.9881L56.7913 93.1464C56.4341 92.9952 56.0502 92.9172 55.6624 92.9172V94.9172ZM56.0114 94.9881C56.1219 95.0348 56.2218 95.1033 56.3052 95.1894L57.7414 93.7976C57.4715 93.5191 57.1484 93.2976 56.7913 93.1464L56.0114 94.9881ZM56.3079 95.1921C61.926 100.945 61.9257 110.28 56.3081 116.029L57.7386 117.427C64.1158 110.901 64.1155 100.325 57.7388 93.7948L56.3079 95.1921ZM56.3052 116.032C56.2218 116.119 56.1219 116.187 56.0114 116.234L56.7913 118.075C57.1484 117.924 57.4715 117.703 57.7414 117.424L56.3052 116.032ZM56.0114 116.234C55.901 116.281 55.7823 116.305 55.6624 116.305V118.305C56.0502 118.305 56.4341 118.227 56.7913 118.075L56.0114 116.234ZM55.6624 116.305C55.5425 116.305 55.4238 116.281 55.3134 116.234L54.5335 118.075C54.8907 118.227 55.2746 118.305 55.6624 118.305V116.305ZM55.3134 116.234C55.2029 116.187 55.103 116.119 55.0196 116.032L53.5834 117.424C53.8533 117.703 54.1764 117.924 54.5335 118.075L55.3134 116.234ZM55.0213 116.034C54.8401 115.846 54.7388 115.595 54.7388 115.334H52.7388C52.7388 116.113 53.0409 116.862 53.5817 117.423L55.0213 116.034ZM54.7388 115.334C54.7388 115.073 54.8401 114.822 55.0213 114.634L53.5817 113.246C53.0409 113.807 52.7388 114.555 52.7388 115.334H54.7388ZM55.0199 114.636C57.3625 112.216 58.6723 108.981 58.6723 105.613H56.6723C56.6723 108.461 55.5645 111.198 53.5831 113.245L55.0199 114.636ZM58.6723 105.613C58.6723 102.245 57.3625 99.0094 55.0199 96.5899L53.5831 97.9811C55.5645 100.028 56.6723 102.764 56.6723 105.613H58.6723ZM55.0204 96.5904C54.8385 96.4024 54.7369 96.1511 54.7369 95.8895H52.7369C52.7369 96.6699 53.0402 97.4197 53.5826 97.9807L55.0204 96.5904ZM54.7369 95.8895C54.7369 95.628 54.8385 95.3767 55.0204 95.1886L53.5826 93.7983C53.0402 94.3593 52.7369 95.1091 52.7369 95.8895H54.7369ZM77.3256 85.9419C76.7564 85.4138 76.0085 85.1203 75.232 85.1203V87.1203C75.504 87.1203 75.766 87.2231 75.9654 87.4081L77.3256 85.9419ZM75.232 85.1203C74.4554 85.1203 73.7076 85.4138 73.1383 85.9419L74.4985 87.4081C74.698 87.2231 74.9599 87.1203 75.232 87.1203V85.1203ZM73.137 85.9431C72.8523 86.2082 72.6252 86.5291 72.4699 86.8858L74.3037 87.6841C74.3493 87.5792 74.4161 87.4849 74.4998 87.4069L73.137 85.9431ZM72.4699 86.8858C72.3146 87.2425 72.2345 87.6274 72.2345 88.0164H74.2345C74.2345 87.9021 74.258 87.7889 74.3037 87.6841L72.4699 86.8858ZM72.2345 88.0164C72.2345 88.4055 72.3146 88.7904 72.4699 89.1471L74.3037 88.3488C74.258 88.244 74.2345 88.1308 74.2345 88.0164H72.2345ZM72.4699 89.1471C72.6252 89.5038 72.8523 89.8247 73.137 90.0898L74.4998 88.626C74.4161 88.548 74.3493 88.4537 74.3037 88.3488L72.4699 89.1471ZM73.1302 90.0834C82.1785 98.6657 82.1785 112.56 73.1302 121.142L74.5066 122.593C84.3864 113.222 84.3864 98.0033 74.5066 88.6323L73.1302 90.0834ZM73.1297 121.143C71.9337 122.279 71.9365 124.14 73.1278 125.278L74.5091 123.831C74.1405 123.48 74.1433 122.938 74.5072 122.593L73.1297 121.143ZM73.1278 125.278C74.2974 126.395 76.1704 126.384 77.3364 125.281L75.9625 123.828C75.5609 124.208 74.8993 124.204 74.5091 123.831L73.1278 125.278ZM77.3378 125.28C88.7771 114.423 88.7773 96.8024 77.3377 85.9496L75.9612 87.4005C86.5693 97.4645 86.5695 113.761 75.961 123.829L77.3378 125.28Z" fill="#F5F5F5" mask="url(#path-5-inside-1_1122_4001)"/>
<rect x="26.0682" y="184.904" width="87.2742" height="10.2129" rx="3.14636" stroke="#888888" stroke-width="2"/>
<path d="M27.0243 194.77C27.5447 191.752 30.1627 189.547 33.2255 189.547H106.185C109.248 189.547 111.866 191.752 112.386 194.77L116.128 216.472H23.2827L27.0243 194.77Z" fill="#F5F5F5" stroke="#888888" stroke-width="2"/>
<path d="M93.3805 202.545H92.4521C91.6829 202.545 91.0594 203.168 91.0594 203.938C91.0594 204.707 91.6829 205.33 92.4521 205.33H93.3805M93.3805 202.545V195.582M93.3805 202.545H98.0228M98.0228 202.545H98.9512C99.7204 202.545 100.344 203.168 100.344 203.938C100.344 204.707 99.7204 205.33 98.9512 205.33H98.0228M98.0228 202.545V195.582M98.0228 205.33V212.758M98.0228 205.33H93.3805M93.3805 205.33V212.758M92.9163 212.758H98.487C101.051 212.758 103.129 210.679 103.129 208.116V199.76C103.129 197.196 101.051 195.117 98.487 195.117H92.9163C90.3525 195.117 88.274 197.196 88.274 199.76V208.116C88.274 210.679 90.3525 212.758 92.9163 212.758Z" stroke="#888888" stroke-width="2"/>
<rect x="208" y="118" width="164" height="340" rx="10" fill="#F5F5F5" stroke="#455DFF" stroke-width="2"/>
<rect x="220" y="133" width="140" height="197" rx="10" fill="#F5F5F5" stroke="#455DFF" stroke-width="2"/>
<path d="M372 435C372 435 360.959 435 344.072 435C327.367 435 309 458 309 458" stroke="#455DFF" stroke-width="2"/>
<rect x="342" y="444" width="23" height="5" rx="2.5" stroke="#455DFF" stroke-width="2"/>
<mask id="path-14-inside-2_1122_4001" fill="white">
<path d="M222.75 373C222.75 370.472 223.248 367.969 224.215 365.633C225.183 363.298 226.601 361.176 228.388 359.388C230.176 357.601 232.298 356.183 234.633 355.215C236.969 354.248 239.472 353.75 242 353.75C244.528 353.75 247.031 354.248 249.367 355.215C251.702 356.183 253.824 357.601 255.612 359.388C257.399 361.176 258.817 363.298 259.785 365.633C260.752 367.969 261.25 370.472 261.25 373C261.25 378.105 259.222 383.002 255.612 386.612C252.002 390.222 247.105 392.25 242 392.25C236.895 392.25 231.998 390.222 228.388 386.612C224.778 383.002 222.75 378.105 222.75 373ZM242 351C236.165 351 230.569 353.318 226.444 357.444C222.318 361.569 220 367.165 220 373C220 378.835 222.318 384.431 226.444 388.556C230.569 392.682 236.165 395 242 395C247.835 395 253.431 392.682 257.556 388.556C261.682 384.431 264 378.835 264 373C264 367.165 261.682 361.569 257.556 357.444C253.431 353.318 247.835 351 242 351ZM240.248 362.399C239.985 362.144 239.632 362.001 239.265 362.001C238.898 362.001 238.546 362.144 238.282 362.399C238.153 362.524 238.051 362.673 237.981 362.838C237.911 363.003 237.875 363.181 237.875 363.36C237.875 363.539 237.911 363.717 237.981 363.882C238.051 364.047 238.153 364.196 238.282 364.321C239.446 365.448 240.371 366.798 241.003 368.29C241.634 369.782 241.96 371.385 241.96 373.006C241.96 374.626 241.634 376.229 241.003 377.721C240.371 379.213 239.446 380.563 238.282 381.69C238.153 381.815 238.051 381.964 237.981 382.129C237.911 382.294 237.875 382.472 237.875 382.651C237.875 382.83 237.911 383.008 237.981 383.173C238.051 383.338 238.153 383.487 238.282 383.612C238.546 383.867 238.898 384.01 239.265 384.01C239.632 384.01 239.985 383.867 240.248 383.612C241.67 382.235 242.8 380.587 243.571 378.765C244.343 376.943 244.741 374.984 244.741 373.006C244.741 371.027 244.343 369.068 243.571 367.246C242.8 365.424 241.67 363.776 240.248 362.399ZM231.399 365.157C231.523 365.028 231.673 364.926 231.837 364.856C232.002 364.787 232.179 364.751 232.358 364.751C232.538 364.751 232.715 364.787 232.88 364.856C233.044 364.926 233.194 365.028 233.318 365.157C237.548 369.488 237.548 376.509 233.318 380.838C233.194 380.966 233.044 381.068 232.88 381.138C232.715 381.208 232.538 381.244 232.358 381.244C232.179 381.244 232.002 381.208 231.837 381.138C231.673 381.068 231.523 380.966 231.399 380.838C231.144 380.574 231.002 380.221 231.002 379.854C231.002 379.488 231.144 379.135 231.399 378.871C232.923 377.297 233.776 375.191 233.776 372.999C233.776 370.807 232.923 368.701 231.399 367.126C231.143 366.862 231.001 366.509 231.001 366.142C231.001 365.774 231.143 365.421 231.399 365.157ZM247.156 359.643C246.885 359.392 246.529 359.252 246.159 359.252C245.79 359.252 245.434 359.392 245.163 359.643C245.033 359.764 244.929 359.911 244.858 360.073C244.787 360.236 244.751 360.412 244.751 360.589C244.751 360.767 244.787 360.942 244.858 361.105C244.929 361.268 245.033 361.414 245.163 361.535C251.837 367.866 251.837 378.132 245.163 384.462C244.612 384.985 244.612 385.832 245.163 386.357C245.712 386.882 246.606 386.879 247.159 386.357C254.933 378.979 254.933 367.019 247.159 359.643"/>
</mask>
<path d="M222.75 373C222.75 370.472 223.248 367.969 224.215 365.633C225.183 363.298 226.601 361.176 228.388 359.388C230.176 357.601 232.298 356.183 234.633 355.215C236.969 354.248 239.472 353.75 242 353.75C244.528 353.75 247.031 354.248 249.367 355.215C251.702 356.183 253.824 357.601 255.612 359.388C257.399 361.176 258.817 363.298 259.785 365.633C260.752 367.969 261.25 370.472 261.25 373C261.25 378.105 259.222 383.002 255.612 386.612C252.002 390.222 247.105 392.25 242 392.25C236.895 392.25 231.998 390.222 228.388 386.612C224.778 383.002 222.75 378.105 222.75 373ZM242 351C236.165 351 230.569 353.318 226.444 357.444C222.318 361.569 220 367.165 220 373C220 378.835 222.318 384.431 226.444 388.556C230.569 392.682 236.165 395 242 395C247.835 395 253.431 392.682 257.556 388.556C261.682 384.431 264 378.835 264 373C264 367.165 261.682 361.569 257.556 357.444C253.431 353.318 247.835 351 242 351ZM240.248 362.399C239.985 362.144 239.632 362.001 239.265 362.001C238.898 362.001 238.546 362.144 238.282 362.399C238.153 362.524 238.051 362.673 237.981 362.838C237.911 363.003 237.875 363.181 237.875 363.36C237.875 363.539 237.911 363.717 237.981 363.882C238.051 364.047 238.153 364.196 238.282 364.321C239.446 365.448 240.371 366.798 241.003 368.29C241.634 369.782 241.96 371.385 241.96 373.006C241.96 374.626 241.634 376.229 241.003 377.721C240.371 379.213 239.446 380.563 238.282 381.69C238.153 381.815 238.051 381.964 237.981 382.129C237.911 382.294 237.875 382.472 237.875 382.651C237.875 382.83 237.911 383.008 237.981 383.173C238.051 383.338 238.153 383.487 238.282 383.612C238.546 383.867 238.898 384.01 239.265 384.01C239.632 384.01 239.985 383.867 240.248 383.612C241.67 382.235 242.8 380.587 243.571 378.765C244.343 376.943 244.741 374.984 244.741 373.006C244.741 371.027 244.343 369.068 243.571 367.246C242.8 365.424 241.67 363.776 240.248 362.399ZM231.399 365.157C231.523 365.028 231.673 364.926 231.837 364.856C232.002 364.787 232.179 364.751 232.358 364.751C232.538 364.751 232.715 364.787 232.88 364.856C233.044 364.926 233.194 365.028 233.318 365.157C237.548 369.488 237.548 376.509 233.318 380.838C233.194 380.966 233.044 381.068 232.88 381.138C232.715 381.208 232.538 381.244 232.358 381.244C232.179 381.244 232.002 381.208 231.837 381.138C231.673 381.068 231.523 380.966 231.399 380.838C231.144 380.574 231.002 380.221 231.002 379.854C231.002 379.488 231.144 379.135 231.399 378.871C232.923 377.297 233.776 375.191 233.776 372.999C233.776 370.807 232.923 368.701 231.399 367.126C231.143 366.862 231.001 366.509 231.001 366.142C231.001 365.774 231.143 365.421 231.399 365.157ZM247.156 359.643C246.885 359.392 246.529 359.252 246.159 359.252C245.79 359.252 245.434 359.392 245.163 359.643C245.033 359.764 244.929 359.911 244.858 360.073C244.787 360.236 244.751 360.412 244.751 360.589C244.751 360.767 244.787 360.942 244.858 361.105C244.929 361.268 245.033 361.414 245.163 361.535C251.837 367.866 251.837 378.132 245.163 384.462C244.612 384.985 244.612 385.832 245.163 386.357C245.712 386.882 246.606 386.879 247.159 386.357C254.933 378.979 254.933 367.019 247.159 359.643" fill="#455DFF"/>
<path d="M261.25 373H260.75H261.25ZM242 392.25V391.75V392.25ZM242 351V350.5V351ZM220 373H219.5H220ZM242 395V395.5V395ZM264 373H264.5H264ZM240.248 362.399L240.596 362.04L240.596 362.039L240.248 362.399ZM239.265 362.001V362.501V362.001ZM238.282 362.399L237.934 362.039L237.934 362.04L238.282 362.399ZM238.282 364.321L237.934 364.68L237.934 364.68L238.282 364.321ZM241.96 373.006H242.46H241.96ZM238.282 381.69L237.934 381.331L237.934 381.331L238.282 381.69ZM238.282 383.612L237.934 383.971L237.934 383.972L238.282 383.612ZM239.265 384.01V383.51V384.01ZM240.248 383.612L240.596 383.972L240.596 383.971L240.248 383.612ZM231.399 365.157L231.04 364.809L231.039 364.809L231.399 365.157ZM232.358 364.751V365.251V364.751ZM233.318 365.157L232.959 365.505L232.961 365.506L233.318 365.157ZM233.318 380.838L232.961 380.488L232.959 380.49L233.318 380.838ZM232.358 381.244V380.744V381.244ZM231.399 380.838L231.039 381.185L231.04 381.185L231.399 380.838ZM231.002 379.854H231.502H231.002ZM231.399 378.871L231.04 378.523L231.039 378.524L231.399 378.871ZM233.776 372.999H233.276H233.776ZM231.399 367.126L231.039 367.474L231.04 367.474L231.399 367.126ZM231.001 366.142H231.501H231.001ZM245.163 359.643L244.822 359.277L244.822 359.277L245.163 359.643ZM245.163 361.535L245.507 361.172L245.503 361.169L245.163 361.535ZM245.163 384.462L244.818 384.099L244.818 384.1L245.163 384.462ZM247.159 386.357L247.502 386.72L247.503 386.719L247.159 386.357ZM223.25 373C223.25 370.538 223.735 368.1 224.677 365.825L223.753 365.442C222.761 367.838 222.25 370.406 222.25 373H223.25ZM224.677 365.825C225.62 363.55 227.001 361.483 228.742 359.742L228.035 359.035C226.201 360.869 224.746 363.046 223.753 365.442L224.677 365.825ZM228.742 359.742C230.483 358.001 232.55 356.62 234.825 355.677L234.442 354.753C232.046 355.746 229.869 357.201 228.035 359.035L228.742 359.742ZM234.825 355.677C237.1 354.735 239.538 354.25 242 354.25V353.25C239.406 353.25 236.838 353.761 234.442 354.753L234.825 355.677ZM242 354.25C244.462 354.25 246.9 354.735 249.175 355.677L249.558 354.753C247.162 353.761 244.594 353.25 242 353.25V354.25ZM249.175 355.677C251.45 356.62 253.517 358.001 255.258 359.742L255.965 359.035C254.131 357.201 251.954 355.746 249.558 354.753L249.175 355.677ZM255.258 359.742C256.999 361.483 258.38 363.55 259.323 365.825L260.247 365.442C259.254 363.046 257.799 360.869 255.965 359.035L255.258 359.742ZM259.323 365.825C260.265 368.1 260.75 370.538 260.75 373H261.75C261.75 370.406 261.239 367.838 260.247 365.442L259.323 365.825ZM260.75 373C260.75 377.973 258.775 382.742 255.258 386.258L255.965 386.965C259.669 383.262 261.75 378.238 261.75 373H260.75ZM255.258 386.258C251.742 389.775 246.973 391.75 242 391.75V392.75C247.238 392.75 252.262 390.669 255.965 386.965L255.258 386.258ZM242 391.75C237.027 391.75 232.258 389.775 228.742 386.258L228.035 386.965C231.738 390.669 236.762 392.75 242 392.75V391.75ZM228.742 386.258C225.225 382.742 223.25 377.973 223.25 373H222.25C222.25 378.238 224.331 383.262 228.035 386.965L228.742 386.258ZM242 350.5C236.033 350.5 230.31 352.871 226.09 357.09L226.797 357.797C230.829 353.765 236.298 351.5 242 351.5V350.5ZM226.09 357.09C221.871 361.31 219.5 367.033 219.5 373H220.5C220.5 367.298 222.765 361.829 226.797 357.797L226.09 357.09ZM219.5 373C219.5 378.967 221.871 384.69 226.09 388.91L226.797 388.203C222.765 384.171 220.5 378.702 220.5 373H219.5ZM226.09 388.91C230.31 393.129 236.033 395.5 242 395.5V394.5C236.298 394.5 230.829 392.235 226.797 388.203L226.09 388.91ZM242 395.5C247.967 395.5 253.69 393.129 257.91 388.91L257.203 388.203C253.171 392.235 247.702 394.5 242 394.5V395.5ZM257.91 388.91C262.129 384.69 264.5 378.967 264.5 373H263.5C263.5 378.702 261.235 384.171 257.203 388.203L257.91 388.91ZM264.5 373C264.5 367.033 262.129 361.31 257.91 357.09L257.203 357.797C261.235 361.829 263.5 367.298 263.5 373H264.5ZM257.91 357.09C253.69 352.871 247.967 350.5 242 350.5V351.5C247.702 351.5 253.171 353.765 257.203 357.797L257.91 357.09ZM240.596 362.039C240.239 361.694 239.762 361.501 239.265 361.501V362.501C239.502 362.501 239.73 362.593 239.9 362.758L240.596 362.039ZM239.265 361.501C238.768 361.501 238.291 361.694 237.934 362.039L238.63 362.758C238.8 362.593 239.028 362.501 239.265 362.501V361.501ZM237.934 362.04C237.757 362.211 237.617 362.417 237.521 362.643L238.442 363.033C238.485 362.929 238.55 362.836 238.63 362.758L237.934 362.04ZM237.521 362.643C237.425 362.87 237.375 363.114 237.375 363.36H238.375C238.375 363.248 238.398 363.136 238.442 363.033L237.521 362.643ZM237.375 363.36C237.375 363.606 237.425 363.85 237.521 364.076L238.442 363.687C238.398 363.583 238.375 363.472 238.375 363.36H237.375ZM237.521 364.076C237.617 364.303 237.757 364.508 237.934 364.68L238.63 363.962C238.55 363.884 238.485 363.79 238.442 363.687L237.521 364.076ZM237.934 364.68C239.05 365.761 239.937 367.055 240.542 368.485L241.463 368.095C240.805 366.541 239.842 365.136 238.63 363.962L237.934 364.68ZM240.542 368.485C241.148 369.915 241.46 371.452 241.46 373.006H242.46C242.46 371.318 242.121 369.648 241.463 368.095L240.542 368.485ZM241.46 373.006C241.46 374.559 241.148 376.096 240.542 377.526L241.463 377.916C242.121 376.363 242.46 374.693 242.46 373.006H241.46ZM240.542 377.526C239.937 378.956 239.05 380.25 237.934 381.331L238.63 382.049C239.842 380.875 240.805 379.47 241.463 377.916L240.542 377.526ZM237.934 381.331C237.757 381.503 237.617 381.708 237.521 381.935L238.442 382.324C238.485 382.221 238.55 382.127 238.63 382.049L237.934 381.331ZM237.521 381.935C237.425 382.161 237.375 382.405 237.375 382.651H238.375C238.375 382.539 238.398 382.428 238.442 382.324L237.521 381.935ZM237.375 382.651C237.375 382.897 237.425 383.141 237.521 383.368L238.442 382.978C238.398 382.875 238.375 382.763 238.375 382.651H237.375ZM237.521 383.368C237.617 383.594 237.757 383.8 237.934 383.971L238.63 383.253C238.55 383.175 238.485 383.082 238.442 382.978L237.521 383.368ZM237.934 383.972C238.291 384.317 238.768 384.51 239.265 384.51V383.51C239.028 383.51 238.8 383.418 238.63 383.253L237.934 383.972ZM239.265 384.51C239.762 384.51 240.239 384.317 240.596 383.972L239.9 383.253C239.73 383.418 239.502 383.51 239.265 383.51V384.51ZM240.596 383.971C242.066 382.548 243.234 380.844 244.032 378.96L243.111 378.57C242.365 380.33 241.273 381.923 239.9 383.253L240.596 383.971ZM244.032 378.96C244.83 377.076 245.241 375.051 245.241 373.006H244.241C244.241 374.917 243.857 376.81 243.111 378.57L244.032 378.96ZM245.241 373.006C245.241 370.96 244.83 368.935 244.032 367.051L243.111 367.441C243.857 369.201 244.241 371.094 244.241 373.006H245.241ZM244.032 367.051C243.234 365.167 242.066 363.463 240.596 362.04L239.9 362.758C241.273 364.088 242.365 365.681 243.111 367.441L244.032 367.051ZM231.758 365.505C231.836 365.424 231.929 365.361 232.032 365.317L231.642 364.396C231.416 364.492 231.211 364.632 231.04 364.809L231.758 365.505ZM232.032 365.317C232.136 365.273 232.246 365.251 232.358 365.251V364.251C232.112 364.251 231.869 364.3 231.642 364.396L232.032 365.317ZM232.358 365.251C232.471 365.251 232.581 365.273 232.685 365.317L233.075 364.396C232.848 364.3 232.605 364.251 232.358 364.251V365.251ZM232.685 365.317C232.788 365.361 232.881 365.424 232.959 365.505L233.677 364.809C233.506 364.632 233.301 364.492 233.075 364.396L232.685 365.317ZM232.961 365.506C237 369.643 237 376.354 232.961 380.488L233.676 381.187C238.095 376.664 238.095 369.333 233.676 364.808L232.961 365.506ZM232.959 380.49C232.881 380.57 232.788 380.634 232.685 380.678L233.075 381.599C233.301 381.503 233.506 381.362 233.677 381.185L232.959 380.49ZM232.685 380.678C232.581 380.721 232.471 380.744 232.358 380.744V381.744C232.605 381.744 232.848 381.694 233.075 381.599L232.685 380.678ZM232.358 380.744C232.246 380.744 232.136 380.721 232.032 380.678L231.642 381.599C231.869 381.694 232.112 381.744 232.358 381.744V380.744ZM232.032 380.678C231.929 380.634 231.836 380.57 231.758 380.49L231.04 381.185C231.211 381.362 231.416 381.503 231.642 381.599L232.032 380.678ZM231.759 380.49C231.594 380.32 231.502 380.092 231.502 379.854H230.502C230.502 380.351 230.694 380.827 231.039 381.185L231.759 380.49ZM231.502 379.854C231.502 379.617 231.594 379.389 231.759 379.218L231.039 378.524C230.694 378.881 230.502 379.358 230.502 379.854H231.502ZM231.758 379.219C233.373 377.551 234.276 375.32 234.276 372.999H233.276C233.276 375.061 232.474 377.042 231.04 378.523L231.758 379.219ZM234.276 372.999C234.276 370.677 233.373 368.446 231.758 366.778L231.04 367.474C232.474 368.955 233.276 370.937 233.276 372.999H234.276ZM231.758 366.778C231.593 366.608 231.501 366.379 231.501 366.142H230.501C230.501 366.639 230.694 367.116 231.039 367.474L231.758 366.778ZM231.501 366.142C231.501 365.904 231.593 365.675 231.758 365.505L231.039 364.809C230.694 365.167 230.501 365.644 230.501 366.142H231.501ZM247.496 359.277C247.133 358.939 246.655 358.752 246.159 358.752V359.752C246.403 359.752 246.638 359.844 246.816 360.01L247.496 359.277ZM246.159 358.752C245.664 358.752 245.186 358.939 244.822 359.277L245.503 360.01C245.681 359.844 245.916 359.752 246.159 359.752V358.752ZM244.822 359.277C244.642 359.445 244.498 359.648 244.4 359.874L245.317 360.273C245.36 360.173 245.424 360.083 245.503 360.009L244.822 359.277ZM244.4 359.874C244.301 360.1 244.251 360.343 244.251 360.589H245.251C245.251 360.48 245.273 360.373 245.317 360.273L244.4 359.874ZM244.251 360.589C244.251 360.835 244.301 361.079 244.4 361.305L245.317 360.906C245.273 360.806 245.251 360.698 245.251 360.589H244.251ZM244.4 361.305C244.498 361.53 244.642 361.733 244.822 361.901L245.503 361.169C245.424 361.095 245.36 361.005 245.317 360.906L244.4 361.305ZM244.818 361.898C251.285 368.031 251.285 377.966 244.818 384.099L245.507 384.825C252.389 378.297 252.389 367.7 245.507 361.172L244.818 361.898ZM244.818 384.1C244.06 384.82 244.061 385.997 244.817 386.718L245.508 385.995C245.164 385.666 245.165 385.149 245.507 384.825L244.818 384.1ZM244.817 386.718C245.562 387.43 246.759 387.423 247.502 386.72L246.816 385.993C246.454 386.335 245.863 386.334 245.508 385.995L244.817 386.718ZM247.503 386.719C255.485 379.144 255.485 366.853 247.503 359.281L246.815 360.006C254.381 367.184 254.381 378.813 246.815 385.994L247.503 386.719Z" fill="#F5F5F5" mask="url(#path-14-inside-2_1122_4001)"/>
<path d="M343.6 414.15C343.6 413.288 343.942 412.461 344.552 411.852C345.161 411.242 345.988 410.9 346.85 410.9H348.15C348.322 410.9 348.488 410.969 348.61 411.09C348.731 411.212 348.8 411.378 348.8 411.55C348.8 411.722 348.731 411.888 348.61 412.01C348.488 412.132 348.322 412.2 348.15 412.2H346.85C346.333 412.2 345.837 412.405 345.471 412.771C345.105 413.137 344.9 413.633 344.9 414.15V415.45C344.9 415.622 344.831 415.788 344.71 415.91C344.588 416.032 344.422 416.1 344.25 416.1C344.078 416.1 343.912 416.032 343.79 415.91C343.668 415.788 343.6 415.622 343.6 415.45V414.15ZM359.2 411.55C359.2 411.378 359.268 411.212 359.39 411.09C359.512 410.969 359.678 410.9 359.85 410.9H361.15C362.012 410.9 362.839 411.242 363.448 411.852C364.058 412.461 364.4 413.288 364.4 414.15V415.45C364.4 415.622 364.331 415.788 364.21 415.91C364.088 416.032 363.922 416.1 363.75 416.1C363.578 416.1 363.412 416.032 363.29 415.91C363.168 415.788 363.1 415.622 363.1 415.45V414.15C363.1 413.633 362.895 413.137 362.529 412.771C362.163 412.405 361.667 412.2 361.15 412.2H359.85C359.678 412.2 359.512 412.132 359.39 412.01C359.268 411.888 359.2 411.722 359.2 411.55ZM344.25 423.9C344.422 423.9 344.588 423.969 344.71 424.09C344.831 424.212 344.9 424.378 344.9 424.55V425.85C344.9 426.367 345.105 426.863 345.471 427.229C345.837 427.595 346.333 427.8 346.85 427.8H348.15C348.322 427.8 348.488 427.869 348.61 427.99C348.731 428.112 348.8 428.278 348.8 428.45C348.8 428.622 348.731 428.788 348.61 428.91C348.488 429.032 348.322 429.1 348.15 429.1H346.85C345.988 429.1 345.161 428.758 344.552 428.148C343.942 427.539 343.6 426.712 343.6 425.85V424.55C343.6 424.378 343.668 424.212 343.79 424.09C343.912 423.969 344.078 423.9 344.25 423.9ZM363.75 423.9C363.922 423.9 364.088 423.969 364.21 424.09C364.331 424.212 364.4 424.378 364.4 424.55V425.85C364.4 426.712 364.058 427.539 363.448 428.148C362.839 428.758 362.012 429.1 361.15 429.1H359.85C359.678 429.1 359.512 429.032 359.39 428.91C359.268 428.788 359.2 428.622 359.2 428.45C359.2 428.278 359.268 428.112 359.39 427.99C359.512 427.869 359.678 427.8 359.85 427.8H361.15C361.667 427.8 362.163 427.595 362.529 427.229C362.895 426.863 363.1 426.367 363.1 425.85V424.55C363.1 424.378 363.168 424.212 363.29 424.09C363.412 423.969 363.578 423.9 363.75 423.9ZM348.15 414.8C348.322 414.8 348.488 414.869 348.61 414.99C348.731 415.112 348.8 415.278 348.8 415.45V424.55C348.8 424.722 348.731 424.888 348.61 425.01C348.488 425.132 348.322 425.2 348.15 425.2C347.978 425.2 347.812 425.132 347.69 425.01C347.568 424.888 347.5 424.722 347.5 424.55V415.45C347.5 415.278 347.568 415.112 347.69 414.99C347.812 414.869 347.978 414.8 348.15 414.8ZM352.7 415.45C352.7 415.278 352.631 415.112 352.51 414.99C352.388 414.869 352.222 414.8 352.05 414.8C351.878 414.8 351.712 414.869 351.59 414.99C351.468 415.112 351.4 415.278 351.4 415.45V424.55C351.4 424.722 351.468 424.888 351.59 425.01C351.712 425.132 351.878 425.2 352.05 425.2C352.222 425.2 352.388 425.132 352.51 425.01C352.631 424.888 352.7 424.722 352.7 424.55V415.45ZM355.95 414.8C356.122 414.8 356.288 414.869 356.41 414.99C356.531 415.112 356.6 415.278 356.6 415.45V424.55C356.6 424.722 356.531 424.888 356.41 425.01C356.288 425.132 356.122 425.2 355.95 425.2C355.778 425.2 355.612 425.132 355.49 425.01C355.368 424.888 355.3 424.722 355.3 424.55V415.45C355.3 415.278 355.368 415.112 355.49 414.99C355.612 414.869 355.778 414.8 355.95 414.8ZM360.5 415.45C360.5 415.278 360.431 415.112 360.31 414.99C360.188 414.869 360.022 414.8 359.85 414.8C359.678 414.8 359.512 414.869 359.39 414.99C359.268 415.112 359.2 415.278 359.2 415.45V424.55C359.2 424.722 359.268 424.888 359.39 425.01C359.512 425.132 359.678 425.2 359.85 425.2C360.022 425.2 360.188 425.132 360.31 425.01C360.431 424.888 360.5 424.722 360.5 424.55V415.45Z" fill="#455DFF"/>
<path d="M299.644 231.481V241.642M289.483 201V211.16M309.805 231.481V241.642M289.483 251.802H319.966M309.805 261.963H319.966M269.161 231.481H279.322M269.161 211.198L269.195 211.16M289.483 231.519L289.517 231.481M259 231.519L259.034 231.481M289.483 221.358L289.517 221.321M289.483 241.679L289.517 241.642M299.644 262L299.678 261.963M289.483 262L289.517 261.963M319.966 231.519L320 231.481M319.966 241.679L320 241.642M309.805 211.198L309.839 211.16M269.161 251.84L269.195 251.802M279.322 203.032V219.289C279.322 219.828 279.108 220.345 278.727 220.726C278.346 221.107 277.829 221.321 277.29 221.321H261.032C260.493 221.321 259.976 221.107 259.595 220.726C259.214 220.345 259 219.828 259 219.289V203.032C259 202.493 259.214 201.976 259.595 201.595C259.976 201.214 260.493 201 261.032 201H277.29C277.829 201 278.346 201.214 278.727 201.595C279.108 201.976 279.322 202.493 279.322 203.032ZM319.966 203.032V219.289C319.966 219.828 319.752 220.345 319.371 220.726C318.99 221.107 318.473 221.321 317.934 221.321H301.676C301.137 221.321 300.62 221.107 300.239 220.726C299.858 220.345 299.644 219.828 299.644 219.289V203.032C299.644 202.493 299.858 201.976 300.239 201.595C300.62 201.214 301.137 201 301.676 201H317.934C318.473 201 318.99 201.214 319.371 201.595C319.752 201.976 319.966 202.493 319.966 203.032ZM279.322 243.674V259.931C279.322 260.47 279.108 260.986 278.727 261.368C278.346 261.749 277.829 261.963 277.29 261.963H261.032C260.493 261.963 259.976 261.749 259.595 261.368C259.214 260.986 259 260.47 259 259.931V243.674C259 243.135 259.214 242.618 259.595 242.237C259.976 241.856 260.493 241.642 261.032 241.642H277.29C277.829 241.642 278.346 241.856 278.727 242.237C279.108 242.618 279.322 243.135 279.322 243.674Z" stroke="#455DFF" stroke-width="2" stroke-linecap="round" stroke-linejoin="round"/>
<rect x="382" y="1" width="198.003" height="104.582" rx="14.9418" stroke="#888888" stroke-width="2"/>
<path d="M417.549 18.7748L417.549 87.3937" stroke="#888888" stroke-width="2" stroke-linecap="round"/>
<path d="M428.436 18.7748L428.436 87.3937" stroke="#888888" stroke-width="2" stroke-linecap="round"/>
<path d="M432.983 18.7748L432.983 87.3937" stroke="#888888" stroke-width="2" stroke-linecap="round"/>
<path d="M437.53 18.7748L437.53 87.3937" stroke="#888888" stroke-width="2" stroke-linecap="round"/>
<path d="M499.535 18.7748L499.535 87.3937" stroke="#888888" stroke-width="2" stroke-linecap="round"/>
<path d="M510.421 18.7748L510.421 87.3937" stroke="#888888" stroke-width="2" stroke-linecap="round"/>
<path d="M514.969 18.7748L514.969 87.3937" stroke="#888888" stroke-width="2" stroke-linecap="round"/>
<path d="M519.516 18.7748L519.515 87.3937" stroke="#888888" stroke-width="2" stroke-linecap="round"/>
<path d="M525.163 18.7748L525.163 87.3937" stroke="#888888" stroke-width="2" stroke-linecap="round"/>
<path d="M536.05 18.7748L536.05 87.3937" stroke="#888888" stroke-width="2" stroke-linecap="round"/>
<path d="M540.597 18.7748L540.597 87.3937" stroke="#888888" stroke-width="2" stroke-linecap="round"/>
<path d="M545.144 18.7748L545.144 87.3937" stroke="#888888" stroke-width="2" stroke-linecap="round"/>
<path d="M467.706 18.7748L467.706 87.3937" stroke="#888888" stroke-width="2" stroke-linecap="round"/>
<path d="M472.253 18.7748L472.253 87.3937" stroke="#888888" stroke-width="2" stroke-linecap="round"/>
<path d="M476.8 18.7748L476.8 87.3937" stroke="#888888" stroke-width="2" stroke-linecap="round"/>
<path d="M481.347 18.7748L481.347 87.3937" stroke="#888888" stroke-width="2" stroke-linecap="round"/>
<path d="M485.894 18.7748L485.894 87.3937" stroke="#888888" stroke-width="2" stroke-linecap="round"/>
<path d="M490.441 18.7748L490.441 87.3937" stroke="#888888" stroke-width="2" stroke-linecap="round"/>
<path d="M449.518 18.7748L449.518 87.3937" stroke="#888888" stroke-width="2" stroke-linecap="round"/>
<path d="M463.159 18.7748L463.159 87.3937" stroke="#888888" stroke-width="2" stroke-linecap="round"/>
<mask id="path-39-inside-3_1122_4001" fill="white">
<path fill-rule="evenodd" clip-rule="evenodd" d="M447.669 54.0029C461.636 48.2158 477.006 46.7007 491.835 49.6494C506.664 52.598 520.285 59.8778 530.976 70.5682C532 71.5927 532.576 72.9822 532.576 74.4311C532.576 75.8799 532 77.2695 530.976 78.2939C529.951 79.3184 528.562 79.894 527.113 79.894C525.664 79.894 524.275 79.3184 523.25 78.2939C510.963 66.0077 494.299 59.1055 476.923 59.1055C459.547 59.1055 442.883 66.0077 430.596 78.2939C429.571 79.3184 428.182 79.894 426.733 79.894C425.284 79.894 423.895 79.3184 422.87 78.2939C421.846 77.2695 421.27 75.8799 421.27 74.4311C421.27 72.9822 421.846 71.5927 422.87 70.5682C429.969 63.4718 438.395 57.8429 447.669 54.0029ZM444.218 80.9038C453.685 73.821 465.195 70.0025 477.018 70.0222C488.841 70.0419 500.338 73.8987 509.781 81.013C510.938 81.8847 511.701 83.1803 511.903 84.6149C512.104 86.0494 511.728 87.5053 510.856 88.6623C509.984 89.8193 508.689 90.5826 507.254 90.7843C505.82 90.986 504.364 90.6096 503.207 89.7379C495.653 84.0462 486.456 80.9601 476.999 80.9433C467.541 80.9266 458.333 83.9802 450.759 89.6451C450.187 90.0917 449.531 90.4195 448.83 90.6095C448.129 90.7995 447.397 90.8477 446.677 90.7514C445.958 90.6551 445.264 90.4162 444.638 90.0486C444.012 89.6811 443.465 89.1923 443.03 88.6109C442.595 88.0294 442.28 87.3671 442.104 86.6625C441.928 85.958 441.895 85.2254 442.005 84.5077C442.116 83.79 442.369 83.1016 442.749 82.4828C443.129 81.864 443.628 81.3271 444.218 80.9038ZM449.624 114.045V123.917C449.889 123.808 450.16 123.704 450.437 123.606C456.465 121.34 465.304 119.161 476.923 119.161C488.542 119.161 497.381 121.345 503.409 123.606L504.222 123.917V114.051C502.715 113.273 501.164 112.584 499.576 111.987C494.684 110.158 487.144 108.241 476.923 108.241C466.702 108.241 459.162 110.152 454.27 111.987C452.293 112.729 450.748 113.456 449.624 114.045ZM512.958 106.609C513.636 107.118 514.187 107.777 514.566 108.535C514.945 109.293 515.142 110.129 515.142 110.977V134.394C515.141 139.783 513.545 145.051 510.556 149.535L506.974 154.913C505.181 157.601 504.224 160.761 504.222 163.992V184.565C504.224 190.859 502.051 196.959 498.071 201.834C494.091 206.71 488.549 210.06 482.383 211.319V211.979C482.383 212.936 482.636 213.876 483.117 214.703C483.597 215.53 484.289 216.215 485.12 216.689C485.952 217.162 486.894 217.406 487.851 217.397C488.808 217.388 489.745 217.126 490.567 216.637L502.131 209.774C507.546 206.558 514.008 205.6 520.122 207.106C526.237 208.613 531.514 212.464 534.814 217.827L536.174 220.038C536.549 220.649 536.801 221.328 536.914 222.036C537.028 222.744 537.001 223.468 536.834 224.165C536.668 224.863 536.366 225.521 535.945 226.102C535.525 226.683 534.994 227.175 534.383 227.551C533.772 227.927 533.093 228.178 532.385 228.292C531.677 228.405 530.953 228.378 530.256 228.212C529.558 228.045 528.9 227.743 528.319 227.323C527.738 226.902 527.246 226.371 526.87 225.76L525.511 223.554C523.713 220.632 520.838 218.535 517.507 217.713C514.176 216.892 510.656 217.413 507.706 219.165L496.142 226.028C485.249 232.492 471.463 224.646 471.463 211.979V211.319C465.297 210.06 459.755 206.71 455.775 201.834C451.795 196.959 449.622 190.859 449.624 184.565V163.992C449.623 160.759 448.666 157.598 446.872 154.907L443.29 149.529C440.302 145.047 438.706 139.781 438.704 134.394V110.971C438.704 110.124 438.901 109.288 439.28 108.53C439.659 107.772 440.21 107.112 440.888 106.603L440.904 106.593L440.931 106.571L440.986 106.533C441.211 106.363 441.442 106.203 441.679 106.052C442.286 105.659 442.905 105.285 443.536 104.933C445.751 103.701 448.058 102.642 450.437 101.766C456.465 99.5002 465.304 97.3217 476.923 97.3217C488.542 97.3217 497.381 99.5056 503.409 101.766C506.417 102.891 508.721 104.037 510.31 104.933C511.184 105.427 512.035 105.96 512.86 106.533L512.915 106.571L512.942 106.593L512.958 106.609ZM504.157 135.863C502.668 135.099 501.137 134.421 499.571 133.832C494.689 131.997 487.149 130.081 476.923 130.081C466.697 130.081 459.162 131.992 454.27 133.827C452.705 134.415 451.176 135.093 449.689 135.858C449.935 138.581 450.858 141.199 452.375 143.474L455.957 148.852C458.946 153.334 460.541 158.6 460.543 163.987V184.56C460.543 188.904 462.269 193.07 465.341 196.142C468.413 199.214 472.579 200.939 476.923 200.939C481.267 200.939 485.433 199.214 488.505 196.142C491.577 193.07 493.303 188.904 493.303 184.56V163.987C493.304 158.598 494.899 153.33 497.889 148.847L501.471 143.469C502.988 141.194 503.911 138.586 504.157 135.863ZM476.923 157.38C478.371 157.38 479.76 157.956 480.784 158.98C481.808 160.004 482.383 161.392 482.383 162.84V184.68C482.383 186.128 481.808 187.517 480.784 188.541C479.76 189.565 478.371 190.14 476.923 190.14C475.475 190.14 474.086 189.565 473.062 188.541C472.038 187.517 471.463 186.128 471.463 184.68V162.84C471.463 161.392 472.038 160.004 473.062 158.98C474.086 157.956 475.475 157.38 476.923 157.38Z"/>
</mask>
<path fill-rule="evenodd" clip-rule="evenodd" d="M447.669 54.0029C461.636 48.2158 477.006 46.7007 491.835 49.6494C506.664 52.598 520.285 59.8778 530.976 70.5682C532 71.5927 532.576 72.9822 532.576 74.4311C532.576 75.8799 532 77.2695 530.976 78.2939C529.951 79.3184 528.562 79.894 527.113 79.894C525.664 79.894 524.275 79.3184 523.25 78.2939C510.963 66.0077 494.299 59.1055 476.923 59.1055C459.547 59.1055 442.883 66.0077 430.596 78.2939C429.571 79.3184 428.182 79.894 426.733 79.894C425.284 79.894 423.895 79.3184 422.87 78.2939C421.846 77.2695 421.27 75.8799 421.27 74.4311C421.27 72.9822 421.846 71.5927 422.87 70.5682C429.969 63.4718 438.395 57.8429 447.669 54.0029ZM444.218 80.9038C453.685 73.821 465.195 70.0025 477.018 70.0222C488.841 70.0419 500.338 73.8987 509.781 81.013C510.938 81.8847 511.701 83.1803 511.903 84.6149C512.104 86.0494 511.728 87.5053 510.856 88.6623C509.984 89.8193 508.689 90.5826 507.254 90.7843C505.82 90.986 504.364 90.6096 503.207 89.7379C495.653 84.0462 486.456 80.9601 476.999 80.9433C467.541 80.9266 458.333 83.9802 450.759 89.6451C450.187 90.0917 449.531 90.4195 448.83 90.6095C448.129 90.7995 447.397 90.8477 446.677 90.7514C445.958 90.6551 445.264 90.4162 444.638 90.0486C444.012 89.6811 443.465 89.1923 443.03 88.6109C442.595 88.0294 442.28 87.3671 442.104 86.6625C441.928 85.958 441.895 85.2254 442.005 84.5077C442.116 83.79 442.369 83.1016 442.749 82.4828C443.129 81.864 443.628 81.3271 444.218 80.9038ZM449.624 114.045V123.917C449.889 123.808 450.16 123.704 450.437 123.606C456.465 121.34 465.304 119.161 476.923 119.161C488.542 119.161 497.381 121.345 503.409 123.606L504.222 123.917V114.051C502.715 113.273 501.164 112.584 499.576 111.987C494.684 110.158 487.144 108.241 476.923 108.241C466.702 108.241 459.162 110.152 454.27 111.987C452.293 112.729 450.748 113.456 449.624 114.045ZM512.958 106.609C513.636 107.118 514.187 107.777 514.566 108.535C514.945 109.293 515.142 110.129 515.142 110.977V134.394C515.141 139.783 513.545 145.051 510.556 149.535L506.974 154.913C505.181 157.601 504.224 160.761 504.222 163.992V184.565C504.224 190.859 502.051 196.959 498.071 201.834C494.091 206.71 488.549 210.06 482.383 211.319V211.979C482.383 212.936 482.636 213.876 483.117 214.703C483.597 215.53 484.289 216.215 485.12 216.689C485.952 217.162 486.894 217.406 487.851 217.397C488.808 217.388 489.745 217.126 490.567 216.637L502.131 209.774C507.546 206.558 514.008 205.6 520.122 207.106C526.237 208.613 531.514 212.464 534.814 217.827L536.174 220.038C536.549 220.649 536.801 221.328 536.914 222.036C537.028 222.744 537.001 223.468 536.834 224.165C536.668 224.863 536.366 225.521 535.945 226.102C535.525 226.683 534.994 227.175 534.383 227.551C533.772 227.927 533.093 228.178 532.385 228.292C531.677 228.405 530.953 228.378 530.256 228.212C529.558 228.045 528.9 227.743 528.319 227.323C527.738 226.902 527.246 226.371 526.87 225.76L525.511 223.554C523.713 220.632 520.838 218.535 517.507 217.713C514.176 216.892 510.656 217.413 507.706 219.165L496.142 226.028C485.249 232.492 471.463 224.646 471.463 211.979V211.319C465.297 210.06 459.755 206.71 455.775 201.834C451.795 196.959 449.622 190.859 449.624 184.565V163.992C449.623 160.759 448.666 157.598 446.872 154.907L443.29 149.529C440.302 145.047 438.706 139.781 438.704 134.394V110.971C438.704 110.124 438.901 109.288 439.28 108.53C439.659 107.772 440.21 107.112 440.888 106.603L440.904 106.593L440.931 106.571L440.986 106.533C441.211 106.363 441.442 106.203 441.679 106.052C442.286 105.659 442.905 105.285 443.536 104.933C445.751 103.701 448.058 102.642 450.437 101.766C456.465 99.5002 465.304 97.3217 476.923 97.3217C488.542 97.3217 497.381 99.5056 503.409 101.766C506.417 102.891 508.721 104.037 510.31 104.933C511.184 105.427 512.035 105.96 512.86 106.533L512.915 106.571L512.942 106.593L512.958 106.609ZM504.157 135.863C502.668 135.099 501.137 134.421 499.571 133.832C494.689 131.997 487.149 130.081 476.923 130.081C466.697 130.081 459.162 131.992 454.27 133.827C452.705 134.415 451.176 135.093 449.689 135.858C449.935 138.581 450.858 141.199 452.375 143.474L455.957 148.852C458.946 153.334 460.541 158.6 460.543 163.987V184.56C460.543 188.904 462.269 193.07 465.341 196.142C468.413 199.214 472.579 200.939 476.923 200.939C481.267 200.939 485.433 199.214 488.505 196.142C491.577 193.07 493.303 188.904 493.303 184.56V163.987C493.304 158.598 494.899 153.33 497.889 148.847L501.471 143.469C502.988 141.194 503.911 138.586 504.157 135.863ZM476.923 157.38C478.371 157.38 479.76 157.956 480.784 158.98C481.808 160.004 482.383 161.392 482.383 162.84V184.68C482.383 186.128 481.808 187.517 480.784 188.541C479.76 189.565 478.371 190.14 476.923 190.14C475.475 190.14 474.086 189.565 473.062 188.541C472.038 187.517 471.463 186.128 471.463 184.68V162.84C471.463 161.392 472.038 160.004 473.062 158.98C474.086 157.956 475.475 157.38 476.923 157.38Z" fill="#888888" stroke="#F5F5F5" stroke-width="9" mask="url(#path-39-inside-3_1122_4001)"/>
</g>
<defs>
<clipPath id="clip0_1122_4001">
<rect width="580" height="500" rx="10" fill="white"/>
</clipPath>
</defs>
</svg>
