<svg width="580" height="500" viewBox="0 0 580 500" fill="none" xmlns="http://www.w3.org/2000/svg">
<rect x="1" y="345" width="154" height="154" rx="9" fill="#F5F5F5" stroke="#888888" stroke-width="2"/>
<rect x="104" y="256" width="155" height="155" rx="9" fill="#F5F5F5" stroke="#888888" stroke-width="2"/>
<rect x="213" y="173" width="155" height="154" rx="9" fill="#F5F5F5" stroke="#888888" stroke-width="2"/>
<rect x="322" y="89" width="155" height="156" rx="9" fill="#F5F5F5" stroke="#888888" stroke-width="2"/>
<rect x="425" y="1" width="154" height="155" rx="9" fill="#F5F5F5" stroke="#455DFF" stroke-width="2"/>
<path d="M500.367 63.8443C501.105 64.8105 501.071 65.946 500.26 66.6425C499.818 67.0222 499.409 67.4382 499.035 67.8869C498.277 68.7974 497.666 69.8459 497.227 71.0031C497.05 71.4687 496.902 71.9512 496.782 72.4506C496.485 73.6889 494.926 74.3153 493.292 73.8727L479.845 70.2292L444.635 60.6881C443.015 60.2492 441.86 58.9335 442.014 57.6831C442.524 53.5148 443.512 49.5993 444.925 45.9739C445.465 44.5905 447.563 44.1781 449.31 45.1214L481.549 62.5359C481.555 62.5165 481.563 62.4972 481.572 62.4778C481.675 62.5419 481.779 62.6024 481.887 62.6604C484.203 63.912 486.672 63.3618 487.422 61.4524C488.077 59.7824 487.207 57.6045 485.441 56.2344C485.444 56.2284 485.448 56.2236 485.456 56.2175L457.491 32.1799C456.277 31.1363 456.113 29.6598 457.122 28.8073C459.724 26.6076 462.597 24.7139 465.701 23.154C467.11 22.4466 469.224 23.0065 470.255 24.3572L491.129 51.7324L500.366 63.8443H500.367Z" fill="#455DFF"/>
<path d="M526.496 30.1252C527.595 30.8556 528.108 31.9983 527.778 32.9549L520.381 54.2898L517.067 63.8502C516.635 65.0969 514.921 65.6133 513.275 64.999C513.025 64.9059 512.774 64.8188 512.52 64.7378C511.279 64.3399 510.002 64.0908 508.713 64.0122C508.664 64.0086 508.617 64.0062 508.57 64.0038C508.188 63.9844 507.812 63.9808 507.442 63.9917C505.983 64.034 504.507 63.1948 503.958 62.017L498.031 49.333L484.77 20.9578C484.07 19.462 485.104 18.0677 486.95 18.0193C490.075 17.9383 493.292 18.1112 496.583 18.555C498.316 18.8247 499.423 19.8477 499.67 21.0485L505.623 49.3355C506.077 51.4867 508.132 53.3659 510.191 53.5316C511.977 53.6767 513.178 52.4832 513.15 50.7696C513.161 50.7721 513.171 50.7757 513.182 50.7805L514.31 26.9872C514.391 25.2882 516.627 24.5167 518.596 25.5143C521.311 26.8904 523.951 28.4347 526.495 30.1252H526.496Z" fill="#455DFF"/>
<path d="M560.305 76.8069C560.641 78.1758 559.536 79.3016 557.864 79.2871L538.152 79.1214L528.259 79.038C526.738 79.0247 525.278 78.0814 524.845 76.848C524.667 76.3389 524.465 75.8383 524.24 75.3449C523.689 74.1284 523.004 72.9675 522.21 71.8828C521.784 71.2999 521.326 70.74 520.841 70.2055C520.05 69.3349 519.911 68.2586 520.5 67.4799L526.745 59.24L538.078 44.2887C539.11 42.9259 541.744 43.1363 543.099 44.6805C545.011 46.8608 546.807 49.1306 548.471 51.4766C549.212 52.5189 549.051 53.7113 548.086 54.3643L531.979 65.2706L531.893 65.3274C531.893 65.3274 531.885 65.3334 531.881 65.3346C531.859 65.3492 531.836 65.3649 531.814 65.3794C531.799 65.3903 531.784 65.3999 531.77 65.4108C530.444 66.3553 530.381 68.5307 531.639 70.2854C532.635 71.6748 534.157 72.3713 535.408 72.1428C535.558 72.115 535.703 72.0751 535.844 72.0218C535.855 72.017 535.864 72.0134 535.874 72.0085L553.559 66.9357C555.207 66.4629 557.267 67.4097 557.836 68.9104C558.823 71.5115 559.648 74.1489 560.302 76.8069H560.305Z" fill="#455DFF"/>
<path d="M533.396 94.2724C532.919 95.8226 533.617 97.6946 534.976 98.7611C534.974 98.7647 534.971 98.7696 534.968 98.7732L554.013 115.142C554.969 115.964 555.252 117.107 554.71 117.967C553.452 119.963 552.042 121.851 550.485 123.613C549.341 124.908 546.68 124.578 545.474 122.997L530.664 103.574L522.653 93.0679C521.961 92.161 521.977 91.1077 522.664 90.3906C523.048 89.9904 523.4 89.5587 523.715 89.1004C524.342 88.1983 524.836 87.1922 525.184 86.1026C525.297 85.7471 525.395 85.3831 525.477 85.0107C525.755 83.7506 527.301 83.0867 528.946 83.5329L538.783 86.1981L559.504 91.8127C560.993 92.2166 562.068 93.4126 561.997 94.6001C561.845 97.1214 561.523 99.5895 561.035 101.99C560.721 103.536 558.541 104.121 556.733 103.143L537.715 92.8708C537.715 92.8708 537.709 92.866 537.706 92.8648C537.659 92.837 537.611 92.8104 537.565 92.785C537.515 92.7584 537.467 92.733 537.417 92.7088C535.71 91.878 533.929 92.5467 533.397 94.2699L533.396 94.2724Z" fill="#455DFF"/>
<path d="M527.898 137.101C526.091 137.547 523.952 136.405 523.616 134.805L518.079 108.5C518.064 108.5 518.049 108.502 518.033 108.504L518.028 108.478C517.583 106.361 515.579 104.752 513.533 104.889C511.772 105.006 510.55 106.375 510.506 108.112C510.49 108.109 510.476 108.107 510.462 108.103L509.134 136.087C509.073 137.372 507.697 138.203 506.043 137.957C502.534 137.436 499.034 136.618 495.58 135.52C493.92 134.992 492.903 133.544 493.331 132.31L502.585 105.619L506.493 94.3456C506.899 93.1762 508.447 92.6332 510.026 93.1C510.402 93.2113 510.779 93.3092 511.16 93.3927C512.372 93.6587 513.602 93.7808 514.828 93.7373C514.875 93.7349 514.921 93.7337 514.968 93.7313C515.282 93.7167 515.59 93.6926 515.893 93.6575C517.42 93.4809 519.065 94.3492 519.653 95.6068L524.943 106.928L536.594 131.858C537.095 132.929 536.662 134.01 535.554 134.5C533.144 135.563 530.59 136.437 527.894 137.102L527.898 137.101Z" fill="#455DFF"/>
<path d="M502.109 88.3196C502.996 89.1975 503.183 90.3342 502.564 91.1505L495.036 101.083L477.793 123.834C476.898 125.016 474.713 125.079 473.213 123.966C468.939 120.795 464.928 117.166 461.294 113.132L488.45 94.7444C488.435 94.7275 488.42 94.7093 488.406 94.6912C488.474 94.6537 488.539 94.6114 488.603 94.5678C490.388 93.361 490.539 90.8228 488.951 88.8759C487.555 87.1636 485.258 86.4537 483.475 87.0898C483.469 87.0765 483.461 87.062 483.455 87.0475L452.899 95.8134C451.265 96.2826 449.204 95.4155 448.524 93.9644C446.572 89.8082 444.978 85.4331 443.803 80.8718C443.444 79.4799 444.573 78.3372 446.304 78.3517L480.521 78.6395L493.942 78.752C495.468 78.7653 496.957 79.7 497.388 80.9298C497.616 81.5768 497.878 82.2104 498.175 82.826C498.817 84.161 499.615 85.4162 500.533 86.5674C501.026 87.1829 501.553 87.7694 502.112 88.322L502.109 88.3196Z" fill="#455DFF"/>
</svg>
