<svg width="580" height="500" viewBox="0 0 580 500" fill="none" xmlns="http://www.w3.org/2000/svg">
<g clip-path="url(#clip0_1122_4438)">
<rect x="380" y="49" width="200" height="200" rx="40" fill="#43E72B" fill-opacity="0.5"/>
<path d="M48.0884 163.948C48.0884 156.245 54.3334 150 62.0369 150H517.965C525.668 150 531.913 156.245 531.913 163.948V476.745C531.913 480.32 529.015 483.219 525.439 483.219H54.5627C50.987 483.219 48.0884 480.32 48.0884 476.745V163.948Z" fill="#F5F5F5" stroke="#888888" stroke-width="2"/>
<path d="M59.2989 167.686C59.2989 164.11 62.1975 161.211 65.7731 161.211H514.227C517.802 161.211 520.701 164.11 520.701 167.686V466.655C520.701 468.166 519.475 469.392 517.964 469.392H62.036C60.5243 469.392 59.2989 468.166 59.2989 466.655V167.686Z" fill="#F5F5F5" stroke="#888888" stroke-width="2"/>
<path d="M1 487.209C1 485.697 2.22545 484.472 3.73711 484.472H576.263C577.775 484.472 579 485.697 579 487.209V489.825C579 493.4 576.101 496.299 572.526 496.299H7.47425C3.89863 496.299 1 493.4 1 489.825V487.209Z" stroke="#888888" stroke-width="2"/>
<path d="M66.0473 497.552C65.6707 498.357 64.8531 498.915 63.9053 498.915H31.7661C30.8183 498.915 30.0007 498.357 29.6241 497.552H66.0473Z" stroke="#888888" stroke-width="1.6817"/>
<path d="M550.003 497.925C549.626 498.731 548.809 499.289 547.861 499.289H515.722C514.774 499.289 513.956 498.731 513.58 497.925H550.003Z" stroke="#888888" stroke-width="1.6817"/>
<line x1="73" y1="413" x2="506" y2="413" stroke="#888888" stroke-width="2"/>
<line x1="73" y1="349" x2="506" y2="349" stroke="#888888" stroke-width="2"/>
<line x1="73" y1="285" x2="506" y2="285" stroke="#888888" stroke-width="2"/>
<line x1="73" y1="221" x2="506" y2="221" stroke="#888888" stroke-width="2"/>
<path d="M73 417L79.5606 410.104C86.1212 403.209 99.2424 389.417 112.364 373.777C125.485 358.136 138.606 340.645 151.727 328.229C164.848 315.813 177.97 308.47 191.091 311.711C204.212 314.952 217.333 328.776 230.455 330.237C243.576 331.697 256.697 320.794 269.818 320.985C282.939 321.176 296.061 332.461 309.182 339.515C322.303 346.569 335.424 349.39 348.545 336.981C361.667 324.572 374.788 296.932 387.909 279.49C401.03 262.048 414.152 254.804 427.273 255.915C440.394 257.027 453.515 266.493 466.636 260.899C479.758 255.306 492.879 234.653 499.439 224.326L506 214" stroke="#455DFF" stroke-width="2"/>
<path d="M74 398.039L80.5455 398.627C87.0909 399.215 100.182 400.39 113.273 390.364C126.364 380.337 139.455 359.108 152.545 350.369C165.636 341.629 178.727 345.38 191.818 346.986C204.909 348.592 218 348.053 231.091 346.612C244.182 345.171 257.273 342.829 270.364 340.99C283.455 339.152 296.545 337.818 309.636 331.771C322.727 325.723 335.818 314.961 348.909 308.342C362 301.723 375.091 299.247 388.182 292.044C401.273 284.841 414.364 272.911 427.455 260.68C440.545 248.45 453.636 235.917 466.727 230.597C479.818 225.276 492.909 227.168 499.455 228.114L506 229.059" stroke="#455DFF" stroke-width="2" stroke-dasharray="6.42 6.42"/>
</g>
<defs>
<clipPath id="clip0_1122_4438">
<rect width="580" height="500" rx="10" fill="white"/>
</clipPath>
</defs>
</svg>
