<svg xmlns="http://www.w3.org/2000/svg" xmlns:xlink="http://www.w3.org/1999/xlink"><symbol viewBox="0 0 14 14" id="icon-star" xmlns="http://www.w3.org/2000/svg"><path d="M6.194 1.101a.9.9 0 0 1 1.614 0l1.521 3.082 3.401.495a.9.9 0 0 1 .5 1.535l-2.462 2.399.581 3.387a.9.9 0 0 1-1.306.949l-3.042-1.6-3.042 1.6a.9.9 0 0 1-1.306-.949l.58-3.387-2.46-2.4a.9.9 0 0 1 .499-1.534l3.4-.495 1.522-3.082Z"/></symbol><symbol viewBox="0 0 10 17" id="icon-tooltip" xmlns="http://www.w3.org/2000/svg"><path d="M3.505 12.7c0-.529.04-1.024.12-1.486a4.34 4.34 0 0 1 .485-1.32c.198-.396.429-.715.693-.957.27-.25.564-.491.88-.726.322-.242.66-.55 1.012-.924.293-.323.487-.649.583-.979.102-.33.154-.686.154-1.067 0-.279-.033-.539-.1-.78a1.56 1.56 0 0 0-.33-.628 1.854 1.854 0 0 0-.89-.616 3.553 3.553 0 0 0-2.134-.044c-.316.095-.58.242-.792.44-.228.19-.396.43-.506.715-.103.279-.15.583-.143.913H.117c.058-.69.234-1.335.528-1.936a3.966 3.966 0 0 1 1.188-1.463 4.27 4.27 0 0 1 1.452-.748A5.46 5.46 0 0 1 4.913.841c.777 0 1.51.121 2.2.363A3.93 3.93 0 0 1 8.85 2.381c.337.381.59.818.759 1.31.176.483.264.985.264 1.506 0 .697-.15 1.342-.451 1.936A6.69 6.69 0 0 1 8.29 8.761a9.394 9.394 0 0 1-.737.704c-.25.205-.48.407-.693.605a2.929 2.929 0 0 0-.528.65c-.198.336-.312.64-.341.912-.03.264-.044.62-.044 1.067H3.505Zm.01 4.3v-2.662h2.432V17H3.516Z"/></symbol></svg>