<svg xmlns="http://www.w3.org/2000/svg" xmlns:xlink="http://www.w3.org/1999/xlink"><symbol viewBox="0 0 40 40" fill="none" id="icon-arrow"><path fill-rule="evenodd" clip-rule="evenodd" d="M24.217 9.116a1.25 1.25 0 0 1 0 1.768l-6.229 6.229c-.674.674-1.126 1.128-1.447 1.505-.31.366-.423.577-.475.738-.136.419-.136.87 0 1.288.052.16.165.372.476.738.32.377.772.83 1.446 1.505l6.23 6.23a1.25 1.25 0 1 1-1.768 1.767l-6.23-6.229-.035-.036c-.63-.63-1.155-1.155-1.55-1.619-.41-.484-.752-.984-.947-1.584-.299-.92-.299-1.912 0-2.832.195-.6.537-1.1.948-1.584.394-.464.92-.99 1.549-1.62l.036-.035 6.229-6.229a1.25 1.25 0 0 1 1.767 0Z" fill="currentColor"/></symbol><symbol viewBox="0 0 40 40" fill="none" id="icon-arrow-right"><path fill-rule="evenodd" clip-rule="evenodd" d="M15.783 9.116a1.25 1.25 0 0 1 1.768 0l6.228 6.229.036.036c.63.63 1.155 1.155 1.55 1.619.41.484.752.984.947 1.584.299.92.299 1.912 0 2.832-.195.6-.537 1.1-.948 1.584-.394.464-.92.99-1.549 1.62l-.036.035-6.228 6.229a1.25 1.25 0 0 1-1.768-1.768l6.229-6.229c.674-.674 1.126-1.128 1.447-1.505.31-.366.423-.577.475-.738.136-.419.136-.87 0-1.288-.052-.16-.165-.372-.476-.738-.32-.377-.772-.83-1.446-1.505l-6.23-6.23a1.25 1.25 0 0 1 0-1.767Z" fill="currentColor"/></symbol><symbol viewBox="0 0 24 24" fill="none" id="icon-copy"><path fill-rule="evenodd" clip-rule="evenodd" d="M8.4 1.25h-.033c-1.092 0-1.958 0-2.655.057-.714.058-1.317.18-1.868.46a4.75 4.75 0 0 0-2.076 2.077c-.281.55-.403 1.154-.46 1.868-.058.697-.058 1.563-.058 2.655V9.633c0 1.092 0 1.958.057 2.655.058.714.18 1.317.46 1.868a4.75 4.75 0 0 0 2.077 2.076c.55.281 1.154.403 1.868.461.44.036.949.05 1.539.054 0 .579.007 1.062.033 1.473.034.546.105 1.014.27 1.453a4.75 4.75 0 0 0 2.773 2.773c.44.165.907.236 1.454.27.535.034 1.195.034 2.027.034h1.825c1.092 0 1.958 0 2.655-.057.714-.058 1.317-.18 1.869-.46a4.75 4.75 0 0 0 2.075-2.076c.281-.552.403-1.155.461-1.869.057-.697.057-1.563.057-2.655V13.808c0-.832 0-1.492-.033-2.027-.035-.547-.106-1.015-.271-1.454a4.75 4.75 0 0 0-2.773-2.773c-.44-.165-.906-.236-1.453-.27a25.59 25.59 0 0 0-1.473-.034 21.588 21.588 0 0 0-.054-1.538c-.058-.714-.18-1.317-.46-1.868a4.75 4.75 0 0 0-2.076-2.076c-.552-.281-1.155-.403-1.869-.461-.697-.057-1.563-.057-2.655-.057H8.4Zm8.35 7.5v.883c0 1.092 0 1.958-.057 2.655-.058.714-.18 1.317-.46 1.868a4.75 4.75 0 0 1-2.076 2.076c-.552.281-1.155.403-1.869.461-.697.057-1.563.057-2.655.057H8.75c.002.568.008 1.01.03 1.376.03.477.088.777.178 1.019a3.25 3.25 0 0 0 1.897 1.897c.242.09.542.148 1.02.177.482.03 1.095.031 1.959.031H15.6c1.133 0 1.937 0 2.566-.052.62-.05 1.005-.147 1.31-.302a3.25 3.25 0 0 0 1.42-1.42c.155-.305.251-.69.302-1.31.052-.63.052-1.433.052-2.566v-1.767c0-.863 0-1.476-.03-1.959-.03-.477-.087-.777-.178-1.019a3.25 3.25 0 0 0-1.897-1.897c-.242-.09-.542-.148-1.019-.177a24.08 24.08 0 0 0-1.376-.03ZM4.525 3.104c.304-.155.688-.251 1.309-.302.63-.051 1.434-.052 2.566-.052h1.2c1.133 0 1.937 0 2.566.052.62.05 1.005.147 1.31.302a3.25 3.25 0 0 1 1.42 1.42c.155.305.251.69.302 1.31.051.63.052 1.434.052 2.566v1.2c0 1.133 0 1.937-.052 2.566-.05.62-.147 1.005-.302 1.31a3.25 3.25 0 0 1-1.42 1.42c-.305.155-.69.251-1.31.302-.63.051-1.433.052-2.566.052H8.4c-1.132 0-1.937 0-2.566-.052-.62-.05-1.005-.147-1.31-.302a3.25 3.25 0 0 1-1.42-1.42c-.155-.305-.251-.69-.302-1.31-.051-.63-.052-1.434-.052-2.566V8.4c0-1.132 0-1.937.052-2.566.05-.62.147-1.005.302-1.31a3.25 3.25 0 0 1 1.42-1.42Z" fill="currentColor"/></symbol><symbol viewBox="0 0 24 24" fill="none" id="icon-plus"><path fill-rule="evenodd" clip-rule="evenodd" d="M12 4.25a.75.75 0 0 1 .75.75v6.25H19a.75.75 0 0 1 0 1.5h-6.25V19a.75.75 0 0 1-1.5 0v-6.25H5a.75.75 0 0 1 0-1.5h6.25V5a.75.75 0 0 1 .75-.75Z" fill="currentColor"/></symbol><symbol viewBox="0 0 24 24" fill="none" id="icon-telegram"><path d="m21.936 5.17-3.03 14.185c-.226.999-.806 1.224-1.644.773l-4.545-3.352-2.225 2.127c-.225.226-.451.452-.967.452l.355-4.675 8.478-7.704c.354-.355-.097-.484-.548-.193l-10.541 6.64-4.546-1.386c-.999-.322-.999-1 .226-1.45L20.614 3.72c.87-.258 1.612.194 1.322 1.45Z" fill="currentColor"/></symbol><symbol viewBox="0 0 10 17" id="icon-tooltip" xmlns="http://www.w3.org/2000/svg"><path d="M3.505 12.7c0-.529.04-1.024.12-1.486a4.34 4.34 0 0 1 .485-1.32c.198-.396.429-.715.693-.957.27-.25.564-.491.88-.726.322-.242.66-.55 1.012-.924.293-.323.487-.649.583-.979.102-.33.154-.686.154-1.067 0-.279-.033-.539-.1-.78a1.56 1.56 0 0 0-.33-.628 1.854 1.854 0 0 0-.89-.616 3.553 3.553 0 0 0-2.134-.044c-.316.095-.58.242-.792.44-.228.19-.396.43-.506.715-.103.279-.15.583-.143.913H.117c.058-.69.234-1.335.528-1.936a3.966 3.966 0 0 1 1.188-1.463 4.27 4.27 0 0 1 1.452-.748A5.46 5.46 0 0 1 4.913.841c.777 0 1.51.121 2.2.363A3.93 3.93 0 0 1 8.85 2.381c.337.381.59.818.759 1.31.176.483.264.985.264 1.506 0 .697-.15 1.342-.451 1.936A6.69 6.69 0 0 1 8.29 8.761a9.394 9.394 0 0 1-.737.704c-.25.205-.48.407-.693.605a2.929 2.929 0 0 0-.528.65c-.198.336-.312.64-.341.912-.03.264-.044.62-.044 1.067H3.505Zm.01 4.3v-2.662h2.432V17H3.516Z"/></symbol></svg>