<svg width="120" height="120" viewBox="0 0 120 120" fill="none" xmlns="http://www.w3.org/2000/svg">
<g clip-path="url(#clip0_1471_2)">
<path d="M10.347 5.24092C8.51628 -8.09431 16.1028 8.02331 28.0356 9.71847C39.9173 10.7005 41.7795 18.6307 42.9173 29.6278C38.9764 13.1672 34.2954 18.8489 23.1027 13.3894C20.0122 12.3528 26.6971 16.6978 29.634 18.1046C36.13 21.2221 37.5276 17.1382 42.8425 29.6083C30.76 21.2689 15.6303 32.4375 10.347 5.24092Z" fill="#3650FF"/>
<path d="M42.9963 29.9526C42.9569 29.9643 42.9136 29.9798 42.8703 29.9954C24.4493 24.7385 9.64249 42.2434 9.64249 57.4297C9.64249 62.6983 9.04014 67.624 8.41023 72.7757C7.39844 81.0566 6.31184 89.9104 7.55985 101.66C10.1228 124.632 46.5198 123.946 59.9684 111.02C60.5236 109.902 52.6733 114.979 43.8112 116.308C17.2014 120.096 23.3234 106.297 25.595 88.3789C26.906 81.5165 23.8116 63.6647 23.2486 56.5918C21.0596 43.1085 35.0161 30.2215 46.4884 32.4583C54.5512 33.2377 62.2519 38.896 59.5433 35.6421C56.8346 32.392 51.2993 27.2481 43.0002 29.9487C43.0042 29.9682 43.012 29.9876 43.016 30.0071C43.0081 29.9876 43.0002 29.972 42.9923 29.9526H42.9963Z" fill="#3650FF"/>
<path fill-rule="evenodd" clip-rule="evenodd" d="M42.5306 57.5657C40.5227 64.0189 30.4796 62.5147 30.5583 55.6951V48.6417C30.4048 43.4082 36.8889 40.1699 41.0621 43.2796C42.5542 39.6087 47.8415 38.1629 51.0541 40.6687C55.5186 37.2121 62.5736 41.3 61.5578 46.9232L60.5382 53.9065C60.0106 58.5126 54.0068 60.7378 50.5383 57.7021C48.3966 59.596 44.625 59.5492 42.5306 57.5696V57.5657ZM52.1958 44.1252C53.554 47.5701 50.3494 51.7904 49.5462 46.8959C49.7431 45.4307 46.3179 41.1714 48.0581 40.8908C50.0816 40.8908 51.4045 42.1885 52.1958 44.1252ZM41.4597 51.6579C43.8691 49.9472 42.1133 43.19 38.137 43.5524C36.3968 43.8213 39.8259 48.0923 39.6251 49.5536C39.9361 50.976 40.196 52.1607 41.4558 51.6541L41.4597 51.6579ZM59.2311 48.9964C61.6405 47.2856 59.8846 40.5284 55.9083 40.8908C54.1682 41.1597 57.5973 45.4307 57.3965 46.8959C57.7075 48.3144 57.9673 49.503 59.2272 48.9964H59.2311Z" fill="#3650FF"/>
<path fill-rule="evenodd" clip-rule="evenodd" d="M30.5592 72.4162C30.3427 66.2747 38.9055 63.4962 42.4566 68.379C44.1574 64.8835 49.4368 63.7495 52.4683 66.3409C56.6966 62.0153 64.7594 65.9746 63.6571 72.0226L62.6374 79.0059C62.102 83.7601 55.7714 85.9073 52.3856 82.5793C49.8581 85.654 44.2794 85.0617 42.4645 81.5272C40.2953 87.809 30.4686 86.1801 30.5553 79.4696V72.4162H30.5592ZM42.2795 70.5651C43.0708 72.5019 42.1692 75.1557 41.4645 75.4363C39.2913 76.2468 39.6693 71.2705 38.4252 69.9923C35.5316 65.0705 41.7401 67.8217 42.2795 70.5651ZM52.5785 74.5049C54.9879 72.7942 53.2321 66.0369 49.2557 66.3994C47.5117 66.5903 50.9408 70.9782 50.7439 72.4045C51.0549 73.823 51.3148 75.0115 52.5746 74.5049H52.5785ZM61.3382 74.1035C63.7476 72.3928 61.9918 65.6356 58.0154 65.998C56.2753 66.2669 59.7044 70.5379 59.5036 72.0031C59.8146 73.4216 60.0745 74.6101 61.3343 74.1035H61.3382Z" fill="#3650FF"/>
<path fill-rule="evenodd" clip-rule="evenodd" d="M30.5593 98.8529C30.3782 93.2998 37.5986 90.1745 41.6143 93.9272C43.4292 90.9967 48.0118 90.0575 50.8897 92.1424C54.7164 86.8855 63.9052 90.5953 62.7163 97.1226L61.6966 104.106C61.1691 108.677 55.2518 110.918 51.7676 107.96C49.8267 111.19 44.5945 111.643 42.1182 108.751C39.4411 114.238 30.3467 112.102 30.5593 105.91V98.8568V98.8529ZM42.2796 97.0018C43.6379 100.447 40.4332 104.667 39.63 99.7725C39.8269 98.3073 36.4018 94.048 38.1419 93.7713C40.1655 93.7713 41.4883 95.069 42.2796 97.0057V97.0018ZM51.4015 100.603C53.8109 98.8918 52.055 92.1346 48.0787 92.497C46.3386 92.7659 49.7677 97.0369 49.5669 98.4983C49.8779 99.9167 50.1377 101.105 51.4015 100.599V100.603ZM60.3974 99.2036C62.8068 97.4929 61.051 90.7356 57.0746 91.098C55.3345 91.3669 58.7636 95.6379 58.5628 97.1032C58.8738 98.5216 59.1337 99.7102 60.3935 99.2036H60.3974Z" fill="#3650FF"/>
<path d="M65.2673 36.0259C82.2552 19.7991 115.042 35.566 110.841 58.4448C109.83 66.3711 111.054 75.7744 112.2 84.5463C112.963 90.3956 113.688 95.9604 113.688 100.613C113.688 118.309 91.6173 122.954 75.3065 117.604C71.4011 116.322 63.4957 112.016 63.0626 111.396C61.8855 109.713 69.1492 114.307 76.4876 115.133C86.8851 116.302 101.916 111.895 100.263 100.613C98.0345 85.3958 96.2747 73.3505 99.381 58.4448C101.905 43.4183 90.4874 30.9716 75.8971 33.1032C71.5979 33.3994 65.0705 37.0001 65.2673 36.0259Z" fill="#3650FF"/>
</g>
<defs>
<clipPath id="clip0_1471_2">
<rect width="120" height="120" rx="8" fill="white"/>
</clipPath>
</defs>
</svg>
