<svg width="120" height="120" viewBox="0 0 120 120" fill="none" xmlns="http://www.w3.org/2000/svg">
<rect width="120" height="120" rx="8" fill="white"/>
<path d="M15.1838 10.7277C13.5376 -1.26441 20.3599 13.2299 31.0909 14.7543C41.7759 15.6374 43.4505 22.7689 44.4736 32.6583C40.9297 17.8557 36.7202 22.9651 26.6548 18.0554C23.8755 17.1233 29.8872 21.0307 32.5283 22.2958C38.37 25.0993 39.6268 21.4267 44.4064 32.6408C33.5409 25.1414 19.9351 35.185 15.1838 10.7277Z" fill="#3650FF"/>
<path d="M44.5445 32.9497C44.5091 32.9602 44.4702 32.9743 44.4312 32.9883C27.8656 28.2608 14.5502 44.0026 14.5502 57.6594C14.5502 62.3973 14.0085 66.8269 13.442 71.4597C12.5321 78.9066 11.555 86.8687 12.6773 97.4345C14.9821 118.093 47.7132 117.476 59.8072 105.852C60.3064 104.846 53.2468 109.413 45.2774 110.608C21.3478 114.014 26.8531 101.605 28.8959 85.4914C30.0749 79.3202 27.2921 63.2664 26.7858 56.9059C24.8174 44.7806 37.3681 33.1915 47.6849 35.2031C54.9356 35.9039 61.8607 40.9924 59.4249 38.0662C56.9891 35.1435 52.0112 30.5177 44.5481 32.9462C44.5516 32.9637 44.5587 32.9813 44.5622 32.9988C44.5551 32.9813 44.5481 32.9672 44.541 32.9497H44.5445Z" fill="#3650FF"/>
<path fill-rule="evenodd" clip-rule="evenodd" d="M44.1262 57.7816C42.3206 63.5849 33.289 62.2322 33.3598 56.0995V49.7565C33.2218 45.05 39.0528 42.1379 42.8056 44.9344C44.1475 41.6332 48.9022 40.3331 51.7912 42.5864C55.806 39.478 62.1504 43.1541 61.237 48.211L60.32 54.4909C59.8456 58.6332 54.4465 60.6342 51.3274 57.9042C49.4014 59.6074 46.0097 59.5653 44.1262 57.7851V57.7816ZM52.8179 45.6948C54.0394 48.7928 51.1575 52.588 50.4352 48.1865C50.6122 46.8688 47.5321 43.0385 49.0969 42.7862C50.9167 42.7862 52.1063 43.9532 52.8179 45.6948ZM43.1632 52.4689C45.3299 50.9304 43.7509 44.8538 40.1751 45.1797C38.6103 45.4215 41.694 49.2623 41.5134 50.5765C41.7931 51.8556 42.0267 52.921 43.1597 52.4654L43.1632 52.4689ZM59.1446 50.0754C61.3114 48.5369 59.7323 42.4603 56.1565 42.7862C54.5917 43.028 57.6754 46.8688 57.4948 48.1865C57.7745 49.4621 58.0082 50.5309 59.1411 50.0754H59.1446Z" fill="#3650FF"/>
<path fill-rule="evenodd" clip-rule="evenodd" d="M33.3605 71.1371C33.1658 65.6142 40.8662 63.1155 44.0596 67.5066C45.5891 64.3631 50.3368 63.3433 53.0629 65.6738C56.8653 61.7839 64.116 65.3443 63.1247 70.7832L62.2078 77.0631C61.7263 81.3385 56.0333 83.2694 52.9885 80.2767C50.7156 83.0416 45.6988 82.509 44.0667 79.3305C42.1159 84.9796 33.2791 83.5147 33.357 77.4801V71.1371H33.3605ZM43.9003 69.4725C44.6119 71.2142 43.8012 73.6007 43.1674 73.8531C41.2131 74.582 41.553 70.1068 40.4342 68.9574C37.832 64.5313 43.4153 67.0054 43.9003 69.4725ZM53.162 73.0155C55.3287 71.4771 53.7497 65.4004 50.1739 65.7263C48.6055 65.898 51.6892 69.844 51.5122 71.1266C51.7919 72.4022 52.0255 73.4711 53.1585 73.0155H53.162ZM61.0394 72.6546C63.2061 71.1161 61.6271 65.0395 58.0513 65.3654C56.4864 65.6072 59.5701 69.448 59.3896 70.7657C59.6693 72.0413 59.9029 73.1101 61.0359 72.6546H61.0394Z" fill="#3650FF"/>
<path fill-rule="evenodd" clip-rule="evenodd" d="M33.3607 94.911C33.1979 89.9172 39.691 87.1066 43.3022 90.4814C44.9343 87.8461 49.0553 87.0015 51.6434 88.8764C55.0847 84.1489 63.348 87.4851 62.2788 93.355L61.3618 99.6349C60.8874 103.746 55.5662 105.761 52.4329 103.101C50.6875 106.006 45.9823 106.412 43.7554 103.812C41.3479 108.746 33.1695 106.826 33.3607 101.257V94.9145V94.911ZM43.9005 93.2464C45.122 96.3443 42.2401 100.14 41.5178 95.738C41.6948 94.4203 38.6147 90.59 40.1795 90.3412C41.9993 90.3412 43.1889 91.5082 43.9005 93.2499V93.2464ZM52.1036 96.4844C54.2704 94.946 52.6913 88.8694 49.1155 89.1953C47.5507 89.4371 50.6344 93.2779 50.4538 94.5921C50.7335 95.8677 50.9672 96.9365 52.1036 96.4809V96.4844ZM60.1935 95.2264C62.3602 93.6879 60.7812 87.6113 57.2054 87.9372C55.6405 88.179 58.7242 92.0198 58.5436 93.3375C58.8233 94.6131 59.057 95.6819 60.1899 95.2264H60.1935Z" fill="#3650FF"/>
<path d="M64.5726 38.4123C79.8495 23.82 109.334 37.9988 105.556 58.5733C104.647 65.7012 105.748 74.1574 106.778 82.0458C107.465 87.306 108.116 92.3103 108.116 96.4945C108.116 112.408 88.2686 116.585 73.6007 111.774C70.0886 110.621 62.9794 106.748 62.59 106.191C61.5314 104.677 68.0635 108.809 74.6628 109.552C84.013 110.603 97.5303 106.64 96.0433 96.4945C94.0394 82.8098 92.4569 71.9776 95.2503 58.5733C97.5197 45.0602 87.2525 33.8671 74.1317 35.784C70.2656 36.0504 64.3956 39.2885 64.5726 38.4123Z" fill="#3650FF"/>
</svg>
