<?xml version="1.0" encoding="UTF-8"?>
<svg id="_Слой_1" data-name="Слой 1" xmlns="http://www.w3.org/2000/svg" viewBox="0 0 62.36 62.36">
  <defs>
    <style>
      .cls-1, .cls-2 {
        stroke: #f60;
        stroke-miterlimit: 10;
        stroke-width: 2.5px;
      }

      .cls-1, .cls-3 {
        fill: #f60;
      }

      .cls-2 {
        fill: none;
      }

      .cls-3 {
        stroke-width: 0px;
      }
    </style>
  </defs>
  <path class="cls-2" d="m31.18,9.22c-12.13,0-21.96,9.83-21.96,21.96s9.83,21.96,21.96,21.96,21.96-9.83,21.96-21.96-9.83-21.96-21.96-21.96Zm0,33.46c-6.35,0-11.51-5.15-11.51-11.51s5.15-11.51,11.51-11.51,11.51,5.15,11.51,11.51-5.15,11.51-11.51,11.51Z"/>
  <circle class="cls-1" cx="31.18" cy="31.18" r="11.51" transform="translate(-1.23 1.29) rotate(-2.32)"/>
  <path class="cls-3" d="m31.18,9.22c.58,0,1.04-.47,1.04-1.04V3.88c0-.58-.47-1.04-1.04-1.04s-1.04.47-1.04,1.04v4.3c0,.58.47,1.04,1.04,1.04Z"/>
  <path class="cls-3" d="m30.14,54.18v4.3c0,.58.47,1.04,1.04,1.04s1.04-.47,1.04-1.04v-4.3c0-.58-.47-1.04-1.04-1.04s-1.04.47-1.04,1.04Z"/>
  <path class="cls-3" d="m58.48,30.14h-4.3c-.58,0-1.04.47-1.04,1.04s.47,1.04,1.04,1.04h4.3c.58,0,1.04-.47,1.04-1.04s-.47-1.04-1.04-1.04Z"/>
  <path class="cls-3" d="m8.18,30.14H3.88c-.58,0-1.04.47-1.04,1.04s.47,1.04,1.04,1.04h4.3c.58,0,1.04-.47,1.04-1.04s-.47-1.04-1.04-1.04Z"/>
</svg>