<svg viewBox="0 0 40 40" fill="none">
    <path fill-rule="evenodd" clip-rule="evenodd" d="M24.2172 9.11612C24.7054 9.60427 24.7054 10.3957 24.2172 10.8839L17.9885 17.1127C17.3138 17.7873 16.8617 18.2408 16.5415 18.6179C16.2308 18.984 16.1184 19.1951 16.066 19.3562C15.9301 19.7746 15.9301 20.2254 16.066 20.6438C16.1184 20.8049 16.2308 21.016 16.5415 21.3821C16.8617 21.7593 17.3138 22.2127 17.9885 22.8874L24.2172 29.1161C24.7054 29.6043 24.7054 30.3957 24.2172 30.8839C23.7291 31.372 22.9376 31.372 22.4495 30.8839L16.2207 24.6551L16.1848 24.6192C15.5553 23.9898 15.0299 23.4643 14.6357 23C14.2246 22.5157 13.8833 22.0163 13.6884 21.4163C13.3893 20.4958 13.3893 19.5042 13.6884 18.5837C13.8833 17.9837 14.2246 17.4843 14.6357 17C15.0299 16.5357 15.5553 16.0103 16.1848 15.3808L16.2207 15.3449L22.4495 9.11612C22.9376 8.62796 23.7291 8.62796 24.2172 9.11612Z" fill="currentColor"/>
</svg>
