<svg viewBox="0 0 40 40" fill="none">
    <path id="Icon" fill-rule="evenodd" clip-rule="evenodd" d="M15.7828 9.11612C16.2709 8.62796 17.0624 8.62796 17.5506 9.11612L23.7793 15.3449L23.8152 15.3807C24.4447 16.0102 24.9702 16.5357 25.3643 17C25.7755 17.4843 26.1167 17.9837 26.3116 18.5837C26.6107 19.5042 26.6107 20.4958 26.3116 21.4163C26.1167 22.0163 25.7755 22.5157 25.3643 23C24.9702 23.4643 24.4447 23.9898 23.8152 24.6192L23.7793 24.6551L17.5506 30.8839C17.0624 31.372 16.2709 31.372 15.7828 30.8839C15.2946 30.3957 15.2946 29.6043 15.7828 29.1161L22.0116 22.8874C22.6862 22.2127 23.1383 21.7593 23.4585 21.3821C23.7692 21.016 23.8816 20.8049 23.934 20.6438C24.0699 20.2254 24.0699 19.7746 23.934 19.3562C23.8816 19.1951 23.7692 18.984 23.4585 18.6179C23.1383 18.2408 22.6862 17.7873 22.0116 17.1127L15.7828 10.8839C15.2946 10.3957 15.2946 9.60427 15.7828 9.11612Z" fill="currentColor"/>
</svg>
