<svg viewBox="0 0 160 160" xmlns="http://www.w3.org/2000/svg">
  <path fill="#20b038" stroke-width="0" d="m26.6,0h106.87c14.68,0,26.6,11.92,26.6,26.6v106.87c0,14.68-11.92,26.6-26.6,26.6H26.6c-14.68,0-26.6-11.92-26.6-26.6V26.6C0,11.92,11.92,0,26.6,0Z"/>
  <path fill="#ffffff" fill-rule="evenodd" stroke-width="0" d="m134.61,78.64c0,29.36-23.99,53.17-53.58,53.17-9.4,0-18.23-2.4-25.9-6.62l-29.67,9.43,9.67-28.52c-4.88-8.01-7.69-17.41-7.69-27.45,0-29.37,23.99-53.17,53.58-53.17s53.58,23.81,53.58,53.17h0Zm-53.58-44.7c-24.85,0-45.05,20.05-45.05,44.7,0,9.78,3.18,18.84,8.58,26.21l-5.63,16.6,17.31-5.5c7.11,4.67,15.63,7.39,24.79,7.39,24.84,0,45.05-20.05,45.05-44.7s-20.21-44.7-45.05-44.7h0Zm27.06,56.95c-.33-.54-1.21-.87-2.52-1.52-1.31-.65-7.78-3.81-8.98-4.24-1.2-.43-2.08-.65-2.95.65-.88,1.3-3.39,4.24-4.16,5.11-.76.87-1.53.98-2.84.33-1.32-.65-5.55-2.03-10.56-6.47-3.9-3.46-6.54-7.72-7.31-9.03-.76-1.3-.08-2.01.57-2.66.59-.59,1.32-1.52,1.97-2.28.66-.76.88-1.31,1.31-2.18.44-.87.22-1.63-.11-2.28-.33-.65-2.95-7.06-4.05-9.68-1.09-2.6-2.18-2.51-2.95-2.51s-2.18.23-2.18.23c0,0-2.63.33-3.84,1.63-1.2,1.3-4.6,4.46-4.6,10.87s4.7,12.61,5.36,13.48c.66.87,9.08,14.46,22.44,19.68,13.35,5.22,13.35,3.48,15.76,3.26,2.4-.21,7.77-3.15,8.87-6.19,1.1-3.04,1.1-5.65.77-6.19h0Zm0,0"/>
</svg>
